<svg width="735" height="750" viewBox="0 0 735 750" fill="none" xmlns="http://www.w3.org/2000/svg">
<path d="M579.711 738.463L544.586 708.463L592.211 652.838L601.461 660.713L612.586 647.088L592.211 628.963L641.211 570.463L655.336 582.463L670.086 565.088L709.586 598.338L705.336 603.463L734.086 627.713L701.461 665.338L693.086 657.838L616.086 748.713L589.961 726.713L579.711 738.463Z" fill="#0097DC"/>
<path d="M579.711 738.463L544.586 708.463L592.211 652.838L601.461 660.713L612.586 647.088L592.211 628.963L641.211 570.463L655.336 582.463L670.086 565.088L709.586 598.338L705.336 603.463L734.086 627.713L701.461 665.338L693.086 657.838L616.086 748.713L589.961 726.713L579.711 738.463Z" stroke="#0097DC"/>
<path d="M451.836 533.213L399.211 594.338L383.461 580.588L367.711 567.338L357.336 579.588L306.461 536.588L310.211 532.338L282.961 509.463L287.711 503.963L256.961 478.213L311.836 414.463L451.836 533.213Z" fill="#0097DC"/>
<path d="M451.836 533.213L399.211 594.338L383.461 580.588L367.711 567.338L357.336 579.588L306.461 536.588L310.211 532.338L282.961 509.463L287.711 503.963L256.961 478.213L311.836 414.463L451.836 533.213Z" stroke="#0097DC"/>
<path d="M441.336 437.711L419.586 462.586L333.961 389.963L379.586 335.963L405.461 357.463L422.836 337.088L453.211 362.088L442.461 374.588L500.836 424.713L469.211 460.838L441.336 437.711Z" fill="#0097DC"/>
<path d="M441.336 437.711L419.586 462.586L333.961 389.963L379.586 335.963L405.461 357.463L422.836 337.088L453.211 362.088L442.461 374.588L500.836 424.713L469.211 460.838L441.336 437.711Z" stroke="#0097DC"/>
<path d="M591.211 652.586L539.461 713.086L458.504 644.537L451.185 652.54L424.509 630.241L421.91 633.046L389.711 605.9L452.586 533.525L484.898 561.213L481.711 565.15L505.836 585.9L509.273 581.838L591.211 652.586Z" fill="#0097DC"/>
<path d="M591.211 652.586L539.461 713.086L458.504 644.537L451.185 652.54L424.509 630.241L421.91 633.046L389.711 605.9L452.586 533.525L484.898 561.213L481.711 565.15L505.836 585.9L509.273 581.838L591.211 652.586Z" stroke="#0097DC"/>
<path d="M109.961 259.838L78.9609 296.338L0.710938 229.588L33.7109 192.088L26.2109 184.338L39.4609 169.588L29.9609 161.338L54.2109 133.588L92.9609 164.338L101.961 171.338L89.7109 184.338L99.7109 192.088L104.461 186.838L124.711 204.588L104.461 228.338L114.711 237.838L101.961 252.838L109.961 259.838Z" fill="#0097DC"/>
<path d="M109.961 259.838L78.9609 296.338L0.710938 229.588L33.7109 192.088L26.2109 184.338L39.4609 169.588L29.9609 161.338L54.2109 133.588L92.9609 164.338L101.961 171.338L89.7109 184.338L99.7109 192.088L104.461 186.838L124.711 204.588L104.461 228.338L114.711 237.838L101.961 252.838L109.961 259.838Z" stroke="#0097DC"/>
<path d="M92.2109 115.963L60.3359 88.9629L76.2949 69.7659L60.3359 56.4629L83.8359 6.71289L88.7109 0.712891L145.711 49.4629L135.211 61.8379L136.961 63.2129L92.2109 115.963Z" fill="#0097DC"/>
<path d="M92.2109 115.963L60.3359 88.9629L76.2949 69.7659L60.3359 56.4629L83.8359 6.71289L88.7109 0.712891L145.711 49.4629L135.211 61.8379L136.961 63.2129L92.2109 115.963Z" stroke="#0097DC"/>
<path d="M171.703 92.6055L145.104 123.541L200.036 169.655L226.057 139.298L171.703 92.6055Z" fill="#0097DC"/>
<path d="M171.703 92.6055L145.104 123.541L200.036 169.655L226.057 139.298L171.703 92.6055Z" stroke="#0097DC"/>
<path d="M248.961 316.338L180.461 396.838L132.398 355.557L137.555 349.588L135.586 347.838L130.211 353.963L105.961 332.588L112.586 324.963L110.461 323.213L109.461 324.088L80.0859 298.963L125.086 246.338L183.586 295.713L200.086 275.838L248.961 316.338Z" fill="#0097DC"/>
<path d="M248.961 316.338L180.461 396.838L132.398 355.557L137.555 349.588L135.586 347.838L130.211 353.963L105.961 332.588L112.586 324.963L110.461 323.213L109.461 324.088L80.0859 298.963L125.086 246.338L183.586 295.713L200.086 275.838L248.961 316.338Z" stroke="#0097DC"/>
<path d="M263.336 467.213L182.711 398.338L233.961 338.338L248.961 351.338L266.211 332.338L331.961 387.838L263.336 467.213Z" fill="#0097DC"/>
<path d="M263.336 467.213L182.711 398.338L233.961 338.338L248.961 351.338L266.211 332.338L331.961 387.838L263.336 467.213Z" stroke="#0097DC"/>
<path d="M267.211 178.463L243.211 206.588L202.086 171.588L225.961 143.588L267.211 178.463Z" fill="#0097DC"/>
<path d="M267.211 178.463L243.211 206.588L202.086 171.588L225.961 143.588L267.211 178.463Z" stroke="#0097DC"/>
<path d="M268.211 179.463L244.211 207.088L292.711 247.213L315.836 220.213L268.211 179.463Z" fill="#0097DC"/>
<path d="M268.211 179.463L244.211 207.088L292.711 247.213L315.836 220.213L268.211 179.463Z" stroke="#0097DC"/>
<path d="M619.211 595.588L592.461 572.838L575.634 592.647L516.711 542.088L535.961 519.588L508.336 496.088L543.461 455.088L599.711 502.838L596.836 506.213L653.336 554.338L619.211 595.588Z" fill="#0097DC"/>
<path d="M619.211 595.588L592.461 572.838L575.634 592.647L516.711 542.088L535.961 519.588L508.336 496.088L543.461 455.088L599.711 502.838L596.836 506.213L653.336 554.338L619.211 595.588Z" stroke="#0097DC"/>
</svg>
