<svg width="92" height="52" viewBox="0 0 92 52" fill="none" xmlns="http://www.w3.org/2000/svg">
<g clip-path="url(#clip0_1328_15)">
<path d="M12.3516 51.9029V46.2427H14.5667C14.9559 46.2427 15.2822 46.3046 15.5463 46.4285C15.8105 46.5524 16.0101 46.7241 16.1459 46.9417C16.2817 47.1602 16.3496 47.4097 16.3496 47.6893C16.3496 47.969 16.2883 48.2151 16.1657 48.4093C16.0432 48.6035 15.8817 48.7517 15.6821 48.8539C15.4826 48.956 15.2648 49.0213 15.0304 49.0481L15.1505 48.9593C15.4064 48.9644 15.6341 49.0305 15.8345 49.1578C16.0341 49.2842 16.1914 49.4524 16.3065 49.6634C16.4208 49.8735 16.4788 50.1054 16.4788 50.3591C16.4788 50.6555 16.4084 50.9209 16.2668 51.1553C16.1252 51.3897 15.919 51.573 15.6474 51.7053C15.3757 51.8376 15.042 51.9037 14.6479 51.9037H12.3524L12.3516 51.9029ZM13.3113 48.6362H14.4309C14.7348 48.6362 14.9667 48.565 15.1265 48.4219C15.2863 48.2787 15.3666 48.0811 15.3666 47.8275C15.3666 47.5738 15.288 47.3846 15.1306 47.2414C14.9733 47.0983 14.7373 47.0271 14.4226 47.0271H13.3113V48.6362ZM13.3113 51.1101H14.5112C14.8259 51.1101 15.0694 51.0364 15.2433 50.8874C15.4163 50.7392 15.5033 50.5274 15.5033 50.2528C15.5033 49.9782 15.4138 49.7689 15.2358 49.6098C15.0569 49.4508 14.8077 49.3712 14.488 49.3712H13.3121V51.1101H13.3113Z" fill="black"/>
<path d="M19.277 52C18.872 52 18.5052 51.9188 18.1773 51.7572C17.8493 51.5956 17.5877 51.3478 17.3939 51.0138C17.1993 50.6797 17.1016 50.2595 17.1016 49.7522V46.2427H18.0613V49.7597C18.0613 50.2176 18.1715 50.5575 18.3934 50.7785C18.6145 50.9996 18.9143 51.1101 19.2935 51.1101C19.6728 51.1101 19.9783 50.9996 20.197 50.7785C20.4156 50.5575 20.5249 50.2176 20.5249 49.7597V46.2427H21.4846V49.7522C21.4846 50.2587 21.3861 50.6789 21.189 51.0138C20.9919 51.3478 20.7253 51.5956 20.3891 51.7572C20.0529 51.9188 19.6827 52 19.277 52Z" fill="black"/>
<path d="M24.3018 52.0001C24.0351 52.0001 23.7743 51.9632 23.5184 51.8912C23.2625 51.8192 23.029 51.7037 22.8187 51.548C22.6083 51.3914 22.4344 51.1897 22.2986 50.9419C22.1628 50.6941 22.0783 50.3977 22.0469 50.0528H22.9429C22.9851 50.3332 23.0762 50.5543 23.2145 50.7158C23.3528 50.8774 23.52 50.9938 23.7147 51.0633C23.9093 51.1336 24.1105 51.1687 24.3183 51.1687C24.5262 51.1687 24.7233 51.1353 24.8938 51.0674C25.0644 50.9996 25.2002 50.9017 25.3013 50.7719C25.4023 50.643 25.4536 50.4864 25.4536 50.3031C25.4536 50.1198 25.404 49.9674 25.3054 49.8301C25.2069 49.6928 25.0056 49.5974 24.7017 49.5429L23.7097 49.3571C23.2667 49.2709 22.9164 49.0875 22.658 48.8071C22.3996 48.5266 22.2705 48.1951 22.2705 47.8125C22.2705 47.4625 22.3599 47.1628 22.5379 46.915C22.7168 46.6672 22.9536 46.4772 23.2501 46.3449C23.5457 46.2126 23.8728 46.1465 24.2297 46.1465C24.5866 46.1465 24.9361 46.2109 25.2292 46.3407C25.5224 46.4696 25.7625 46.6655 25.9488 46.9267C26.1352 47.1879 26.2478 47.5236 26.285 47.933H25.3733C25.3361 47.6902 25.2624 47.4994 25.153 47.3587C25.0437 47.2189 24.9104 47.1193 24.7531 47.0598C24.5957 47.0004 24.4268 46.9711 24.2455 46.9711C24.0798 46.9711 23.9134 46.9979 23.7453 47.0523C23.5772 47.1059 23.4397 47.193 23.3337 47.311C23.2269 47.4299 23.1739 47.589 23.1739 47.7882C23.1739 47.9657 23.2377 48.1197 23.366 48.2495C23.4936 48.3784 23.6915 48.468 23.9581 48.5166L24.8781 48.694C25.3476 48.7803 25.7128 48.9502 25.9737 49.203C26.2345 49.4567 26.3654 49.815 26.3654 50.2788C26.3654 50.5593 26.3066 50.8071 26.1898 51.0222C26.0722 51.2382 25.9141 51.4174 25.7137 51.5597C25.5133 51.7029 25.2922 51.8117 25.0495 51.8871C24.8069 51.9624 24.5576 52.0001 24.3018 52.0001Z" fill="black"/>
<path d="M27.1406 51.9029V46.2427H28.1004V51.9029H27.1406Z" fill="black"/>
<path d="M29.0117 51.9029V46.2427H29.9715L32.6669 50.334V46.2427H33.6267V51.9029H32.6669L29.9715 47.8275V51.9029H29.0117Z" fill="black"/>
<path d="M34.5039 51.9029V46.2427H38.1185V47.0271H35.4637V48.6521H37.8792V49.4206H35.4637V51.1184H38.1185V51.9029H34.5039Z" fill="black"/>
<path d="M40.7822 52.0001C40.5156 52.0001 40.2547 51.9632 39.9989 51.8912C39.743 51.8184 39.5095 51.7037 39.2991 51.548C39.0888 51.3914 38.9149 51.1897 38.7791 50.9419C38.6433 50.6941 38.5588 50.3977 38.5273 50.0528H39.4233C39.4656 50.3332 39.5567 50.5543 39.695 50.7158C39.8332 50.8774 40.0005 50.9938 40.1951 51.0633C40.3897 51.1336 40.5909 51.1687 40.7988 51.1687C41.0066 51.1687 41.2037 51.1353 41.3743 51.0674C41.5449 50.9996 41.6807 50.9017 41.7826 50.7719C41.8836 50.643 41.9341 50.4864 41.9341 50.3031C41.9341 50.1198 41.8844 49.9674 41.7859 49.8301C41.6873 49.6928 41.4861 49.5974 41.1822 49.5429L40.1902 49.3571C39.7471 49.2709 39.3968 49.0875 39.1385 48.8071C38.8801 48.5266 38.7501 48.1951 38.7501 47.8125C38.7501 47.4625 38.8395 47.1628 39.0184 46.915C39.1973 46.6672 39.4341 46.4772 39.7306 46.3449C40.0262 46.2126 40.3533 46.1465 40.7102 46.1465C41.0671 46.1465 41.4166 46.2109 41.7097 46.3407C42.0028 46.4696 42.243 46.6655 42.4293 46.9267C42.6156 47.1879 42.7282 47.5236 42.7655 47.933H41.8538C41.8165 47.6902 41.7428 47.4994 41.6335 47.3587C41.5242 47.2189 41.3909 47.1193 41.2335 47.0598C41.0762 47.0004 40.9073 46.9711 40.7259 46.9711C40.5603 46.9711 40.3939 46.9979 40.2258 47.0523C40.0577 47.1059 39.9202 47.193 39.8142 47.311C39.7074 47.4299 39.6544 47.589 39.6544 47.7882C39.6544 47.9657 39.7181 48.1197 39.8465 48.2495C39.9748 48.3784 40.1719 48.468 40.4386 48.5166L41.3586 48.694C41.8281 48.7803 42.1933 48.9502 42.4541 49.203C42.715 49.4567 42.8458 49.815 42.8458 50.2788C42.8458 50.5593 42.787 50.8071 42.6703 51.0222C42.5527 51.2382 42.3945 51.4174 42.1941 51.5597C41.9937 51.7029 41.7726 51.8117 41.53 51.8871C41.2874 51.9624 41.0381 52.0001 40.7822 52.0001Z" fill="black"/>
<path d="M45.5166 52.0001C45.25 52.0001 44.9891 51.9632 44.7332 51.8912C44.4774 51.8184 44.2438 51.7037 44.0335 51.548C43.8232 51.3914 43.6493 51.1897 43.5135 50.9419C43.3777 50.6941 43.2932 50.3977 43.2617 50.0528H44.1577C44.1999 50.3332 44.291 50.5543 44.4293 50.7158C44.5676 50.8774 44.7349 50.9938 44.9295 51.0633C45.1241 51.1336 45.3253 51.1687 45.5332 51.1687C45.741 51.1687 45.9381 51.1353 46.1087 51.0674C46.2793 50.9996 46.4151 50.9017 46.5169 50.7719C46.618 50.643 46.6685 50.4864 46.6685 50.3031C46.6685 50.1198 46.6188 49.9674 46.5203 49.8301C46.4217 49.6928 46.2205 49.5974 45.9166 49.5429L44.9245 49.3571C44.4815 49.2709 44.1312 49.0875 43.8728 48.8071C43.6145 48.5266 43.4845 48.1951 43.4845 47.8125C43.4845 47.4625 43.5739 47.1628 43.7528 46.915C43.9316 46.6672 44.1685 46.4772 44.4649 46.3449C44.7606 46.2126 45.0877 46.1465 45.4446 46.1465C45.8015 46.1465 46.1509 46.2109 46.4441 46.3407C46.7372 46.4696 46.9774 46.6655 47.1637 46.9267C47.35 47.1879 47.4626 47.5236 47.4999 47.933H46.5882C46.5509 47.6902 46.4772 47.4994 46.3679 47.3587C46.2586 47.2189 46.1253 47.1193 45.9679 47.0598C45.8106 47.0004 45.6417 46.9711 45.4603 46.9711C45.2947 46.9711 45.1282 46.9979 44.9601 47.0523C44.792 47.1059 44.6546 47.193 44.5486 47.311C44.4418 47.4299 44.3888 47.589 44.3888 47.7882C44.3888 47.9657 44.4525 48.1197 44.5809 48.2495C44.7092 48.3784 44.9063 48.468 45.173 48.5166L46.093 48.694C46.5625 48.7803 46.9277 48.9502 47.1885 49.203C47.4494 49.4567 47.5802 49.815 47.5802 50.2788C47.5802 50.5593 47.5214 50.8071 47.4047 51.0222C47.2871 51.2382 47.1289 51.4174 46.9285 51.5597C46.7281 51.7029 46.507 51.8117 46.2644 51.8871C46.0217 51.9624 45.7725 52.0001 45.5166 52.0001Z" fill="black"/>
<path d="M53.3084 51.9999C52.7486 51.9999 52.2658 51.8777 51.8609 51.6316C51.4559 51.3863 51.1454 51.0439 50.9292 50.6043C50.7131 50.1648 50.6055 49.6575 50.6055 49.0798C50.6055 48.5022 50.7131 47.9873 50.9292 47.5478C51.1454 47.1083 51.4559 46.765 51.8609 46.5172C52.2658 46.2694 52.7486 46.1455 53.3084 46.1455C53.975 46.1455 54.5199 46.3113 54.9438 46.6428C55.3678 46.9743 55.6328 47.4423 55.7396 48.0459H54.6838C54.6143 47.7228 54.4627 47.4708 54.2284 47.2899C53.994 47.1091 53.6843 47.0187 53.3009 47.0187C52.944 47.0187 52.6368 47.1007 52.3809 47.2657C52.125 47.4297 51.9279 47.6675 51.7888 47.9773C51.6505 48.287 51.581 48.6554 51.581 49.0807C51.581 49.506 51.6505 49.8718 51.7888 50.1765C51.9271 50.4813 52.125 50.7174 52.3809 50.884C52.6368 51.0514 52.9432 51.1343 53.3009 51.1343C53.6851 51.1343 53.9924 51.0472 54.2242 50.8714C54.4561 50.6964 54.6093 50.4495 54.6838 50.1313H55.7479C55.6361 50.719 55.3678 51.177 54.9438 51.506C54.5199 51.835 53.975 51.9991 53.3084 51.9991V51.9999Z" fill="black"/>
<path d="M56.418 51.9029V46.2427H60.0326V47.0271H57.3777V48.6521H59.7933V49.4206H57.3777V51.1184H60.0326V51.9029H56.418Z" fill="black"/>
<path d="M60.7617 51.9029V46.2427H61.7215L64.4169 50.334V46.2427H65.3767V51.9029H64.4169L61.7215 47.8275V51.9029H60.7617Z" fill="black"/>
<path d="M67.7026 51.9029V47.0271H66.0547V46.2427H70.302V47.0271H68.6623V51.9029H67.7026Z" fill="black"/>
<path d="M70.9531 51.9029V46.2427H74.5677V47.0271H71.9129V48.6521H74.3284V49.4206H71.9129V51.1184H74.5677V51.9029H70.9531Z" fill="black"/>
<path d="M75.286 51.9029V46.2427H77.5972C78.0394 46.2427 78.4062 46.318 78.6969 46.4687C78.9875 46.6194 79.2037 46.8262 79.3445 47.0874C79.4861 47.3486 79.5564 47.6441 79.5564 47.9731C79.5564 48.2427 79.4977 48.4905 79.3809 48.7174C79.2633 48.9434 79.101 49.1326 78.8931 49.2833C79.1167 49.4181 79.2848 49.5998 79.3966 49.8292C79.5084 50.0586 79.5697 50.3239 79.5805 50.6253L79.6442 51.9029H78.7085L78.6282 50.6496C78.6174 50.4286 78.5776 50.2486 78.5081 50.108C78.4385 49.9681 78.3309 49.8643 78.1843 49.7965C78.0377 49.7295 77.839 49.6952 77.5889 49.6952H76.2449V51.9029H75.2852H75.286ZM76.2457 48.9108H77.5334C77.9011 48.9108 78.1677 48.8246 78.3334 48.6521C78.499 48.4796 78.581 48.2536 78.581 47.9731C78.581 47.6927 78.4981 47.4532 78.3334 47.2858C78.1677 47.1192 77.8986 47.0355 77.526 47.0355H76.2466V48.9116L76.2457 48.9108Z" fill="black"/>
<path d="M33.3447 23.2881C33.4159 23.2914 33.4275 23.5275 33.401 23.5786C32.8321 23.8163 32.2359 24.178 32.1522 24.8544C32.1514 24.8678 32.1522 24.8812 32.1522 24.8946C32.1522 24.8946 32.1324 29.9998 32.1324 30.0525C32.1324 30.2534 34.3243 30.2091 34.5761 30.2208C35.4944 30.2618 36.4119 30.3371 37.3195 30.4895C38.5517 30.6963 39.6564 31.0772 40.5002 32.0408L40.5549 32.0157L40.5358 24.8151C40.535 24.8017 40.5375 24.7883 40.5358 24.7749C40.4108 24.2081 39.9098 23.8205 39.3964 23.6221C39.2689 23.5702 39.2142 23.3559 39.3434 23.2889C40.795 23.2186 42.6201 23.2177 44.0709 23.2889C44.1422 23.2889 44.1538 23.5367 44.1273 23.5802C43.5559 23.813 42.9654 24.1813 42.8793 24.8544C42.8785 24.8678 42.8793 24.8812 42.8793 24.8946V39.2716C42.881 39.2984 42.8768 39.3252 42.8793 39.3519C42.9547 39.8174 43.2992 40.1498 43.6743 40.3959C43.6842 40.4018 43.7033 40.3901 43.714 40.3959C43.8002 40.4595 43.8921 40.5131 43.9923 40.5567C44.003 40.5608 44.0196 40.5533 44.032 40.5567C44.1637 40.6069 44.1571 40.7618 44.1115 40.8781C42.5589 40.9133 40.9167 40.9133 39.3641 40.8781C39.2813 40.9267 39.2581 40.6513 39.3011 40.5952C39.7682 40.4227 40.2104 40.1238 40.4563 39.6734C40.4605 39.6617 40.4522 39.6458 40.4563 39.6332C40.5126 39.5278 40.5474 39.4055 40.554 39.2875C40.5921 38.6169 40.6021 37.9597 40.5988 37.2858C40.5938 36.2586 40.5789 35.2037 40.5557 34.1882C40.5557 34.1547 40.5499 34.1229 40.5358 34.0919C40.535 34.0785 40.5367 34.0651 40.5358 34.0517C40.1582 32.5381 37.8089 32.143 36.4823 32.0065C35.0547 31.8591 33.5832 31.788 32.1332 31.7721L32.1531 39.2724C32.1547 39.2992 32.1506 39.326 32.1531 39.3528C32.2284 39.8183 32.5729 40.1506 32.948 40.3968C32.958 40.4026 32.977 40.3909 32.9878 40.3968C33.0739 40.4604 33.1658 40.514 33.266 40.5575C33.2768 40.5617 33.2933 40.5541 33.3058 40.5575C33.4374 40.6077 33.4308 40.7626 33.3853 40.879C31.8326 40.9141 30.1905 40.9141 28.6378 40.879C28.5476 40.9217 28.5293 40.6546 28.5749 40.596C29.0428 40.4252 29.48 40.1205 29.7301 39.6743C29.7342 39.6625 29.7259 39.6466 29.7301 39.6341C29.7673 39.5587 29.7938 39.4784 29.8096 39.393C29.8104 39.3796 29.8096 39.3662 29.8096 39.3528C29.8096 39.3528 29.8294 31.3677 29.8294 31.366C29.8294 31.361 29.2142 31.1166 29.1554 31.0831C28.9765 30.9818 28.7488 30.8462 28.5492 30.6092C27.953 29.9001 28.1368 28.8738 28.1691 28.6921C28.1741 28.6661 28.1782 28.6444 28.1807 28.6301C28.2172 28.4619 28.5608 28.4702 28.5782 28.6703C28.5799 28.6887 28.5799 28.7046 28.5782 28.7105C28.5409 28.8478 28.7322 29.4137 29.2332 29.6507C29.3276 29.695 29.5123 29.7662 29.7698 29.7553C29.7765 29.7553 29.7822 29.757 29.7897 29.7553C29.7963 29.7545 29.8038 29.7528 29.8096 29.7553V24.8159C29.8087 24.8025 29.8112 24.7891 29.8096 24.7757C29.6763 24.1428 29.1049 23.8121 28.5708 23.5576C28.5293 23.4923 28.5385 23.3199 28.6171 23.2897C30.1772 23.3467 31.7912 23.2136 33.3447 23.2897V23.2881Z" fill="black"/>
<path d="M22.1362 23.3283C22.3059 23.2914 22.4823 23.2931 22.6529 23.3283C22.7589 23.3283 22.8649 23.3266 22.9709 23.3283L23.2094 23.3685C23.2491 23.3693 23.2897 23.3651 23.3286 23.3685L23.4876 23.4086C23.5133 23.412 23.5414 23.4053 23.5671 23.4086L23.7261 23.4488C23.7394 23.4513 23.7534 23.4463 23.7659 23.4488L23.8851 23.489C23.9091 23.494 23.9406 23.484 23.9646 23.489L24.0441 23.5292C24.0565 23.5325 24.0714 23.5258 24.0838 23.5292L24.2031 23.5694C24.2155 23.5727 24.2304 23.566 24.2428 23.5694L24.3223 23.6096C24.3347 23.6129 24.3497 23.6062 24.3621 23.6096L24.7198 23.7301C24.7322 23.7335 24.7471 23.7268 24.7596 23.7301L24.8391 23.7703C24.8515 23.7737 24.8664 23.767 24.8788 23.7703L24.9583 23.8105C24.9707 23.8138 24.9856 23.8071 24.998 23.8105L25.0775 23.8507C25.0891 23.8549 25.1057 23.8465 25.1173 23.8507L25.5148 24.0114C25.5272 24.0148 25.5421 24.0081 25.5545 24.0114L25.634 24.0516C25.6464 24.0549 25.6613 24.0483 25.6738 24.0516L25.7533 24.0918C25.7657 24.0951 25.7806 24.0884 25.793 24.0918C25.8667 24.1403 25.9454 24.1655 26.0299 24.1671C26.1151 23.9629 26.2302 23.7636 26.4687 23.8909C26.5035 25.186 26.5035 26.5966 26.4687 27.9068C26.2294 28.0132 26.0837 27.8926 26.0315 27.5452C26.0274 27.5326 26.0356 27.5175 26.0315 27.505C25.5752 26.2233 24.8192 25.1048 23.4818 24.692C21.8588 24.1914 19.7223 24.5899 19.0789 26.3405C19.0755 26.353 19.0813 26.3681 19.0789 26.3806L18.9994 26.7021C18.9994 26.7155 18.9994 26.7289 18.9994 26.7423C18.9613 26.9399 18.9604 27.1467 18.9994 27.3451C18.9994 27.3585 18.9985 27.3719 18.9994 27.3853C19.1658 28.3104 19.921 28.986 20.668 29.4732C20.6779 29.4791 20.6969 29.4682 20.7077 29.4732L20.8667 29.5938C20.8775 29.5988 20.8957 29.5887 20.9065 29.5938L21.3437 29.8751C21.3545 29.8801 21.3727 29.8692 21.3834 29.8751L22.2976 30.4376C22.3084 30.4427 22.3266 30.4326 22.3374 30.4376L22.5759 30.5984C22.5866 30.6034 22.6049 30.5934 22.6156 30.5984L22.9336 30.7993C22.9444 30.8043 22.9626 30.7943 22.9734 30.7993L23.2914 31.0002C23.3328 31.0203 23.38 31.0253 23.4106 31.0404L23.8876 31.3217C23.8983 31.3267 23.9166 31.3167 23.9273 31.3217C25.2647 32.1028 26.5681 33.0748 27.2248 34.534C27.2289 34.5457 27.2206 34.5624 27.2248 34.5742L27.3838 35.0162C27.3871 35.0288 27.3805 35.0438 27.3838 35.0564L27.4235 35.1769C27.426 35.1895 27.421 35.2037 27.4235 35.2171L27.4633 35.3779C27.4649 35.3913 27.4624 35.4047 27.4633 35.418L27.503 35.6592C27.503 35.6725 27.503 35.6859 27.503 35.6993C27.5378 36.087 27.5403 36.4771 27.503 36.8639C27.503 36.8773 27.503 36.8907 27.503 36.904L27.4633 37.1452C27.4633 37.1586 27.4649 37.1719 27.4633 37.1853C27.0633 39.0765 25.3583 40.3231 23.587 40.7986C21.3445 41.4006 18.8155 41.0146 17.0186 39.4717C16.9449 39.4683 16.8778 39.5387 16.8182 39.6827C16.5631 39.7572 16.4695 39.6885 16.5366 39.475C16.5341 39.4215 16.5374 39.3679 16.5366 39.3143L16.5764 38.4311C16.5764 38.3775 16.5764 38.3239 16.5764 38.2703L16.6161 37.4273C16.6161 37.3737 16.6161 37.3201 16.6161 37.2665L16.6559 36.4235C16.6559 36.3699 16.655 36.3163 16.6559 36.2628C16.6691 36.0334 16.6807 35.804 16.6898 35.5746C16.9424 35.485 17.0765 35.5805 17.0931 35.8618C17.0964 35.8743 17.0898 35.8894 17.0931 35.9019C17.4972 37.2984 18.2831 38.5943 19.5964 39.275C19.6395 39.295 19.6784 39.3001 19.7157 39.3151L19.9542 39.4357C19.9657 39.4399 19.9823 39.4315 19.9939 39.4357L20.1529 39.5161C20.1645 39.5202 20.1802 39.5119 20.1926 39.5161L20.2721 39.5562C20.2846 39.5596 20.2995 39.5529 20.3119 39.5562L20.4311 39.5964C20.4436 39.5998 20.4585 39.5931 20.4709 39.5964L20.5504 39.6366C20.5736 39.6416 20.605 39.6316 20.6299 39.6366L20.7491 39.6768C20.774 39.681 20.8029 39.6735 20.8286 39.6768L20.9876 39.717C21.0265 39.7203 21.0671 39.7145 21.1069 39.717C21.4339 39.7538 21.7801 39.7706 22.0997 39.717C22.1395 39.7145 22.1801 39.7203 22.219 39.717L22.378 39.6768C22.4036 39.6735 22.4318 39.681 22.4575 39.6768L22.6165 39.6366C22.6289 39.6341 22.6438 39.6391 22.6562 39.6366L22.7755 39.5964C22.7879 39.5931 22.8028 39.5998 22.8152 39.5964L22.8947 39.5562C22.9071 39.5529 22.922 39.5596 22.9344 39.5562L23.0139 39.5161C23.0255 39.5119 23.0421 39.5202 23.0537 39.5161L23.1332 39.4759C23.1448 39.4717 23.1613 39.4801 23.1729 39.4759L23.3319 39.3955C23.4255 39.3545 23.5174 39.3227 23.6102 39.275C24.4631 38.7936 25.0949 38.0066 25.2788 37.0263C25.2804 37.0129 25.2779 36.9995 25.2788 36.9861L25.3185 36.745C25.3185 36.7182 25.3185 36.6914 25.3185 36.6646C25.3541 36.4662 25.3558 36.2603 25.3185 36.0618C25.3185 36.0484 25.3185 36.035 25.3185 36.0217L25.239 35.7002C25.2365 35.6876 25.2423 35.6726 25.239 35.66C24.7504 34.5089 23.6251 33.7839 22.5833 33.1836L20.5537 32.1204C19.0664 31.3167 17.5138 30.3003 16.8952 28.6327C16.891 28.6201 16.8985 28.605 16.8952 28.5925L16.8554 28.5121C16.8521 28.4996 16.8587 28.4845 16.8554 28.4719C16.8033 28.3154 16.7635 28.1546 16.7362 27.9897C16.7354 27.9763 16.7362 27.9629 16.7362 27.9495L16.6964 27.6281C16.6964 27.6013 16.6964 27.5745 16.6964 27.5477C16.6625 27.3744 16.6625 27.1994 16.6964 27.0253C16.6964 26.9985 16.6964 26.9717 16.6964 26.9449L16.7362 26.6636C16.7362 26.6502 16.7354 26.6368 16.7362 26.6234L16.7759 26.4627C16.7776 26.4493 16.7735 26.4359 16.7759 26.4225L16.8157 26.302C16.819 26.2894 16.8124 26.2743 16.8157 26.2618L16.8952 26.0608C16.8985 26.0483 16.891 26.0324 16.8952 26.0207C17.267 25.1483 17.9949 24.5263 18.8023 24.0935C18.813 24.0884 18.8304 24.0985 18.842 24.0935L19.16 23.9327C19.1716 23.9277 19.1882 23.9377 19.1998 23.9327L19.3588 23.8524C19.3703 23.8482 19.3869 23.8565 19.3985 23.8524L19.5575 23.772C19.5699 23.7678 19.5848 23.7753 19.5972 23.772L19.6767 23.7318C19.6892 23.7284 19.7041 23.7343 19.7165 23.7318L19.955 23.6514C19.9674 23.6481 19.9823 23.6548 19.9947 23.6514L20.114 23.6112C20.1264 23.6079 20.1413 23.6146 20.1537 23.6112L20.273 23.5711C20.2854 23.5685 20.3003 23.5736 20.3127 23.5711L20.432 23.5309C20.456 23.5258 20.4874 23.5359 20.5115 23.5309L20.6307 23.4907C20.6555 23.4865 20.6854 23.4949 20.7102 23.4907L20.8294 23.4505C20.8667 23.4446 20.9106 23.4555 20.9487 23.4505L21.1077 23.4103C21.1334 23.407 21.1615 23.4137 21.1872 23.4103L21.3859 23.3701C21.4381 23.3651 21.4927 23.3743 21.5449 23.3701C21.6343 23.3408 21.7271 23.3274 21.8231 23.3299C21.9283 23.3249 22.0351 23.3333 22.1411 23.3299L22.1362 23.3283Z" fill="black"/>
<path d="M52.5036 23.2075C52.4862 23.2075 52.4697 23.2075 52.4531 23.2075C52.4713 23.2075 52.4879 23.2084 52.5036 23.2075Z" fill="black"/>
<path d="M62.1587 30.9584C62.1587 30.9316 62.1587 30.9048 62.1587 30.878L62.1189 30.5163C62.1189 30.5029 62.1189 30.4895 62.1189 30.4762L62.0792 30.235C62.0792 30.2216 62.08 30.2083 62.0792 30.1949L62.0394 29.9939C62.0378 29.9805 62.0411 29.9671 62.0394 29.9538L61.9599 29.5921C61.9583 29.5787 61.9624 29.5653 61.9599 29.5519L61.8407 29.1099C61.8382 29.0973 61.844 29.0822 61.8407 29.0697L61.642 28.5071C61.6386 28.4945 61.6453 28.4795 61.642 28.4669L61.483 28.1052C61.4788 28.0935 61.4871 28.0768 61.483 28.0651C60.8429 26.6033 59.7771 25.325 58.424 24.4911C58.4141 24.4853 58.395 24.4961 58.3843 24.4911L58.1458 24.3304C58.135 24.3254 58.1168 24.3354 58.106 24.3304L57.5098 24.0089C57.4982 24.0047 57.4816 24.0131 57.47 24.0089C57.3839 23.9796 57.292 23.9696 57.2316 23.8884C57.22 23.8833 57.2034 23.8925 57.1918 23.8884L57.0328 23.808C57.0212 23.8038 57.0047 23.8122 56.9931 23.808L56.9136 23.7678C56.9011 23.7636 56.8862 23.7711 56.8738 23.7678C56.7297 23.7234 56.5625 23.6933 56.4366 23.6071C56.4242 23.6037 56.4093 23.6104 56.3968 23.6071L56.3173 23.5669C56.3049 23.5635 56.29 23.5702 56.2776 23.5669L56.1583 23.5267C56.1459 23.5233 56.131 23.53 56.1186 23.5267C56.112 23.525 56.1037 23.5225 56.0946 23.5183L55.9994 23.4865C55.9869 23.4832 55.972 23.4899 55.9596 23.4865L55.8404 23.4463C55.8279 23.4438 55.813 23.4488 55.8006 23.4463L55.6814 23.4061C55.6574 23.4011 55.6259 23.4112 55.6019 23.4061L55.4826 23.366C55.4578 23.3618 55.428 23.3701 55.4031 23.366L55.2839 23.3258C55.259 23.3216 55.2301 23.33 55.2044 23.3258C55.1406 23.3233 55.0396 23.3509 55.0056 23.2856C54.98 23.2822 54.9518 23.2881 54.9262 23.2856C54.8624 23.2831 54.7614 23.3107 54.7274 23.2454C54.6752 23.242 54.6214 23.2454 54.5684 23.2454C54.4931 23.2446 54.373 23.273 54.3299 23.2052C54.2504 23.2044 54.1709 23.2052 54.0914 23.2052C53.6302 23.2035 53.1615 23.1893 52.7011 23.2052C52.6348 23.2077 52.5686 23.2019 52.5023 23.2052C52.4493 23.2077 52.3185 23.2379 52.2241 23.2454C52.1852 23.2487 52.1438 23.242 52.1048 23.2454L51.955 23.2831C51.955 23.2831 51.9475 23.2856 51.9459 23.2856C51.9078 23.2898 51.8647 23.2806 51.8266 23.2856L51.6676 23.3258C51.6544 23.3274 51.6411 23.3241 51.6279 23.3258L51.5012 23.3576C51.4896 23.3609 51.4788 23.3634 51.4689 23.366C51.4565 23.3685 51.4415 23.3634 51.4291 23.366L51.3099 23.3961C51.2966 23.3994 51.2834 23.4036 51.2701 23.4061C51.2577 23.4086 51.2428 23.4036 51.2304 23.4061L51.1111 23.4463C51.0987 23.4497 51.0838 23.443 51.0714 23.4463L50.9762 23.4781C50.9671 23.4815 50.9588 23.484 50.9521 23.4865C50.9397 23.4899 50.9248 23.4832 50.9124 23.4865L50.8329 23.5267C50.8205 23.53 50.8056 23.5233 50.7932 23.5267L50.6739 23.5669C50.6615 23.5702 50.6466 23.5635 50.6342 23.5669L50.5547 23.6071C50.5422 23.6112 50.5273 23.6029 50.5149 23.6071L50.4354 23.6472C50.4238 23.6514 50.4073 23.6431 50.3957 23.6472C50.3278 23.7343 50.2118 23.7377 50.1174 23.7678C50.105 23.772 50.0901 23.7644 50.0777 23.7678L49.8392 23.8884C49.8276 23.8925 49.811 23.8842 49.7994 23.8884C49.5403 24.0089 49.2893 24.1429 49.0442 24.2902C49.0335 24.2952 49.0152 24.2843 49.0045 24.2902L48.5275 24.6117C48.5176 24.6175 48.4977 24.6058 48.4877 24.6117L48.4083 24.692C48.3991 24.6979 48.3776 24.6862 48.3685 24.692C47.1852 25.5326 46.2519 26.631 45.587 27.9043C45.582 27.9152 45.5919 27.9336 45.587 27.9445L45.5075 28.0651C45.5025 28.0759 45.5124 28.0944 45.5075 28.1052C45.3253 28.4694 45.1671 28.8445 45.0305 29.2296C45.0272 29.2421 45.0338 29.2572 45.0305 29.2698L44.9907 29.3501C44.9874 29.3627 44.994 29.3778 44.9907 29.3903L44.8715 29.752C44.869 29.7645 44.874 29.7796 44.8715 29.7922L44.7522 30.2342C44.7506 30.2476 44.7539 30.261 44.7522 30.2744L44.6727 30.6361C44.6711 30.6494 44.6744 30.6628 44.6727 30.6762L44.633 30.8772C44.6322 30.8906 44.633 30.904 44.633 30.9173L44.5932 31.1585C44.5932 31.1719 44.5932 31.1852 44.5932 31.1986L44.5535 31.4799C44.5535 31.5067 44.5535 31.5335 44.5535 31.5603L44.5137 32.0827C44.5137 32.1497 44.5137 32.2167 44.5137 32.2836C44.4798 32.431 44.4798 32.5792 44.5137 32.7257C44.5137 32.7926 44.5137 32.8596 44.5137 32.9266L44.5535 33.449C44.5535 33.4758 44.5535 33.5026 44.5535 33.5294L44.5932 33.8508C44.5932 33.8642 44.5932 33.8776 44.5932 33.891L44.633 34.1321C44.633 34.1455 44.6322 34.1589 44.633 34.1723L44.7522 34.7349C44.7547 34.7475 44.7498 34.7625 44.7522 34.7751L44.792 34.8956C44.7945 34.9082 44.7895 34.9233 44.792 34.9358L44.8317 35.0564C44.835 35.0689 44.8284 35.084 44.8317 35.0966C45.9811 39.4424 50.3907 41.6149 54.6173 41.0138C58.3685 40.4797 61.1501 37.6751 61.9558 33.9722C61.9575 33.9588 61.9542 33.9454 61.9558 33.932L62.0353 33.5704C62.037 33.557 62.0336 33.5436 62.0353 33.5302L62.0751 33.3293C62.0759 33.3159 62.0751 33.3025 62.0751 33.2891L62.1148 33.0078C62.1148 32.9944 62.1148 32.981 62.1148 32.9676L62.1545 32.6059C62.1545 32.5792 62.1545 32.5524 62.1545 32.5256C62.1885 32.004 62.1885 31.4808 62.1545 30.9592L62.1587 30.9584ZM59.4517 33.0204C58.9366 37.1795 55.9911 40.9343 51.4407 39.6023C44.6529 37.6157 46.0987 24.528 53.1317 24.384C57.8559 24.2877 59.9767 28.7817 59.4517 33.0204Z" fill="black"/>
<path d="M16.6471 40.8268V40.7975L16.633 40.7682C16.6264 40.744 16.6173 40.7197 16.6082 40.6971C16.609 40.6895 16.6107 40.682 16.6082 40.677C16.585 40.6251 16.5709 40.5899 16.5229 40.5631C16.5113 40.5564 16.4989 40.5514 16.4864 40.5464C16.4682 40.5347 16.4484 40.5246 16.426 40.5162C16.4194 40.5137 15.8455 40.235 15.3048 39.9059C15.2087 39.8139 15.1218 39.7126 15.0481 39.602C14.8824 39.3526 14.8071 39.0503 14.7027 38.7716C14.6531 38.6384 14.6034 38.5045 14.5529 38.3714C14.427 38.0348 14.3011 37.6983 14.1752 37.3617C14.0204 36.9473 13.8647 36.5329 13.7099 36.1177C13.5327 35.6438 13.3554 35.1692 13.1774 34.6953C12.9845 34.1796 12.7915 33.6639 12.5986 33.1482C12.3973 32.6099 12.1961 32.0707 11.9941 31.5324C11.7912 30.9891 11.5875 30.4458 11.3846 29.9033C11.1867 29.3742 10.9888 28.8442 10.7908 28.3151C10.6045 27.8178 10.419 27.3206 10.2327 26.8224C10.0654 26.3754 9.89816 25.9283 9.73089 25.4813C9.58929 25.1029 9.44768 24.7244 9.30608 24.346C9.19677 24.0547 9.08829 23.7634 8.97898 23.472C8.90942 23.2862 8.83986 23.1003 8.7703 22.9136C8.74712 22.8517 8.72807 22.7855 8.69992 22.7261C8.69246 22.711 4.29034 33.9703 4.29034 33.9703C4.28371 33.9703 4.27709 33.9703 4.27046 33.9703C4.00713 33.972 3.70984 33.9234 3.3844 33.7853C3.14923 33.6706 2.80391 33.4621 2.49752 33.0938C2.42051 33.0008 2.34515 32.9012 2.28222 32.7974C2.22342 32.6995 2.17705 32.5948 2.07933 32.5287C1.75969 32.3118 1.75307 33.2018 1.75804 33.3474C1.763 33.504 1.78371 33.9561 2.05366 34.4174C2.54638 35.2604 3.47632 35.4647 3.65105 35.4998C3.55334 35.8188 2.2168 39.2496 2.2168 39.2496C1.83091 39.7427 0.249255 40.5104 0.23849 40.5154C0.0687315 40.5774 0.0231865 40.7456 0 40.9173L4.77891 40.9139C5.00829 40.6954 4.90561 40.5112 4.47417 40.3898C4.47417 40.3898 4.34085 40.3212 4.33008 40.3153C3.50531 39.8691 4.76318 36.5505 5.09607 35.7669C6.05334 35.8623 7.02883 35.9168 8.02254 35.9285C8.50035 35.9343 8.9914 36.0072 9.45845 36.1043C9.93211 36.2031 10.4 36.3479 10.8322 36.5689C11.5088 36.9164 12.0893 37.4923 12.3245 38.2349C12.4164 38.5237 12.4652 38.826 12.4868 39.1282C12.5066 39.3961 12.553 39.7444 12.4454 39.9947C12.3799 40.1462 12.2648 40.2701 12.1415 40.3756C12.1241 40.3898 12.1075 40.4049 12.0909 40.4208C11.7431 40.5414 11.6728 40.7138 11.8831 40.9147L16.662 40.9181C16.6579 40.8871 16.6521 40.857 16.6463 40.8277L16.6471 40.8268ZM5.68153 34.1704L8.18484 27.7057L10.8463 34.8125C9.20588 34.1721 7.41472 34.2332 5.68153 34.1704Z" fill="black"/>
<path d="M91.9859 40.8078V40.7785L91.9718 40.7492C91.9652 40.7249 91.9561 40.7006 91.9461 40.678C91.947 40.6705 91.9486 40.663 91.9461 40.6579C91.9229 40.606 91.9089 40.5709 91.8608 40.5441C91.8492 40.5374 91.8368 40.5324 91.8244 40.5273C91.8062 40.5156 91.7863 40.5056 91.764 40.4972C91.7573 40.4947 91.1835 40.2159 90.6427 39.8869C90.5467 39.7948 90.4597 39.6935 90.386 39.583C90.2204 39.3335 90.145 39.0313 90.0407 38.7525C89.991 38.6194 89.9413 38.4854 89.8908 38.3523C89.7649 38.0158 89.6391 37.6792 89.5132 37.3427C89.3583 36.9283 89.2027 36.5139 89.0478 36.0986C88.8706 35.6248 88.6934 35.1501 88.5154 34.6763C88.3224 34.1606 88.1295 33.6449 87.9365 33.1291C87.7353 32.5908 87.5341 32.0517 87.332 31.5134C87.1291 30.9701 86.9254 30.4267 86.7225 29.8842C86.5246 29.3551 86.3267 28.8252 86.1288 28.2961C85.9425 27.7988 85.757 27.3015 85.5707 26.8034C85.4034 26.3563 85.2361 25.9093 85.0688 25.4622C84.9272 25.0838 84.7856 24.7054 84.644 24.327C84.5347 24.0357 84.4262 23.7443 84.3169 23.453C84.2474 23.2671 84.1778 23.0813 84.1083 22.8946C84.0851 22.8326 84.066 22.7665 84.0379 22.707C84.0304 22.692 79.6283 33.9513 79.6283 33.9513C79.6217 33.9513 79.615 33.9513 79.6084 33.9513C79.3451 33.9529 79.0478 33.9044 78.7224 33.7662C78.4872 33.6515 78.1419 33.4431 77.8355 33.0747C77.7585 32.9818 77.6831 32.8822 77.6202 32.7784C77.5614 32.6804 77.515 32.5758 77.4173 32.5096C77.0976 32.2928 77.091 33.1827 77.0952 33.3284C77.1001 33.485 77.1208 33.937 77.3908 34.3983C77.8835 35.2414 78.8134 35.4456 78.9882 35.4808C78.8342 35.896 78.6975 36.2627 78.5824 36.5708C78.5824 36.5708 78.3431 37.2121 77.9224 38.2837C77.8868 38.3749 77.8239 38.5332 77.7311 38.7408C77.6094 39.012 77.4976 39.2289 77.4198 39.3737C77.3477 39.5093 77.0803 39.9698 76.5817 40.0769C76.4956 40.0954 76.4128 40.1012 76.335 40.0987C76.2016 40.0594 76.0766 39.9338 75.9739 39.8141C75.4663 39.2205 75.0605 38.5298 74.6672 37.8324C73.6983 36.0225 72.693 34.2351 71.6496 32.4694C71.2323 31.7629 70.6576 31.0923 69.851 30.8562C69.6308 30.7917 69.403 30.7549 69.1745 30.7457C69.0246 30.7398 68.5625 30.8495 68.7629 30.6126C69.09 30.2266 69.4651 29.8733 69.8138 29.5075C70.5152 28.7716 71.2199 28.0382 71.9262 27.3065C72.7601 26.4434 73.5965 25.5836 74.437 24.728C75.0282 24.1872 75.7222 23.8063 76.4675 23.6221C76.4791 23.5258 76.4824 23.4136 76.4501 23.3299C75.0605 23.2947 73.5874 23.2947 72.1987 23.3299C72.1556 23.3986 72.1614 23.5241 72.2053 23.5911C72.4131 23.7167 72.5846 23.8607 72.6756 24.0934C72.6781 24.106 72.674 24.1202 72.6756 24.1336C72.7121 24.209 72.7121 24.2994 72.6756 24.3747C72.674 24.3881 72.6781 24.4023 72.6756 24.4149L72.5415 24.6661C70.4307 26.9892 68.3042 29.2614 66.1602 31.4824L66.2025 31.4062C66.1867 29.1944 66.1726 26.9918 66.1602 24.7958C66.3565 24.1788 66.8749 23.8431 67.4313 23.571C67.4396 23.5367 67.4371 23.412 67.4313 23.3701L67.404 23.3291L62.6028 23.3174C62.5862 23.3408 62.592 23.5685 62.6243 23.6095C63.1998 23.8398 63.806 24.2517 63.8557 24.9356V38.4788C63.8557 38.7626 63.8838 39.0715 63.8416 39.3519C63.7695 39.8367 63.3952 40.2084 62.9812 40.4369C62.9713 40.4428 62.9514 40.4311 62.9414 40.4369C62.9116 40.4771 62.8702 40.5031 62.8222 40.5173C62.78 40.5374 62.7344 40.5424 62.703 40.5575C62.5779 40.5558 62.5829 40.8798 62.6085 40.8991C64.2142 40.894 65.8191 40.8865 67.4239 40.8756L67.4305 40.8388C67.4363 40.7969 67.4388 40.673 67.4305 40.6379C67.2806 40.5299 67.1216 40.4361 66.9535 40.3566C66.9436 40.3507 66.9237 40.3624 66.9138 40.3566C66.5942 40.1699 66.3184 39.8601 66.224 39.4934C66.1172 39.0832 66.1859 38.5784 66.1809 38.1564C66.1702 37.1367 66.1693 36.1162 66.1735 35.0965C66.176 34.5155 66.1793 33.9345 66.1834 33.3535C66.1834 33.2438 67.4951 31.9328 67.6831 31.762C67.9 31.5645 67.9083 31.5678 68.2089 31.7252C68.5667 31.9127 68.902 32.3012 69.1182 32.6427C70.1168 34.2208 71.0385 35.8349 71.9105 37.4884C72.173 37.9497 72.4438 38.4026 72.7179 38.8563C73.2984 39.8174 74.0635 40.8471 75.2643 40.8991H75.3371H75.3636L80.0506 40.8982C80.0531 40.8982 80.0548 40.8965 80.0572 40.8957H80.116C80.3454 40.6772 80.2427 40.493 79.8113 40.3716C79.8113 40.3716 79.678 40.303 79.6672 40.2971C78.8424 39.8509 80.1003 36.5323 80.4332 35.7487C81.3905 35.8441 82.366 35.8986 83.3597 35.9103C83.8375 35.9161 84.3285 35.989 84.7956 36.0861C85.2692 36.1849 85.7371 36.3297 86.1694 36.5507C86.8459 36.8981 87.4264 37.4741 87.6616 38.2167C87.7535 38.5055 87.8024 38.8078 87.8239 39.11C87.8438 39.3779 87.8901 39.7262 87.7825 39.9765C87.7171 40.128 87.602 40.2519 87.4786 40.3574C87.4612 40.3716 87.4446 40.3867 87.4281 40.4026C87.0803 40.5232 87.0099 40.6956 87.2202 40.8965L91.9991 40.8999C91.9942 40.8698 91.9884 40.8396 91.9834 40.8095L91.9859 40.8078ZM81.0203 34.1522L83.5236 27.6875L86.1851 34.7943C84.5447 34.1539 82.7535 34.215 81.0203 34.1522Z" fill="black"/>
<path d="M34.4562 6.27441L34.6947 6.43515C34.7361 6.45525 34.7833 6.46027 34.814 6.47534L35.1319 6.67626C35.1427 6.68129 35.1609 6.67124 35.1717 6.67626L35.4897 6.87719C35.5004 6.88221 35.5187 6.87216 35.5294 6.87719L35.8474 7.07811C35.8582 7.08313 35.8764 7.07309 35.8872 7.07811L36.2051 7.27903C36.2159 7.28406 36.2341 7.27401 36.2449 7.27903L36.5629 7.47996C36.5736 7.48498 36.5919 7.47494 36.6026 7.47996L36.9206 7.68088C36.9314 7.68591 36.9496 7.67586 36.9604 7.68088L37.2783 7.88181C37.3206 7.9019 37.3653 7.90692 37.3976 7.92199L37.6361 8.08273C37.6783 8.10199 37.723 8.10785 37.7553 8.12292L37.9938 8.28366C38.0361 8.30291 38.0808 8.30877 38.1131 8.32384L38.3516 8.48458C38.3938 8.50383 38.4385 8.5097 38.4708 8.52476L38.7093 8.6855C38.7515 8.70476 38.7962 8.71062 38.8285 8.72569L39.067 8.88643C39.1093 8.90568 39.154 8.91154 39.1863 8.92661L39.4248 9.08735C39.467 9.10661 39.5117 9.11247 39.544 9.12754L39.7825 9.28828C39.8247 9.30753 39.8694 9.31339 39.9017 9.32846L40.1402 9.4892C40.1825 9.50846 40.2272 9.51432 40.2595 9.52939L40.498 9.69012C40.5385 9.70938 40.5907 9.71608 40.6172 9.73031C40.6702 9.78891 40.7414 9.82575 40.816 9.85086C42.4589 10.7877 44.3312 12.0058 46.0205 12.7827C46.0122 12.8111 45.9725 12.8245 45.9013 12.8229L45.6387 12.8279C42.9019 12.483 40.1709 12.1439 37.4465 11.8124L33.8732 19.8251C33.7449 19.9063 33.8045 19.3939 33.8227 19.2884C33.8227 19.2483 33.8227 19.2081 33.8227 19.1679L33.8625 18.3248C33.8625 18.2847 33.8625 18.2445 33.8625 18.2043L33.9022 17.4014C33.9022 17.3478 33.9022 17.2943 33.9022 17.2407L33.942 16.4378C33.942 16.3842 33.942 16.3307 33.942 16.2771L33.9817 15.4742C33.9817 15.4206 33.9817 15.3671 33.9817 15.3135L34.0215 14.5106C34.0215 14.4704 34.0215 14.4303 34.0215 14.3901L34.0612 13.5872C34.0612 13.5336 34.0612 13.4801 34.0612 13.4265L34.101 12.6236C34.101 12.57 34.101 12.5165 34.101 12.4629L34.1407 11.66C34.1407 11.6064 34.1407 11.5529 34.1407 11.4993L34.1805 10.6964C34.1805 10.6428 34.1805 10.5893 34.1805 10.5357L34.2202 9.73282C34.2202 9.69264 34.2202 9.65245 34.2202 9.61227L34.26 8.80941C34.26 8.75583 34.26 8.70225 34.26 8.64867L34.2997 7.84581C34.2997 7.79223 34.2997 7.73865 34.2997 7.68507L34.3395 6.88221C34.3411 6.82863 34.3361 6.77505 34.3395 6.72147C34.3568 6.57747 34.3676 6.43097 34.3709 6.28195L34.419 6.27944C34.4305 6.28362 34.4479 6.27441 34.4587 6.27944L34.4562 6.27441Z" fill="black"/>
<path d="M57.5447 6.27441L57.3063 6.43515C57.2649 6.45525 57.2177 6.46027 57.187 6.47534L56.869 6.67626C56.8583 6.68129 56.84 6.67124 56.8293 6.67626L56.5113 6.87719C56.5005 6.88221 56.4823 6.87216 56.4715 6.87719L56.1536 7.07811C56.1428 7.08313 56.1246 7.07309 56.1138 7.07811L55.7958 7.27903C55.7851 7.28406 55.7668 7.27401 55.7561 7.27903L55.4381 7.47996C55.4273 7.48498 55.4091 7.47494 55.3983 7.47996L55.0803 7.68088C55.0696 7.68591 55.0514 7.67586 55.0406 7.68088L54.7226 7.88181C54.6804 7.9019 54.6357 7.90692 54.6034 7.92199L54.3649 8.08273C54.3227 8.10199 54.2779 8.10785 54.2456 8.12292L54.0071 8.28366C53.9649 8.30291 53.9202 8.30877 53.8879 8.32384L53.6494 8.48458C53.6072 8.50383 53.5625 8.5097 53.5302 8.52476L53.2917 8.6855C53.2494 8.70476 53.2047 8.71062 53.1724 8.72569L52.9339 8.88643C52.8917 8.90568 52.847 8.91154 52.8147 8.92661L52.5762 9.08735C52.534 9.10661 52.4893 9.11247 52.457 9.12754L52.2185 9.28828C52.1762 9.30753 52.1315 9.31339 52.0992 9.32846L51.8607 9.4892C51.8185 9.50846 51.7738 9.51432 51.7415 9.52939L51.503 9.69012C51.4624 9.70938 51.4103 9.71608 51.3838 9.73031C51.3308 9.78891 51.2595 9.82575 51.185 9.85086C49.5421 10.7877 47.6698 12.0058 45.9805 12.7827C45.9887 12.8111 46.0285 12.8245 46.0997 12.8229L46.3622 12.8279C49.0991 12.483 51.8301 12.1439 54.5545 11.8124L58.1277 19.8251C58.2561 19.9063 58.1965 19.3939 58.1782 19.2884C58.1782 19.2483 58.1782 19.2081 58.1782 19.1679L58.1385 18.3248C58.1385 18.2847 58.1385 18.2445 58.1385 18.2043L58.0987 17.4014C58.0987 17.3478 58.0987 17.2943 58.0987 17.2407L58.059 16.4378C58.059 16.3842 58.059 16.3307 58.059 16.2771L58.0192 15.4742C58.0192 15.4206 58.0192 15.3671 58.0192 15.3135L57.9795 14.5106C57.9795 14.4704 57.9795 14.4303 57.9795 14.3901L57.9397 13.5872C57.9397 13.5336 57.9397 13.4801 57.9397 13.4265L57.9 12.6236C57.9 12.57 57.9 12.5165 57.9 12.4629L57.8602 11.66C57.8602 11.6064 57.8602 11.5529 57.8602 11.4993L57.8205 10.6964C57.8205 10.6428 57.8205 10.5893 57.8205 10.5357L57.7808 9.73282C57.7808 9.69264 57.7808 9.65245 57.7808 9.61227L57.741 8.80941C57.741 8.75583 57.741 8.70225 57.741 8.64867L57.7013 7.84581C57.7013 7.79223 57.7013 7.73865 57.7013 7.68507L57.6615 6.88221C57.6599 6.82863 57.6648 6.77505 57.6615 6.72147C57.6441 6.57747 57.6334 6.43097 57.63 6.28195L57.582 6.27944C57.5704 6.28362 57.553 6.27441 57.5423 6.27944L57.5447 6.27441Z" fill="black"/>
<path d="M46.0385 0.821777H45.9648V0.858613H46.0385V0.821777Z" fill="black"/>
<path d="M51.2103 8.51653C51.2053 8.50565 51.2153 8.48723 51.2103 8.47635C50.8352 7.85432 50.4509 7.23815 50.0584 6.62868C50.0526 6.61864 50.0642 6.59854 50.0584 6.5885L49.2237 5.26324C49.2179 5.25319 49.2295 5.2331 49.2237 5.22305L48.0718 3.37539C48.066 3.36534 48.0776 3.34525 48.0718 3.3352L47.2371 2.00994C47.2313 1.99989 47.2429 1.9798 47.2371 1.96975L46.4024 0.644492C46.3966 0.635283 46.4082 0.613516 46.4024 0.604307C46.3329 0.492962 46.1142 0.148042 46.0323 0.0551148V-0.000976562C46.0182 0.00153499 46.0091 0.00906964 45.9991 0.0191158C45.9892 0.00906964 45.9801 0.00153499 45.966 -0.000976562V0.0551148C45.884 0.148042 45.6662 0.492962 45.5959 0.604307C45.5901 0.613516 45.6016 0.635283 45.5959 0.644492L44.7611 1.96975C44.7553 1.9798 44.7669 1.99989 44.7611 2.00994L43.9264 3.3352C43.9206 3.34525 43.9322 3.36534 43.9264 3.37539L42.7745 5.22305C42.7687 5.2331 42.7803 5.25319 42.7745 5.26324L41.9398 6.5885C41.934 6.59854 41.9456 6.61864 41.9398 6.62868C41.5465 7.23815 41.1623 7.85348 40.788 8.47635C40.783 8.48723 40.7929 8.50565 40.788 8.51653C40.5801 8.76936 40.5462 8.84889 40.8675 8.99875C41.4562 9.26916 41.9903 9.63668 42.5791 9.90458L45.9983 7.37629L49.4175 9.90458C50.0063 9.63668 50.5404 9.27 51.1292 8.99875C51.4505 8.84889 51.4165 8.7702 51.2086 8.51653H51.2103Z" fill="black"/>
</g>
<defs>
<clipPath id="clip0_1328_15">
<rect width="92" height="52" fill="white"/>
</clipPath>
</defs>
</svg>
