<svg width="32" height="38" viewBox="0 0 32 38" fill="none" xmlns="http://www.w3.org/2000/svg">
<path opacity="0.85" d="M29.8654 9.17611C22.7513 26.1265 6.37695 36.5723 6.37695 36.5723M29.8654 9.17611L30.3891 11.822C32.9232 24.6259 27.8277 36.5723 10.3166 36.5723H6.37695M29.8654 9.17611L28.9111 9.56228C26.5596 10.5138 24.1624 11.3379 21.7346 12.0615C20.8384 9.20124 19.3216 6.37838 17.3337 3.72374L15.7227 1.57226L15.0299 2.33988C12.3045 5.35941 9.33473 8.13799 6.222 10.747C1.22149 14.9382 -0.509521 22.1786 2.4455 28.3549L6.37695 36.5723M6.3769 36.5722V27.4445C6.3769 20.5838 11.0538 14.8273 17.3607 13.2547C18.8275 12.889 20.2865 12.4932 21.7345 12.0615" stroke="white" stroke-width="2" stroke-miterlimit="10"/>
</svg>
