<svg width="40" height="36" viewBox="0 0 40 36" fill="none" xmlns="http://www.w3.org/2000/svg">
<path opacity="0.83" d="M20 6.34312C21.5768 1.3963 29.9339 0.0606545 34.2697 1.6116V29.4833C28.6602 27.9193 23.1125 31.1149 20 34.2149M20 6.34312V34.2149M20 6.34312C18.4233 1.3963 10.0661 0.0606545 5.7303 1.6116V29.4833C11.3397 27.9193 16.8876 31.1149 20 34.2149M5.54021 4.79571C3.97078 5.11466 2.45598 5.6256 1 6.34305V35C7.94738 32.7673 14.1045 33.4084 20 35C25.8956 33.4084 32.0526 32.7674 39 35V6.34305C37.5435 5.62536 36.0281 5.11435 34.4581 4.7954" stroke="white" stroke-width="2" stroke-miterlimit="22.926" stroke-linecap="round" stroke-linejoin="round"/>
</svg>
