<svg width="41" height="37" viewBox="0 0 41 37" fill="none" xmlns="http://www.w3.org/2000/svg">
<path opacity="0.8" d="M40 8.50001H1M40 8.50001V31.1141C40 33.8125 37.8672 36 35.2363 36H5.76375C3.13278 36 1 33.8125 1 31.1141V8.50001M40 8.50001C40 15.739 33.3344 21.7797 24.4672 23.1896M1 8.50001C1 15.739 7.6656 21.7797 16.5328 23.1896M24.4672 19.4311V23.5C24.4672 25.7473 22.6912 27.5689 20.5001 27.5689C18.3089 27.5689 16.5329 25.7473 16.5329 23.5V19.4311H24.4672ZM27.8125 8.5H13.1875V4.78149C13.1875 2.69303 14.8382 1 16.8745 1H24.1256C26.1618 1 27.8125 2.69303 27.8125 4.78149V8.5Z" stroke="white" stroke-width="2" stroke-miterlimit="10" stroke-linecap="round" stroke-linejoin="round"/>
</svg>
