<svg width="32" height="38" viewBox="0 0 32 38" fill="none" xmlns="http://www.w3.org/2000/svg">
<path opacity="0.84" d="M31 7.10169V13.2034C31 15.4619 29.7934 17.4338 28 18.4888V33.9492C28 35.6341 26.6568 37 25 37C23.3432 37 22 35.6341 22 33.9492V18.4888C20.2066 17.4338 19 15.4619 19 13.2034V1M31 7.10169C31 8.7866 29.6568 10.1525 28 10.1525C26.3432 10.1525 25 8.7866 25 7.10169M31 7.10169V1M25 1V7.10169M25 7.10169C25 8.7866 23.6568 10.1525 22 10.1525C20.3432 10.1525 19 8.7866 19 7.10169M4 18.0357V33.9492C4 35.634 5.3431 37 7 37C8.6569 37 10 35.634 10 33.9492V18.0357C11.7858 16.4501 13 13.5317 13 10.1525C13 5.09775 10.3137 1 7 1C3.68635 1 1 5.09775 1 10.1525C1 13.5317 2.21417 16.4501 4 18.0357Z" stroke="white" stroke-width="2" stroke-miterlimit="10" stroke-linecap="round" stroke-linejoin="round"/>
</svg>
