<svg width="37" height="37" viewBox="0 0 37 37" fill="none" xmlns="http://www.w3.org/2000/svg">
<path opacity="0.8" d="M19.5541 10.8983L20.3853 10.3424L20.3854 10.3425L19.5541 10.8983ZM30.5164 10.8983L29.6851 10.3425L29.6851 10.3424L30.5164 10.8983ZM11.9647 9.55303L11.604 8.62037L11.9354 8.49218L12.2734 8.60186L11.9647 9.55303ZM1 13.7942H0V13.1088L0.639246 12.8615L1 13.7942ZM1 34.6466L1.32877 35.591L0 36.0536V34.6466H1ZM25.0353 35L25.3908 35.9347L25.0642 36.0589L24.7313 35.9527L25.0353 35ZM36 30.8295H37V31.5191L36.3555 31.7642L36 30.8295ZM36 9.55303L35.6409 8.61975L37 8.09675V9.55303H36ZM26.0352 8.36179C26.0352 8.91408 25.5874 9.36177 25.0351 9.36174C24.4829 9.36171 24.0352 8.91397 24.0352 8.36169L25.0352 8.36174L26.0352 8.36179ZM24.0353 6.99995C24.0353 6.44766 24.483 5.99997 25.0353 6C25.5876 6.00003 26.0353 6.44777 26.0353 7.00005L25.0353 7L24.0353 6.99995ZM19.5541 10.8983L20.3854 10.3425L25.8665 18.5398L25.0352 19.0956L24.2039 19.6515L18.7228 11.4541L19.5541 10.8983ZM25.0352 19.0956L24.2039 18.5398L29.6851 10.3425L30.5164 10.8983L31.3477 11.4541L25.8665 19.6515L25.0352 19.0956ZM30.5164 10.8983L29.6851 10.3424C30.2397 9.51313 30.5705 8.44624 30.5705 7.36174H31.5705H32.5705C32.5705 8.8341 32.1266 10.2893 31.3477 11.4542L30.5164 10.8983ZM31.5705 7.36174H30.5705C30.5705 4.42577 28.1178 2 25.0352 2V1V0C29.1713 0 32.5705 3.27082 32.5705 7.36174H31.5705ZM25.0352 1V2C21.9526 2 19.4999 4.42577 19.4999 7.36174H18.4999H17.4999C17.4999 3.27082 20.8991 0 25.0352 0V1ZM18.4999 7.36174H19.4999C19.4999 8.44624 19.8307 9.51311 20.3853 10.3424L19.5541 10.8983L18.7228 11.4542C17.9438 10.2893 17.4999 8.8341 17.4999 7.36174H18.4999ZM20.5082 12.3253L20.1996 13.2764L11.6561 10.5042L11.9647 9.55303L12.2734 8.60186L20.8169 11.3741L20.5082 12.3253ZM11.9647 9.55303L12.3255 10.4857L1.36075 14.7269L1 13.7942L0.639246 12.8615L11.604 8.62037L11.9647 9.55303ZM1 13.7942H2V34.6466H1H0V13.7942H1ZM1 34.6466L0.671231 33.7022L11.636 29.8851L11.9647 30.8295L12.2935 31.7739L1.32877 35.591L1 34.6466ZM11.9647 30.8295L12.2687 29.8768L25.3392 34.0473L25.0353 35L24.7313 35.9527L11.6608 31.7822L11.9647 30.8295ZM25.0353 35L24.6798 34.0653L35.6445 29.8949L36 30.8295L36.3555 31.7642L25.3908 35.9347L25.0353 35ZM36 30.8295H35V9.55303H36H37V30.8295H36ZM36 9.55303L36.3591 10.4863L30.187 12.8614L29.8279 11.9281L29.4687 10.9948L35.6409 8.61975L36 9.55303ZM11.9647 9.55303H12.9647V30.8295H11.9647H10.9647V9.55303H11.9647ZM25.0352 19.0956L26.0352 19.0956L26.0353 35L25.0353 35L24.0353 35L24.0352 19.0956L25.0352 19.0956ZM25.0352 8.36174L24.0352 8.36169L24.0353 6.99995L25.0353 7L26.0353 7.00005L26.0352 8.36179L25.0352 8.36174Z" fill="white"/>
</svg>
