<svg width="30" height="37" viewBox="0 0 30 37" fill="none" xmlns="http://www.w3.org/2000/svg">
<path opacity="0.82" d="M12.6667 12.6667H23.1667M28.9999 30.1667C28.9999 30.1667 11.0859 30.1667 3.91558 30.1667C2.30566 30.1667 1.00014 31.472 1.00014 33.0822C1.00014 33.083 1.00014 33.0838 1.00014 33.0845C1.00014 34.6948 2.30559 36 3.91558 36H29L28.9999 30.1667ZM28.9999 30.1667V1.00014H6.83335V30.1668L28.9999 30.1667ZM13.8333 18.5H22M6.83335 30.1666H3.91551C3.14203 30.1666 2.40065 30.4738 1.85401 31.0205C1.30745 31.5673 1 32.3088 1 33.0821C1 33.0828 1 33.0832 1 33.0832V3.91668C1 3.1432 1.30745 2.4013 1.85401 1.8543C2.40123 1.3073 3.14327 1 3.91675 1C5.37505 1 6.83342 1 6.83342 1L6.83335 30.1666Z" stroke="white" stroke-width="2" stroke-miterlimit="10" stroke-linecap="round" stroke-linejoin="round"/>
</svg>
