<svg width="37" height="37" viewBox="0 0 37 37" fill="none" xmlns="http://www.w3.org/2000/svg">
<path opacity="0.8" d="M36 25.5094V31.5508C36 34.008 34.008 36 31.5508 36H5.44915C2.99196 36 1 34.008 1 31.5508V25.5094M9.89831 21.1695V24.1356M27.1017 21.1695V24.1356M12.5678 6.9322V3.9661C12.5678 2.328 13.8958 1 15.5339 1H21.4661C23.1042 1 24.4322 2.328 24.4322 3.9661V6.9322M30.0678 21.1695H6.9322C3.65592 21.1695 1 18.5136 1 15.2373V9.89831C1 8.2602 2.328 6.9322 3.9661 6.9322H33.0339C34.672 6.9322 36 8.2602 36 9.89831V15.2373C36 18.5136 33.3441 21.1695 30.0678 21.1695Z" stroke="white" stroke-width="2" stroke-miterlimit="10" stroke-linecap="round" stroke-linejoin="round"/>
</svg>
