<svg width="31" height="44" viewBox="0 0 31 44" fill="none" xmlns="http://www.w3.org/2000/svg">
<path opacity="0.82" d="M17.4536 22H23.944V43H7.0559M7.0559 43V22H13.9202M7.0559 43L7.05587 29.6507H1V42.9999L7.0559 43ZM12.3567 31.4806V28.8665M18.6434 31.4806V28.8665M12.3567 38.1124V35.4983M18.6434 38.1124V35.4983M15.4996 1C10.4945 1 6.43708 5.09308 6.43708 10.1421C6.43708 12.4041 7.25146 14.4742 8.60051 16.0705C10.2628 18.0372 15.4996 23.7222 15.4996 23.7222C15.4996 23.7222 20.7364 18.0372 22.3987 16.0705C23.7477 14.4743 24.5621 12.4042 24.5621 10.1421C24.5621 5.09308 20.5047 1 15.4996 1ZM23.9441 43V29.6507H30V43H23.9441ZM18.6434 10.1421C18.6434 11.8934 17.2361 13.3131 15.5 13.3131C13.764 13.3131 12.3567 11.8934 12.3567 10.1421C12.3567 8.39084 13.764 6.97113 15.5 6.97113C17.2361 6.97113 18.6434 8.39084 18.6434 10.1421Z" stroke="white" stroke-width="2" stroke-miterlimit="10"/>
</svg>
