<svg width="33" height="41" viewBox="0 0 33 41" fill="none" xmlns="http://www.w3.org/2000/svg">
<path opacity="0.8" d="M16.5 1L24.4921 4.37288L16.5 7.74575V1ZM16.5 1L16.5 12.3015M25.9874 40H2.1673C1.38062 40 0.819535 39.2288 1.05369 38.4696L3.57805 30.2821C3.76943 29.6611 4.33798 29.2382 4.98126 29.2382H14.5267M13.9467 29.2382H28.0187C28.662 29.2382 29.2305 29.6611 29.422 30.2821L31.9463 38.4695C32.1805 39.2289 31.6194 40 30.8327 40H24.8131M21.234 21.0786H9.17692C8.53574 21.0786 7.96851 21.4988 7.77534 22.117L5.54945 29.2382M27.4506 29.2382L25.2247 22.1169C25.0315 21.4988 24.4643 21.0786 23.8231 21.0786H20.496M22.8675 21.0786C22.8675 21.0786 19.6838 12.3015 16.5 12.3015M16.5 12.3015C13.3162 12.3015 10.1325 21.0786 10.1325 21.0786" stroke="white" stroke-width="2" stroke-miterlimit="10" stroke-linecap="round" stroke-linejoin="round"/>
</svg>
