<svg width="41" height="41" viewBox="0 0 41 41" fill="none" xmlns="http://www.w3.org/2000/svg">
<path opacity="0.8" d="M13.8898 13.8898V17.1949C13.8898 19.0202 15.3696 20.5 17.1949 20.5H23.8051C25.6304 20.5 27.1102 21.9798 27.1102 23.8051V27.1102M13.8898 1V7.27966M13.8898 33.7203V40M20.5 33.7203V37.0254M27.1102 1V7.27966H28.7627C31.5007 7.27966 33.7203 9.49927 33.7203 12.2373V28.7627C33.7203 31.5007 31.5007 33.7203 28.7627 33.7203H12.2373C9.49927 33.7203 7.27966 31.5007 7.27966 28.7627V12.2373C7.27966 9.49927 9.49927 7.27966 12.2373 7.27966H20.5V3.97458M27.1102 33.7203V40M1 27.1102H7.27966M40 13.8898H33.7203M33.7203 27.1102H40M3.97458 20.5H7.27966M33.7203 20.5H37.0254M1 13.8898H7.27966M27.1102 13.8898H23.8051M17.1949 27.1102H13.8898" stroke="white" stroke-width="2" stroke-miterlimit="10" stroke-linecap="round" stroke-linejoin="round"/>
</svg>
