<svg width="44" height="38" viewBox="0 0 44 38" fill="none" xmlns="http://www.w3.org/2000/svg">
<path opacity="0.8" d="M22.0641 7.14865L19.005 4.08958C14.8861 -0.0292731 8.20808 -0.0292731 4.08914 4.08958C-0.0297136 8.20852 -0.0297136 14.8866 4.08914 19.0054L5.2138 20.1301M33.5531 23.8373L39.1299 18.5635C43.0456 14.6478 43.0456 8.29919 39.1299 4.38348C35.2142 0.467766 28.8657 0.467766 24.9499 4.38348L17.0522 12.0567C15.7227 13.3431 15.7052 15.4694 17.0134 16.7775V16.7776C18.3064 18.0706 20.403 18.0706 21.696 16.7776L23.1098 15.3637C23.6537 14.8199 24.5356 14.8199 25.0795 15.3637L33.8569 24.1411C34.9198 25.204 34.9198 26.9272 33.8569 27.99C32.7942 29.0529 31.071 29.0529 30.0081 27.99M23.3513 29.5986L25.7335 31.9809C26.8748 33.1221 28.7251 33.1221 29.8664 31.9809C31.0076 30.8397 31.0076 28.9893 29.8664 27.848L27.4715 25.4532M18.1543 32.6689L21.6002 36.1148C22.7414 37.256 24.5917 37.256 25.733 36.1148C26.8743 34.9735 26.8743 33.1232 25.733 31.9819M12.432 34.0996L12.4697 34.1373C13.6314 35.299 15.5149 35.299 16.6766 34.1373L18.1987 32.6152C19.3605 31.4535 19.3605 29.57 18.1987 28.4083L18.1611 28.3706C16.9993 27.2089 15.1159 27.2089 13.9541 28.3706L12.432 29.8927C11.2703 31.0545 11.2703 32.938 12.432 34.0996ZM8.12191 29.9202L8.15959 29.9579C9.32133 31.1196 11.2048 31.1196 12.3664 29.9579L16.2046 26.1199C17.3662 24.9582 17.3662 23.0746 16.2046 21.913L16.1668 21.8753C15.0051 20.7136 13.1216 20.7136 11.96 21.8753L8.12191 25.7133C6.96026 26.875 6.96026 28.7585 8.12191 29.9202ZM3.87802 25.6754L3.9157 25.7131C5.07744 26.8749 6.96096 26.8749 8.12261 25.7131L10.4706 23.3651C11.6324 22.2034 11.6324 20.32 10.4706 19.1583L10.433 19.1205C9.27123 17.9589 7.38779 17.9589 6.22605 19.1205L3.87802 21.4686C2.71637 22.6303 2.71637 24.5138 3.87802 25.6754Z" stroke="white" strokeWidth="2" stroke-miterlimit="10" strokeLinecap="round" strokeLinejoin="round"/>
</svg>
