<svg width="39" height="34" viewBox="0 0 39 34" fill="none" xmlns="http://www.w3.org/2000/svg">
<path opacity="0.8" d="M6.72557 5.51489H37.2726L33.1097 21.8658C32.8584 22.8709 31.9553 23.5759 30.9194 23.5759H12.3634L5.81086 2.58456C5.51654 1.6417 4.64351 0.999628 3.6558 0.999628H1M32.6821 28.0912H12.3635C11.1166 28.0912 10.1058 27.0804 10.1058 25.8336C10.1058 24.5867 11.1166 23.5759 12.3635 23.5759M9.54448 14.5454H34.9397M16.8787 5.51489L19.1363 23.5759M28.1668 5.51489L25.9092 23.5759M19.1363 30.3488C19.1363 31.5956 18.1256 32.6064 16.8787 32.6064C15.6319 32.6064 14.6211 31.5956 14.6211 30.3488C14.6211 29.102 15.6319 28.0912 16.8787 28.0912C18.1256 28.0912 19.1363 29.102 19.1363 30.3488ZM30.4245 30.3488C30.4245 31.5956 29.4137 32.6064 28.1668 32.6064C26.92 32.6064 25.9092 31.5956 25.9092 30.3488C25.9092 29.102 26.92 28.0912 28.1668 28.0912C29.4137 28.0912 30.4245 29.102 30.4245 30.3488Z" stroke="white" strokeWidth="2" stroke-miterlimit="10" strokeLinecap="round" strokeLinejoin="round"/>
</svg>
