<svg width="1728" height="1048" viewBox="0 0 1728 1048" fill="none" xmlns="http://www.w3.org/2000/svg">
<rect width="1728" height="1048" fill="white"/>
<path d="M1224.42 425.719C1221.08 422.982 1217.17 421.021 1212.98 419.977C1208.78 418.934 1204.41 418.833 1200.18 419.684C1194.73 420.801 1189.72 423.459 1185.74 427.343C1181.76 431.228 1178.98 436.173 1177.74 441.592C1176.49 447.01 1176.83 452.672 1178.71 457.904C1180.59 463.136 1183.94 467.717 1188.35 471.102C1193.38 474.788 1197.67 479.399 1200.98 484.69L1203.24 488.441C1203.52 488.917 1203.93 489.311 1204.41 489.585C1204.9 489.859 1205.44 490.003 1206 490.003C1206.55 490.003 1207.1 489.859 1207.58 489.585C1208.07 489.311 1208.47 488.917 1208.76 488.441L1210.92 484.838C1213.8 479.771 1217.74 475.377 1222.45 471.949C1226.15 469.405 1229.21 466.036 1231.38 462.109C1233.55 458.181 1234.78 453.803 1234.97 449.318C1235.16 444.834 1234.31 440.366 1232.48 436.268C1230.65 432.17 1227.89 428.553 1224.42 425.703L1224.42 425.719Z" fill="#0097DC"/>
<path fill-rule="evenodd" clip-rule="evenodd" d="M1206.69 434.313C1207.01 434.65 1207.36 434.961 1207.65 435.326C1208.62 436.521 1209.17 437.917 1209.42 439.423C1209.83 441.924 1209.38 444.306 1208.3 446.579C1207.94 447.327 1207.59 448.075 1207.25 448.814C1206.66 450.055 1206.77 451.269 1207.39 452.455C1207.47 452.601 1207.54 452.748 1207.63 452.93C1207.96 452.565 1208.27 452.209 1208.6 451.871C1209.69 450.74 1211.05 450.156 1212.58 449.864C1213.83 449.626 1215.05 449.289 1216.15 448.614C1217.1 448.03 1217.95 447.326 1218.7 446.487C1218.52 446.779 1218.34 447.08 1218.15 447.372C1217.35 448.559 1216.37 449.58 1215.18 450.374C1214.39 450.894 1213.51 451.132 1212.61 451.342C1209.99 451.963 1208.53 453.761 1207.78 456.225C1207.35 457.621 1207.38 459.027 1207.97 460.396C1208.56 461.783 1209.58 462.558 1211.1 462.741C1213.34 463.014 1215.51 463.571 1217.52 464.648C1218.32 465.077 1219.06 465.597 1219.82 466.072C1219.8 466.108 1219.79 466.136 1219.77 466.172C1219.24 465.944 1218.71 465.707 1218.17 465.497C1216.34 464.758 1214.45 464.265 1212.45 464.366C1210.53 464.457 1208.79 465.087 1207.19 466.109C1206.22 466.72 1205.35 467.468 1204.43 468.153C1204.37 468.198 1204.31 468.244 1204.24 468.253C1203.14 468.326 1202.04 468.39 1200.94 468.454C1200.92 468.454 1200.91 468.436 1200.92 468.445C1202.25 467.642 1203.58 466.83 1204.92 466.027C1206.27 465.215 1207.68 464.52 1209.16 463.982C1209.38 463.9 1209.61 463.836 1209.83 463.69C1209.48 463.708 1209.13 463.717 1208.78 463.763C1206.95 463.991 1205.28 464.685 1203.66 465.525C1202.21 466.273 1200.77 467.058 1199.18 467.514C1197.73 467.934 1196.24 468.016 1194.74 467.934C1193.53 467.861 1192.33 467.66 1191.12 467.514C1191.09 467.514 1191.07 467.496 1191.05 467.413C1191.71 467.413 1192.38 467.441 1193.05 467.413C1194.74 467.34 1196.36 466.975 1197.95 466.418C1199.21 465.98 1200.45 465.488 1201.61 464.813C1201.99 464.594 1202.23 464.283 1202.25 463.799C1199.04 465.086 1195.81 466.172 1192.34 466.328C1191.23 466.373 1190.12 466.328 1189.01 466.273C1189.82 466.154 1190.62 466.053 1191.41 465.916C1193.29 465.588 1195.12 465.059 1196.92 464.42C1198.22 463.964 1199.53 463.499 1200.82 462.988C1202.67 462.267 1203.68 460.843 1204 458.926C1204.23 457.548 1204.05 456.206 1203.31 454.993C1202.56 453.761 1201.39 453.131 1200.04 452.829C1198.1 452.391 1196.18 452.529 1194.28 453.049C1193.32 453.314 1192.38 453.642 1191.43 453.934C1191.42 453.934 1191.4 453.915 1191.4 453.915L1191.38 453.888C1191.74 453.614 1192.09 453.295 1192.48 453.067C1194.3 452.008 1196.25 451.416 1198.35 451.333C1200.23 451.26 1202.02 451.589 1203.65 452.693C1203.68 452.547 1203.71 452.419 1203.73 452.3C1203.96 450.977 1203.78 449.69 1203.38 448.44C1202.94 447.071 1202.42 445.72 1201.95 444.361C1201.54 443.193 1201.18 442.015 1201.07 440.783C1200.94 439.359 1201.13 437.991 1201.9 436.741C1202.09 436.43 1202.3 436.138 1202.51 435.828C1202.55 435.846 1202.59 435.864 1202.63 435.891C1202.6 435.991 1202.57 436.101 1202.54 436.202C1202.28 437.005 1201.95 437.789 1201.79 438.611C1201.49 440.126 1201.79 441.595 1202.45 442.964C1202.99 444.096 1203.65 445.182 1204.25 446.295C1204.56 446.87 1204.87 447.454 1205.2 448.102C1205.6 447.527 1205.98 446.98 1206.34 446.414C1207.08 445.255 1207.65 444.014 1208.07 442.7C1208.64 440.911 1208.54 439.122 1207.94 437.379C1207.58 436.348 1207.1 435.362 1206.69 434.313ZM1209.35 466.036C1211.48 464.913 1213.72 464.831 1216 465.588C1217.65 466.145 1219.19 466.912 1220.48 468.117C1220.52 468.162 1220.58 468.189 1220.6 468.262C1219.92 468.016 1219.25 467.761 1218.57 467.533C1216.76 466.921 1214.89 466.647 1212.98 466.739C1211.8 466.793 1210.7 467.185 1209.57 467.496C1208.53 467.788 1207.47 467.979 1206.41 468.207C1206.24 468.244 1206.06 468.226 1205.89 468.235L1205.84 468.132C1207.01 467.43 1208.14 466.665 1209.35 466.036ZM1205.84 468.132L1205.84 468.134V468.125L1205.84 468.132ZM1208.99 459.629C1209.23 459.584 1209.45 459.748 1209.48 459.976C1209.53 460.213 1209.37 460.432 1209.14 460.478C1208.9 460.523 1208.68 460.359 1208.64 460.131C1208.6 459.894 1208.75 459.675 1208.99 459.629ZM1202.67 459.309C1202.9 459.355 1203.06 459.574 1203.01 459.811C1202.98 460.048 1202.75 460.204 1202.52 460.159C1202.28 460.122 1202.13 459.894 1202.17 459.657C1202.22 459.419 1202.44 459.263 1202.67 459.309ZM1211.72 458.89C1211.94 458.808 1212.18 458.926 1212.27 459.145C1212.35 459.364 1212.23 459.611 1212.01 459.693C1211.79 459.775 1211.54 459.656 1211.46 459.437C1211.38 459.218 1211.5 458.972 1211.72 458.89ZM1199.19 458.67C1199.27 458.452 1199.52 458.333 1199.74 458.415C1199.95 458.498 1200.07 458.743 1199.99 458.962C1199.91 459.181 1199.66 459.3 1199.44 459.218C1199.23 459.136 1199.11 458.889 1199.19 458.67ZM1208.67 457.831C1209.04 457.768 1209.38 458.013 1209.45 458.378C1209.51 458.743 1209.26 459.091 1208.9 459.155C1208.53 459.218 1208.19 458.972 1208.12 458.607C1208.06 458.242 1208.31 457.895 1208.67 457.831ZM1203.07 457.594C1203.43 457.658 1203.68 458.004 1203.61 458.37C1203.55 458.735 1203.2 458.981 1202.84 458.917C1202.47 458.853 1202.23 458.506 1202.29 458.141C1202.36 457.776 1202.7 457.53 1203.07 457.594ZM1200.38 457.584C1200.51 457.238 1200.9 457.055 1201.24 457.183C1201.59 457.311 1201.77 457.694 1201.64 458.04C1201.52 458.387 1201.13 458.57 1200.79 458.443C1200.44 458.315 1200.26 457.931 1200.38 457.584ZM1211.1 457.183C1211.44 457.055 1211.83 457.238 1211.96 457.584C1212.08 457.931 1211.9 458.315 1211.55 458.443C1211.21 458.571 1210.82 458.387 1210.7 458.04C1210.57 457.694 1210.75 457.311 1211.1 457.183ZM1197.91 457.137C1198.02 456.946 1198.28 456.873 1198.47 456.992C1198.66 457.101 1198.73 457.357 1198.61 457.548C1198.5 457.74 1198.25 457.812 1198.06 457.694C1197.87 457.584 1197.79 457.329 1197.91 457.137ZM1213.87 456.992C1214.06 456.882 1214.32 456.946 1214.43 457.137C1214.54 457.329 1214.47 457.584 1214.28 457.694C1214.09 457.803 1213.84 457.74 1213.73 457.548C1213.62 457.357 1213.68 457.101 1213.87 456.992ZM1209.34 454.856C1209.92 454.701 1210.52 455.048 1210.69 455.641C1210.84 456.234 1210.5 456.836 1209.91 456.992C1209.33 457.147 1208.72 456.8 1208.56 456.206C1208.41 455.613 1208.75 455.011 1209.34 454.856ZM1201.37 455.832C1201.51 455.34 1202.01 455.038 1202.51 455.175C1203 455.312 1203.3 455.823 1203.17 456.316C1203.03 456.809 1202.53 457.11 1202.03 456.973C1201.53 456.836 1201.23 456.325 1201.37 455.832ZM1195.14 456.116C1195.29 455.933 1195.56 455.915 1195.74 456.061C1195.92 456.216 1195.94 456.48 1195.79 456.662C1195.64 456.845 1195.37 456.872 1195.19 456.717C1195.01 456.562 1194.99 456.298 1195.14 456.116ZM1216.59 456.061C1216.77 455.906 1217.05 455.933 1217.19 456.116C1217.35 456.298 1217.32 456.571 1217.14 456.717C1216.96 456.872 1216.69 456.845 1216.54 456.662C1216.38 456.48 1216.41 456.207 1216.59 456.061ZM1198.44 455.686C1198.62 455.367 1199.03 455.257 1199.35 455.44C1199.67 455.622 1199.78 456.034 1199.6 456.353C1199.42 456.672 1199.01 456.781 1198.69 456.599C1198.37 456.416 1198.26 456.005 1198.44 455.686ZM1212.99 455.44C1213.31 455.258 1213.72 455.367 1213.9 455.686C1214.08 456.005 1213.97 456.416 1213.65 456.599C1213.33 456.782 1212.92 456.672 1212.74 456.353C1212.56 456.034 1212.67 455.622 1212.99 455.44ZM1195.96 454.755C1196.2 454.472 1196.62 454.436 1196.9 454.673C1197.18 454.911 1197.22 455.34 1196.98 455.622C1196.74 455.905 1196.32 455.942 1196.04 455.704C1195.76 455.467 1195.72 455.038 1195.96 454.755ZM1215.43 454.673C1215.72 454.436 1216.14 454.472 1216.37 454.755C1216.61 455.038 1216.57 455.458 1216.29 455.704C1216.01 455.942 1215.59 455.905 1215.35 455.622C1215.11 455.34 1215.15 454.92 1215.43 454.673ZM1200.46 454.929C1200.55 454.728 1200.79 454.637 1200.99 454.737C1201.19 454.828 1201.28 455.075 1201.18 455.276C1201.09 455.476 1200.85 455.567 1200.65 455.467C1200.45 455.376 1200.36 455.13 1200.46 454.929ZM1211.35 454.728C1211.55 454.628 1211.79 454.719 1211.88 454.919C1211.98 455.12 1211.89 455.367 1211.69 455.458C1211.48 455.559 1211.24 455.467 1211.15 455.266H1211.16C1211.06 455.065 1211.15 454.819 1211.35 454.728ZM1193.14 454.007C1193.32 453.852 1193.59 453.879 1193.74 454.062C1193.9 454.244 1193.87 454.518 1193.69 454.664C1193.5 454.82 1193.24 454.792 1193.08 454.61C1192.93 454.427 1192.96 454.153 1193.14 454.007ZM1218.59 454.062C1218.74 453.879 1219.01 453.861 1219.19 454.007C1219.37 454.162 1219.39 454.427 1219.25 454.61C1219.09 454.792 1218.83 454.81 1218.64 454.664C1218.46 454.509 1218.44 454.244 1218.59 454.062ZM1194.53 453.505C1194.82 453.268 1195.24 453.304 1195.47 453.587C1195.71 453.87 1195.68 454.29 1195.39 454.537C1195.11 454.774 1194.69 454.737 1194.45 454.454C1194.22 454.172 1194.25 453.752 1194.53 453.505ZM1198.59 453.77C1198.71 453.587 1198.96 453.542 1199.14 453.669C1199.33 453.797 1199.37 454.044 1199.24 454.226C1199.12 454.408 1198.87 454.454 1198.69 454.327C1198.5 454.199 1198.46 453.952 1198.59 453.77ZM1213.2 453.661C1213.38 453.533 1213.63 453.579 1213.75 453.761C1213.88 453.944 1213.84 454.19 1213.65 454.318C1213.47 454.445 1213.22 454.399 1213.1 454.217C1212.97 454.035 1213.01 453.779 1213.2 453.661ZM1199.94 453.496C1200.07 453.259 1200.38 453.186 1200.6 453.314C1200.84 453.451 1200.91 453.752 1200.79 453.98C1200.65 454.217 1200.35 454.29 1200.12 454.162C1199.88 454.026 1199.81 453.724 1199.94 453.496ZM1196.88 452.985C1197.14 452.72 1197.58 452.72 1197.85 452.985C1198.11 453.249 1198.11 453.688 1197.85 453.953C1197.58 454.217 1197.14 454.217 1196.88 453.953C1196.62 453.688 1196.62 453.249 1196.88 452.985ZM1214.28 451.735C1214.8 451.215 1215.65 451.215 1216.17 451.735C1216.69 452.255 1216.69 453.113 1216.17 453.633C1215.65 454.153 1214.8 454.153 1214.28 453.633C1213.76 453.113 1213.76 452.255 1214.28 451.735ZM1217.21 452.894C1217.45 452.611 1217.87 452.575 1218.15 452.812C1218.43 453.049 1218.47 453.478 1218.23 453.761C1218 454.044 1217.58 454.08 1217.29 453.843C1217.01 453.606 1216.97 453.177 1217.21 452.894ZM1211.17 452.3C1211.52 452.099 1211.96 452.218 1212.17 452.565C1212.37 452.912 1212.25 453.359 1211.9 453.569C1211.55 453.77 1211.11 453.651 1210.91 453.304C1210.71 452.957 1210.82 452.51 1211.17 452.3ZM1219.51 451.324C1219.62 451.132 1219.88 451.06 1220.07 451.178C1220.26 451.288 1220.33 451.543 1220.21 451.735C1220.11 451.926 1219.85 451.999 1219.66 451.88C1219.47 451.771 1219.39 451.515 1219.51 451.324ZM1192.27 451.178C1192.46 451.069 1192.72 451.132 1192.83 451.324C1192.94 451.515 1192.87 451.771 1192.68 451.88C1192.49 451.99 1192.24 451.926 1192.13 451.735C1192.02 451.543 1192.08 451.288 1192.27 451.178ZM1202.7 451.196C1202.83 451.013 1203.08 450.968 1203.26 451.096C1203.44 451.233 1203.49 451.479 1203.36 451.662C1203.23 451.844 1202.99 451.89 1202.8 451.762V451.753C1202.62 451.626 1202.57 451.378 1202.7 451.196ZM1193.45 450.192C1193.77 450.01 1194.18 450.12 1194.36 450.439C1194.54 450.758 1194.43 451.168 1194.11 451.351C1193.8 451.534 1193.38 451.424 1193.2 451.105C1193.02 450.785 1193.13 450.374 1193.45 450.192ZM1217.97 450.439C1218.15 450.12 1218.56 450.01 1218.88 450.192C1219.2 450.374 1219.31 450.785 1219.13 451.105C1218.95 451.424 1218.53 451.534 1218.22 451.351C1217.9 451.168 1217.79 450.758 1217.97 450.439ZM1216.2 450.649C1216.33 450.466 1216.57 450.421 1216.76 450.548C1216.94 450.685 1216.98 450.931 1216.86 451.114C1216.73 451.296 1216.48 451.342 1216.3 451.214V451.205C1216.12 451.087 1216.07 450.831 1216.2 450.649ZM1195.57 450.548C1195.76 450.42 1196 450.466 1196.13 450.649C1196.26 450.831 1196.21 451.087 1196.03 451.205C1195.85 451.333 1195.6 451.287 1195.47 451.105C1195.35 450.922 1195.39 450.676 1195.57 450.548ZM1207.75 449.754C1208.1 449.545 1208.56 449.672 1208.77 450.028C1208.98 450.384 1208.85 450.84 1208.5 451.05C1208.14 451.26 1207.69 451.132 1207.48 450.777C1207.27 450.421 1207.39 449.964 1207.75 449.754ZM1198.91 449.937C1199.17 449.672 1199.59 449.672 1199.86 449.937C1200.12 450.202 1200.12 450.622 1199.86 450.886C1199.59 451.151 1199.17 451.151 1198.91 450.886C1198.64 450.621 1198.64 450.202 1198.91 449.937ZM1201.03 449.362C1201.32 448.851 1201.98 448.677 1202.49 448.969C1203 449.261 1203.18 449.918 1202.88 450.429C1202.59 450.94 1201.94 451.114 1201.42 450.822C1200.91 450.53 1200.74 449.873 1201.03 449.362ZM1210.33 448.869C1210.65 448.896 1210.89 449.179 1210.86 449.498C1210.83 449.818 1210.55 450.055 1210.23 450.028C1209.91 450 1209.67 449.717 1209.7 449.398C1209.73 449.079 1210.01 448.841 1210.33 448.869ZM1196.63 448.002C1197.14 447.71 1197.8 447.883 1198.09 448.394C1198.39 448.905 1198.21 449.563 1197.7 449.864C1197.19 450.156 1196.53 449.982 1196.24 449.471C1195.95 448.96 1196.12 448.304 1196.63 448.002ZM1190.37 448.914C1190.59 448.833 1190.84 448.951 1190.92 449.17C1191 449.389 1190.88 449.636 1190.67 449.718C1190.45 449.8 1190.2 449.681 1190.12 449.462C1190.04 449.243 1190.15 448.997 1190.37 448.914ZM1221.41 449.17C1221.49 448.951 1221.74 448.832 1221.96 448.914C1222.18 448.997 1222.29 449.243 1222.21 449.462C1222.13 449.681 1221.88 449.8 1221.67 449.718C1221.45 449.636 1221.33 449.389 1221.41 449.17ZM1191.77 448.148C1192.12 448.02 1192.5 448.203 1192.63 448.549C1192.76 448.896 1192.57 449.28 1192.23 449.408C1191.88 449.535 1191.5 449.353 1191.37 449.006C1191.24 448.66 1191.42 448.276 1191.77 448.148ZM1219.7 448.549C1219.83 448.203 1220.21 448.02 1220.56 448.148C1220.91 448.276 1221.09 448.659 1220.96 449.006C1220.83 449.353 1220.45 449.535 1220.11 449.408C1219.76 449.28 1219.58 448.896 1219.7 448.549ZM1194.53 448.604C1194.74 448.504 1194.97 448.596 1195.06 448.796C1195.16 448.997 1195.07 449.243 1194.87 449.334H1194.88C1194.67 449.435 1194.43 449.344 1194.34 449.143C1194.24 448.942 1194.33 448.695 1194.53 448.604ZM1217.27 448.796C1217.36 448.596 1217.6 448.504 1217.81 448.604H1217.8C1218 448.695 1218.09 448.942 1217.99 449.143C1217.9 449.344 1217.66 449.435 1217.46 449.334C1217.26 449.243 1217.17 448.997 1217.27 448.796ZM1208.7 448.185C1208.92 448.167 1209.12 448.33 1209.14 448.549C1209.15 448.768 1208.99 448.969 1208.77 448.988C1208.55 449.006 1208.35 448.841 1208.33 448.622C1208.31 448.403 1208.48 448.203 1208.7 448.185ZM1218.97 444.348C1217.84 447.217 1214.45 449.658 1210.68 448.495C1211.44 448.285 1212.2 448.02 1212.99 447.865C1215.39 447.381 1217.36 446.186 1218.96 444.361C1218.97 444.357 1218.97 444.352 1218.97 444.348ZM1198.92 446.249C1199.56 445.876 1200.38 446.104 1200.75 446.743C1201.12 447.381 1200.9 448.202 1200.26 448.577C1199.62 448.951 1198.8 448.723 1198.43 448.084C1198.07 447.446 1198.29 446.624 1198.92 446.249ZM1193.46 445.629C1194.17 445.438 1194.91 445.867 1195.1 446.579C1195.29 447.299 1194.86 448.029 1194.15 448.221C1193.44 448.413 1192.7 447.984 1192.51 447.272C1192.32 446.56 1192.74 445.821 1193.46 445.629ZM1201.57 447.245C1201.7 447.062 1201.95 447.016 1202.13 447.144C1202.31 447.272 1202.35 447.528 1202.23 447.71C1202.1 447.893 1201.85 447.938 1201.67 447.81V447.801C1201.49 447.673 1201.44 447.427 1201.57 447.245ZM1208.73 446.925C1208.84 446.533 1209.25 446.295 1209.64 446.405C1210.03 446.514 1210.27 446.916 1210.16 447.308C1210.05 447.7 1209.65 447.938 1209.25 447.829C1208.86 447.719 1208.62 447.318 1208.73 446.925ZM1219.26 446.751C1219.55 446.779 1219.77 447.044 1219.74 447.335C1219.72 447.627 1219.46 447.847 1219.16 447.82C1218.87 447.792 1218.65 447.528 1218.68 447.236C1218.7 446.944 1218.96 446.724 1219.26 446.751ZM1211.1 446.797C1211.32 446.779 1211.52 446.943 1211.54 447.162C1211.55 447.381 1211.39 447.582 1211.17 447.6C1210.95 447.618 1210.75 447.455 1210.73 447.236C1210.71 447.017 1210.88 446.816 1211.1 446.797ZM1212.05 446.077C1212.31 445.611 1212.9 445.455 1213.36 445.72C1213.83 445.985 1213.98 446.578 1213.72 447.043C1213.45 447.509 1212.86 447.664 1212.4 447.4C1211.94 447.135 1211.78 446.542 1212.05 446.077ZM1189.7 446.085C1189.94 446.04 1190.15 446.204 1190.19 446.432C1190.24 446.669 1190.07 446.888 1189.84 446.934C1189.61 446.98 1189.39 446.815 1189.35 446.587C1189.31 446.35 1189.47 446.131 1189.7 446.085ZM1222.63 446.085C1222.87 446.122 1223.02 446.35 1222.98 446.587C1222.93 446.824 1222.72 446.979 1222.49 446.934C1222.25 446.888 1222.09 446.669 1222.14 446.432C1222.19 446.195 1222.4 446.04 1222.63 446.085ZM1191.2 445.575C1191.57 445.511 1191.92 445.757 1191.98 446.121C1192.04 446.486 1191.8 446.834 1191.44 446.898C1191.08 446.962 1190.73 446.715 1190.67 446.35C1190.6 445.985 1190.85 445.639 1191.21 445.575H1191.2ZM1221.14 445.575C1221.5 445.639 1221.75 445.985 1221.67 446.35C1221.61 446.715 1221.26 446.961 1220.9 446.898C1220.53 446.834 1220.29 446.487 1220.36 446.121C1220.42 445.757 1220.77 445.511 1221.14 445.575ZM1205.08 446.003C1205.3 445.921 1205.55 446.04 1205.63 446.259C1205.71 446.478 1205.59 446.724 1205.38 446.806C1205.16 446.888 1204.91 446.77 1204.83 446.551C1204.75 446.332 1204.86 446.086 1205.08 446.003ZM1196.72 445.447C1197.08 445.346 1197.45 445.565 1197.55 445.921C1197.64 446.277 1197.43 446.651 1197.07 446.743C1196.72 446.843 1196.35 446.624 1196.25 446.268C1196.16 445.912 1196.37 445.538 1196.72 445.447ZM1215.61 445.447C1215.97 445.547 1216.18 445.912 1216.09 446.268C1216 446.624 1215.62 446.843 1215.27 446.743C1214.91 446.642 1214.7 446.277 1214.79 445.921C1214.88 445.565 1215.26 445.355 1215.61 445.447ZM1210.86 443.265C1211.6 443.265 1212.2 443.868 1212.2 444.607C1212.2 445.346 1211.6 445.949 1210.86 445.949C1210.12 445.948 1209.52 445.346 1209.52 444.607C1209.52 443.868 1210.12 443.265 1210.86 443.265ZM1200.4 444.534C1200.67 444.269 1201.09 444.269 1201.35 444.534C1201.62 444.798 1201.62 445.218 1201.35 445.483C1201.09 445.747 1200.67 445.747 1200.4 445.483C1200.14 445.218 1200.14 444.798 1200.4 444.534ZM1219.52 444.771C1219.74 444.789 1219.9 444.99 1219.89 445.209C1219.87 445.428 1219.67 445.593 1219.45 445.575C1219.23 445.556 1219.06 445.355 1219.08 445.136C1219.1 444.917 1219.3 444.753 1219.52 444.771ZM1204.79 443.21C1205.34 442.891 1206.04 443.083 1206.36 443.63C1206.68 444.178 1206.49 444.881 1205.94 445.201C1205.39 445.52 1204.69 445.328 1204.37 444.781C1204.05 444.233 1204.24 443.53 1204.79 443.21ZM1193.53 444.315C1193.75 444.297 1193.95 444.461 1193.97 444.68C1193.99 444.899 1193.82 445.1 1193.6 445.119C1193.39 445.137 1193.18 444.972 1193.17 444.753C1193.15 444.534 1193.31 444.333 1193.53 444.315ZM1198.58 442.261C1199.32 442.261 1199.92 442.864 1199.92 443.603C1199.92 444.342 1199.32 444.945 1198.58 444.945C1197.84 444.944 1197.24 444.342 1197.24 443.603C1197.24 442.864 1197.84 442.261 1198.58 442.261ZM1213.76 442.261C1214.5 442.261 1215.1 442.864 1215.1 443.603C1215.1 444.342 1214.5 444.945 1213.76 444.945C1213.02 444.945 1212.42 444.342 1212.42 443.603C1212.42 442.864 1213.02 442.261 1213.76 442.261ZM1195.78 442.536C1196.37 442.536 1196.84 443.02 1196.84 443.613C1196.84 444.206 1196.36 444.689 1195.78 444.689C1195.19 444.689 1194.71 444.206 1194.71 443.613C1194.71 443.019 1195.19 442.536 1195.78 442.536ZM1216.56 442.536C1217.16 442.536 1217.63 443.02 1217.63 443.613C1217.63 444.206 1217.15 444.689 1216.56 444.689C1215.98 444.689 1215.5 444.206 1215.5 443.613C1215.5 443.019 1215.98 442.536 1216.56 442.536ZM1218.44 443.603C1218.66 443.585 1218.86 443.749 1218.88 443.968C1218.9 444.187 1218.74 444.388 1218.52 444.407C1218.3 444.425 1218.1 444.26 1218.08 444.041C1218.06 443.822 1218.23 443.621 1218.44 443.603ZM1191.87 442.937C1192.24 442.937 1192.54 443.239 1192.54 443.613C1192.54 443.987 1192.23 444.279 1191.87 444.279C1191.51 444.279 1191.2 443.978 1191.2 443.613C1191.2 443.248 1191.5 442.937 1191.87 442.937ZM1220.46 442.937C1220.83 442.937 1221.13 443.239 1221.13 443.613C1221.13 443.987 1220.83 444.279 1220.46 444.279C1220.1 444.279 1219.79 443.978 1219.79 443.613C1219.79 443.248 1220.1 442.937 1220.46 442.937ZM1190.36 443.202C1190.58 443.202 1190.77 443.385 1190.77 443.613C1190.77 443.841 1190.58 444.023 1190.36 444.023C1190.13 444.023 1189.94 443.841 1189.94 443.613C1189.94 443.385 1190.13 443.202 1190.36 443.202ZM1221.99 443.202C1222.21 443.202 1222.4 443.385 1222.4 443.613C1222.4 443.841 1222.21 444.023 1221.99 444.023C1221.76 444.023 1221.57 443.841 1221.57 443.613C1221.57 443.385 1221.76 443.202 1221.99 443.202ZM1203.41 442.609C1203.61 442.499 1203.86 442.563 1203.97 442.754C1204.08 442.946 1204.02 443.201 1203.82 443.311C1203.63 443.42 1203.38 443.357 1203.27 443.165C1203.16 442.974 1203.22 442.718 1203.41 442.609ZM1206.8 441.759C1207.12 441.577 1207.53 441.687 1207.71 442.006C1207.89 442.326 1207.78 442.736 1207.47 442.918C1207.15 443.101 1206.74 442.992 1206.55 442.672C1206.37 442.353 1206.48 441.942 1206.8 441.759ZM1193.6 442.097C1193.82 442.116 1193.99 442.317 1193.97 442.536C1193.95 442.754 1193.75 442.919 1193.53 442.901C1193.31 442.883 1193.15 442.681 1193.17 442.462C1193.18 442.243 1193.39 442.079 1193.6 442.097ZM1218.59 442.088C1218.81 442.07 1219.01 442.234 1219.03 442.454C1219.05 442.672 1218.88 442.873 1218.66 442.891C1218.44 442.909 1218.24 442.745 1218.23 442.526C1218.21 442.307 1218.37 442.107 1218.59 442.088ZM1210.31 440.811C1210.75 440.555 1211.32 440.71 1211.57 441.148C1211.83 441.595 1211.67 442.161 1211.24 442.416C1210.8 442.672 1210.23 442.517 1209.98 442.079C1209.72 441.632 1209.88 441.066 1210.31 440.811ZM1199.94 441.787C1200.07 441.604 1200.31 441.559 1200.49 441.687C1200.68 441.815 1200.72 442.061 1200.59 442.244C1200.47 442.426 1200.22 442.471 1200.04 442.344C1199.86 442.216 1199.81 441.969 1199.94 441.787ZM1205.12 441.422C1205.3 441.295 1205.55 441.339 1205.68 441.522C1205.81 441.704 1205.76 441.952 1205.58 442.079C1205.39 442.207 1205.15 442.161 1205.02 441.979C1204.89 441.796 1204.94 441.541 1205.12 441.422ZM1202.99 439.961C1203.46 439.688 1204.07 439.852 1204.34 440.327C1204.62 440.801 1204.45 441.413 1203.98 441.687C1203.51 441.961 1202.89 441.796 1202.62 441.322C1202.35 440.847 1202.51 440.235 1202.99 439.961ZM1197.07 440.463C1197.43 440.564 1197.64 440.929 1197.55 441.285C1197.45 441.64 1197.08 441.86 1196.72 441.759C1196.37 441.659 1196.16 441.294 1196.25 440.938C1196.34 440.582 1196.72 440.372 1197.07 440.463ZM1215.27 440.463C1215.62 440.363 1215.99 440.582 1216.09 440.938C1216.18 441.294 1215.97 441.668 1215.61 441.759C1215.26 441.86 1214.89 441.64 1214.79 441.285C1214.7 440.929 1214.91 440.555 1215.27 440.463ZM1191.43 440.318C1191.8 440.382 1192.04 440.728 1191.97 441.093C1191.91 441.458 1191.56 441.705 1191.2 441.641C1190.83 441.577 1190.58 441.231 1190.66 440.866C1190.72 440.501 1191.07 440.254 1191.43 440.318ZM1220.9 440.318C1221.26 440.254 1221.61 440.501 1221.67 440.866C1221.74 441.23 1221.49 441.577 1221.14 441.641C1220.77 441.705 1220.42 441.458 1220.36 441.093C1220.3 440.728 1220.54 440.382 1220.91 440.318H1220.9ZM1192.51 439.934C1192.7 439.222 1193.43 438.793 1194.15 438.985C1194.86 439.176 1195.29 439.916 1195.1 440.628C1194.91 441.34 1194.18 441.769 1193.46 441.578C1192.75 441.386 1192.32 440.646 1192.51 439.934ZM1218.19 438.985C1218.9 438.793 1219.64 439.222 1219.83 439.934C1220.02 440.646 1219.6 441.386 1218.88 441.578C1218.17 441.769 1217.43 441.34 1217.24 440.628C1217.05 439.907 1217.48 439.176 1218.19 438.985ZM1189.84 440.281C1190.08 440.326 1190.24 440.546 1190.19 440.783C1190.15 441.02 1189.93 441.176 1189.7 441.13C1189.46 441.094 1189.31 440.865 1189.35 440.628C1189.39 440.391 1189.62 440.235 1189.84 440.281ZM1222.49 440.281C1222.72 440.235 1222.94 440.4 1222.98 440.628C1223.02 440.865 1222.86 441.085 1222.63 441.13C1222.4 441.167 1222.18 441.011 1222.14 440.783C1222.09 440.545 1222.26 440.326 1222.49 440.281ZM1211.96 438.529C1212.6 438.155 1213.42 438.383 1213.79 439.022C1214.16 439.661 1213.94 440.482 1213.3 440.856C1212.66 441.23 1211.84 441.002 1211.47 440.364C1211.1 439.725 1211.33 438.903 1211.96 438.529ZM1206.16 438.949C1206.69 438.638 1207.37 438.821 1207.68 439.36C1207.98 439.889 1207.8 440.564 1207.27 440.874C1206.74 441.185 1206.07 441.002 1205.76 440.463C1205.46 439.934 1205.63 439.25 1206.16 438.949ZM1198.65 439.249C1198.95 438.729 1199.61 438.557 1200.13 438.858C1200.65 439.159 1200.82 439.816 1200.52 440.336C1200.22 440.856 1199.56 441.029 1199.04 440.728C1198.52 440.427 1198.35 439.77 1198.65 439.249ZM1209.94 438.711C1210.2 438.447 1210.62 438.447 1210.89 438.711C1211.15 438.976 1211.15 439.396 1210.89 439.661C1210.62 439.925 1210.2 439.925 1209.94 439.661C1209.67 439.396 1209.67 438.976 1209.94 438.711ZM1196.24 437.863C1196.53 437.352 1197.19 437.169 1197.7 437.47C1198.21 437.762 1198.39 438.42 1198.09 438.94C1197.8 439.451 1197.14 439.633 1196.63 439.332C1196.12 439.04 1195.95 438.383 1196.24 437.863ZM1214.63 437.47C1215.14 437.169 1215.8 437.352 1216.09 437.863C1216.38 438.374 1216.21 439.031 1215.7 439.332C1215.19 439.633 1214.53 439.451 1214.24 438.94C1213.95 438.429 1214.12 437.771 1214.63 437.47ZM1202.59 438.52C1202.79 438.42 1203.03 438.511 1203.12 438.711C1203.22 438.912 1203.13 439.158 1202.93 439.249C1202.73 439.35 1202.49 439.259 1202.4 439.058C1202.3 438.857 1202.39 438.611 1202.59 438.52ZM1204.28 438.127C1204.55 437.863 1204.97 437.863 1205.23 438.127C1205.49 438.392 1205.49 438.812 1205.23 439.077C1204.97 439.341 1204.55 439.341 1204.28 439.077C1204.02 438.812 1204.02 438.392 1204.28 438.127ZM1191.37 438.209C1191.5 437.863 1191.88 437.681 1192.23 437.808C1192.57 437.936 1192.76 438.319 1192.63 438.665C1192.5 439.012 1192.12 439.196 1191.77 439.068C1191.42 438.94 1191.24 438.556 1191.37 438.209ZM1220.11 437.808C1220.45 437.68 1220.83 437.863 1220.96 438.209C1221.09 438.556 1220.91 438.94 1220.56 439.068C1220.21 439.196 1219.83 439.012 1219.7 438.665C1219.58 438.319 1219.76 437.936 1220.11 437.808ZM1194.34 438.073C1194.43 437.872 1194.67 437.781 1194.88 437.881H1194.87C1195.07 437.972 1195.16 438.219 1195.06 438.419C1194.97 438.62 1194.74 438.711 1194.53 438.611C1194.33 438.52 1194.24 438.273 1194.34 438.073ZM1217.46 437.881C1217.66 437.781 1217.9 437.872 1217.99 438.073C1218.09 438.273 1218 438.52 1217.8 438.611H1217.81C1217.6 438.711 1217.36 438.62 1217.27 438.419C1217.17 438.219 1217.26 437.972 1217.46 437.881ZM1190.13 437.753C1190.21 437.534 1190.46 437.415 1190.67 437.497C1190.89 437.58 1191.01 437.826 1190.93 438.045C1190.85 438.264 1190.6 438.383 1190.38 438.301C1190.16 438.219 1190.04 437.972 1190.13 437.753ZM1221.67 437.497C1221.88 437.416 1222.13 437.534 1222.21 437.753C1222.29 437.972 1222.18 438.219 1221.96 438.301C1221.74 438.383 1221.49 438.264 1221.41 438.045C1221.33 437.826 1221.45 437.58 1221.67 437.497ZM1206.77 437.443C1206.97 437.342 1207.21 437.434 1207.3 437.634C1207.4 437.835 1207.31 438.082 1207.11 438.173H1207.12C1206.91 438.273 1206.67 438.182 1206.58 437.981C1206.48 437.78 1206.57 437.534 1206.77 437.443ZM1209.45 436.439C1209.73 435.937 1210.37 435.773 1210.87 436.056C1211.37 436.348 1211.54 436.977 1211.25 437.479C1210.97 437.981 1210.33 438.146 1209.83 437.863C1209.34 437.571 1209.16 436.941 1209.45 436.439ZM1203.22 436.749C1203.5 436.594 1203.84 436.686 1204 436.959C1204.15 437.233 1204.06 437.58 1203.79 437.735C1203.51 437.89 1203.17 437.799 1203.01 437.525C1202.86 437.251 1202.95 436.905 1203.22 436.749ZM1199.27 436.384C1199.54 436.12 1199.95 436.12 1200.22 436.384C1200.48 436.649 1200.48 437.069 1200.22 437.333C1199.95 437.598 1199.54 437.598 1199.27 437.333C1199.01 437.069 1199.01 436.649 1199.27 436.384ZM1212.49 436.321C1212.75 436.056 1213.17 436.056 1213.43 436.321C1213.7 436.585 1213.7 437.005 1213.43 437.27C1213.17 437.534 1212.75 437.534 1212.49 437.27C1212.22 437.005 1212.22 436.585 1212.49 436.321ZM1205.7 434.997C1206.29 434.998 1206.76 435.472 1206.76 436.056C1206.76 436.64 1206.29 437.114 1205.7 437.115C1205.12 437.115 1204.65 436.64 1204.65 436.056C1204.65 435.472 1205.12 434.997 1205.7 434.997ZM1193.21 436.101C1193.39 435.782 1193.8 435.673 1194.12 435.855C1194.44 436.037 1194.55 436.449 1194.37 436.768C1194.19 437.087 1193.78 437.197 1193.46 437.014C1193.14 436.832 1193.03 436.42 1193.21 436.101ZM1218.22 435.855C1218.53 435.672 1218.95 435.782 1219.13 436.101C1219.31 436.42 1219.2 436.832 1218.88 437.014C1218.56 437.196 1218.15 437.087 1217.97 436.768C1217.79 436.449 1217.9 436.037 1218.22 435.855ZM1195.47 436.111C1195.6 435.928 1195.85 435.882 1196.03 436.01C1196.21 436.138 1196.26 436.384 1196.13 436.567C1196 436.749 1195.76 436.795 1195.57 436.667C1195.39 436.54 1195.35 436.293 1195.47 436.111ZM1216.3 436.001C1216.48 435.874 1216.73 435.919 1216.86 436.101C1216.98 436.283 1216.94 436.53 1216.76 436.658C1216.57 436.785 1216.33 436.74 1216.2 436.558C1216.07 436.376 1216.12 436.129 1216.3 436.001ZM1196.37 433.801C1196.89 433.281 1197.74 433.281 1198.26 433.801C1198.78 434.321 1198.78 435.179 1198.26 435.7C1197.74 436.22 1196.89 436.22 1196.37 435.7C1195.85 435.179 1195.85 434.321 1196.37 433.801ZM1192.12 435.472C1192.23 435.281 1192.48 435.207 1192.67 435.326C1192.86 435.435 1192.94 435.691 1192.82 435.882C1192.71 436.074 1192.45 436.147 1192.26 436.029C1192.07 435.919 1192 435.664 1192.12 435.472ZM1219.66 435.326C1219.85 435.216 1220.11 435.28 1220.21 435.472C1220.32 435.664 1220.26 435.919 1220.07 436.029C1219.88 436.138 1219.62 436.074 1219.51 435.882C1219.4 435.691 1219.47 435.435 1219.66 435.326ZM1214.27 433.582C1214.79 433.062 1215.64 433.062 1216.16 433.582C1216.68 434.103 1216.68 434.961 1216.16 435.481C1215.64 436.001 1214.79 436.001 1214.27 435.481C1213.75 434.961 1213.75 434.103 1214.27 433.582ZM1200.44 433.656C1200.95 433.364 1201.61 433.537 1201.9 434.048C1202.19 434.559 1202.02 435.216 1201.51 435.517C1201 435.818 1200.34 435.635 1200.05 435.124C1199.75 434.613 1199.93 433.957 1200.44 433.656ZM1210.44 434.048C1210.73 433.537 1211.39 433.354 1211.9 433.656C1212.41 433.957 1212.59 434.604 1212.29 435.124C1212 435.635 1211.34 435.818 1210.83 435.517C1210.32 435.225 1210.15 434.568 1210.44 434.048ZM1203.51 433.656C1203.86 433.556 1204.23 433.774 1204.33 434.13C1204.42 434.486 1204.21 434.86 1203.85 434.952C1203.5 435.052 1203.13 434.833 1203.03 434.477C1202.94 434.121 1203.15 433.747 1203.51 433.656ZM1208.83 433.656C1209.18 433.747 1209.39 434.121 1209.3 434.477C1209.21 434.833 1208.83 435.043 1208.48 434.952C1208.12 434.851 1207.91 434.486 1208 434.13C1208.1 433.774 1208.47 433.564 1208.83 433.656ZM1194.11 433.454C1194.34 433.172 1194.76 433.135 1195.05 433.372C1195.33 433.61 1195.36 434.039 1195.13 434.322C1194.89 434.604 1194.47 434.641 1194.19 434.404C1193.91 434.166 1193.87 433.737 1194.11 433.454ZM1217.28 433.372C1217.57 433.135 1217.99 433.172 1218.23 433.454C1218.46 433.737 1218.43 434.157 1218.14 434.404C1217.86 434.641 1217.44 434.605 1217.2 434.322C1216.97 434.039 1217 433.61 1217.28 433.372ZM1206.17 432.104C1206.75 432.104 1207.24 432.588 1207.24 433.181C1207.24 433.774 1206.75 434.258 1206.17 434.258C1205.59 434.258 1205.1 433.774 1205.1 433.181C1205.1 432.588 1205.59 432.104 1206.17 432.104ZM1198.69 432.889C1198.87 432.761 1199.12 432.807 1199.24 432.99C1199.37 433.172 1199.33 433.428 1199.14 433.546C1198.96 433.674 1198.71 433.628 1198.59 433.446C1198.46 433.263 1198.5 433.008 1198.69 432.889ZM1213.1 432.99C1213.22 432.807 1213.47 432.761 1213.65 432.889C1213.84 433.008 1213.88 433.263 1213.75 433.446C1213.63 433.628 1213.38 433.674 1213.2 433.546C1213.01 433.419 1212.97 433.172 1213.1 432.99ZM1218.64 432.551C1218.83 432.396 1219.09 432.423 1219.25 432.606C1219.4 432.788 1219.37 433.062 1219.19 433.208C1219.01 433.363 1218.74 433.336 1218.59 433.154C1218.43 432.971 1218.46 432.697 1218.64 432.551ZM1193.08 432.606C1193.24 432.423 1193.5 432.396 1193.69 432.551C1193.87 432.706 1193.89 432.971 1193.74 433.154C1193.59 433.336 1193.32 433.354 1193.14 433.208C1192.96 433.053 1192.94 432.788 1193.08 432.606ZM1196.05 431.511C1196.33 431.265 1196.75 431.31 1196.99 431.593C1197.23 431.876 1197.19 432.305 1196.91 432.542C1196.62 432.779 1196.2 432.743 1195.97 432.46C1195.73 432.177 1195.77 431.758 1196.05 431.511ZM1215.35 431.593C1215.59 431.31 1216.01 431.274 1216.29 431.511C1216.57 431.748 1216.61 432.178 1216.37 432.46C1216.14 432.743 1215.72 432.78 1215.43 432.542C1215.15 432.305 1215.11 431.876 1215.35 431.593ZM1202.5 429.913C1203.21 429.722 1203.95 430.151 1204.14 430.863C1204.34 431.584 1203.92 432.314 1203.2 432.505C1202.48 432.697 1201.74 432.268 1201.55 431.556C1201.36 430.844 1201.79 430.105 1202.5 429.913ZM1208.19 430.863C1208.38 430.151 1209.11 429.722 1209.83 429.913C1210.54 430.105 1210.97 430.844 1210.78 431.556C1210.59 432.268 1209.86 432.697 1209.14 432.505C1208.42 432.313 1207.99 431.574 1208.19 430.863ZM1200.65 431.748C1200.85 431.648 1201.09 431.739 1201.18 431.94C1201.28 432.141 1201.19 432.387 1200.99 432.478C1200.79 432.578 1200.55 432.487 1200.46 432.287C1200.36 432.086 1200.45 431.84 1200.65 431.748ZM1211.15 431.94C1211.24 431.739 1211.48 431.648 1211.69 431.748C1211.89 431.84 1211.98 432.086 1211.88 432.287C1211.79 432.487 1211.55 432.578 1211.35 432.478C1211.15 432.387 1211.06 432.141 1211.16 431.94H1211.15ZM1198.69 430.607C1199.01 430.425 1199.42 430.535 1199.6 430.854C1199.78 431.173 1199.67 431.583 1199.35 431.766C1199.03 431.949 1198.62 431.839 1198.44 431.52C1198.26 431.201 1198.37 430.789 1198.69 430.607ZM1212.74 430.854C1212.92 430.535 1213.33 430.424 1213.65 430.607C1213.97 430.789 1214.08 431.201 1213.9 431.52C1213.72 431.839 1213.31 431.948 1212.99 431.766C1212.67 431.584 1212.56 431.173 1212.74 430.854ZM1205.03 430.571C1205.25 430.552 1205.45 430.717 1205.47 430.936C1205.49 431.155 1205.32 431.355 1205.1 431.373C1204.88 431.392 1204.68 431.228 1204.66 431.009C1204.65 430.79 1204.81 430.589 1205.03 430.571ZM1207.31 430.571C1207.53 430.589 1207.69 430.79 1207.68 431.009C1207.66 431.228 1207.46 431.391 1207.24 431.373C1207.02 431.355 1206.85 431.155 1206.87 430.936C1206.89 430.717 1207.09 430.553 1207.31 430.571ZM1195.19 430.489C1195.37 430.334 1195.64 430.361 1195.79 430.543C1195.95 430.726 1195.92 431 1195.74 431.146C1195.56 431.301 1195.28 431.274 1195.14 431.091C1194.98 430.909 1195.01 430.635 1195.19 430.489ZM1216.54 430.543C1216.69 430.361 1216.96 430.334 1217.14 430.489C1217.32 430.644 1217.34 430.909 1217.19 431.091C1217.04 431.274 1216.77 431.301 1216.59 431.146C1216.41 430.991 1216.39 430.726 1216.54 430.543ZM1213.73 429.667C1213.84 429.476 1214.09 429.402 1214.28 429.521C1214.47 429.63 1214.55 429.886 1214.43 430.078C1214.32 430.269 1214.06 430.343 1213.87 430.224C1213.68 430.114 1213.61 429.859 1213.73 429.667ZM1198.06 429.521C1198.25 429.412 1198.5 429.476 1198.61 429.667C1198.72 429.859 1198.66 430.115 1198.47 430.224C1198.28 430.333 1198.02 430.269 1197.91 430.078C1197.8 429.886 1197.87 429.63 1198.06 429.521ZM1200.79 428.764C1201.13 428.636 1201.52 428.819 1201.64 429.165C1201.77 429.512 1201.59 429.895 1201.24 430.023C1200.9 430.151 1200.51 429.968 1200.38 429.621C1200.26 429.275 1200.44 428.892 1200.79 428.764ZM1210.7 429.165C1210.82 428.819 1211.21 428.636 1211.55 428.764C1211.9 428.892 1212.08 429.275 1211.96 429.621C1211.83 429.968 1211.44 430.151 1211.1 430.023C1210.75 429.895 1210.57 429.512 1210.7 429.165ZM1206.17 428.6C1206.53 428.6 1206.84 428.901 1206.84 429.275C1206.84 429.649 1206.53 429.951 1206.17 429.951C1205.8 429.95 1205.5 429.649 1205.5 429.275C1205.5 428.901 1205.8 428.6 1206.17 428.6ZM1203.43 428.052C1203.8 427.988 1204.14 428.235 1204.21 428.6C1204.27 428.965 1204.02 429.312 1203.66 429.375C1203.3 429.439 1202.95 429.192 1202.88 428.828C1202.82 428.463 1203.07 428.116 1203.43 428.052ZM1208.9 428.052C1209.26 428.116 1209.51 428.463 1209.45 428.828C1209.38 429.192 1209.04 429.439 1208.67 429.375C1208.31 429.312 1208.06 428.965 1208.12 428.6C1208.19 428.235 1208.53 427.988 1208.9 428.052ZM1200.33 427.523C1200.55 427.441 1200.79 427.559 1200.88 427.778C1200.96 427.997 1200.84 428.243 1200.62 428.326C1200.4 428.408 1200.16 428.289 1200.07 428.07C1199.99 427.851 1200.11 427.605 1200.33 427.523ZM1211.46 427.778C1211.54 427.559 1211.79 427.441 1212.01 427.523C1212.23 427.605 1212.35 427.851 1212.27 428.07C1212.18 428.289 1211.94 428.408 1211.72 428.326C1211.5 428.243 1211.38 427.997 1211.46 427.778ZM1206.16 427.34C1206.39 427.34 1206.57 427.522 1206.57 427.75C1206.57 427.979 1206.39 428.161 1206.16 428.162C1205.93 428.162 1205.75 427.979 1205.75 427.75C1205.75 427.522 1205.93 427.34 1206.16 427.34ZM1209.13 426.746C1209.36 426.792 1209.52 427.011 1209.47 427.248C1209.43 427.486 1209.21 427.642 1208.98 427.596C1208.74 427.55 1208.59 427.331 1208.63 427.094C1208.67 426.857 1208.9 426.701 1209.13 426.746ZM1203.2 426.746C1203.44 426.701 1203.66 426.866 1203.7 427.094C1203.74 427.331 1203.58 427.55 1203.35 427.596C1203.11 427.642 1202.89 427.477 1202.86 427.248C1202.81 427.011 1202.98 426.792 1203.2 426.746Z" fill="white"/>
<circle opacity="0.5" cx="1187.51" cy="512.5" r="11.5" fill="#0097DC"/>
<circle opacity="0.5" cx="1282.5" cy="615.133" r="11.5" fill="#0097DC"/>
<circle opacity="0.5" cx="1200.51" cy="374.676" r="11.5" fill="#0097DC"/>
<circle opacity="0.5" cx="1370.5" cy="463.57" r="11.5" fill="#0097DC"/>
<circle opacity="0.5" cx="1316.5" cy="547.226" r="11.5" fill="#0097DC"/>
<circle opacity="0.5" cx="1370.5" cy="603.633" r="11.5" fill="#0097DC"/>
<circle opacity="0.5" cx="1536.5" cy="752.262" r="11.5" fill="#0097DC"/>
<circle opacity="0.5" cx="1530.5" cy="940.176" r="11.5" fill="#0097DC"/>
<circle opacity="0.5" cx="1271" cy="928.676" r="11.5" fill="#0097DC"/>
<circle opacity="0.5" cx="1246.5" cy="859.301" r="11.5" fill="#0097DC"/>
<circle opacity="0.5" cx="1120.5" cy="776.262" r="11.5" fill="#0097DC"/>
<circle opacity="0.5" cx="1097.5" cy="671.699" r="11.5" fill="#0097DC"/>
<circle opacity="0.5" cx="1299.5" cy="683.199" r="11.5" fill="#0097DC"/>
<circle opacity="0.5" cx="1258" cy="718.699" r="11.5" fill="#0097DC"/>
<circle opacity="0.5" cx="1258" cy="763.762" r="11.5" fill="#0097DC"/>
<circle opacity="0.5" cx="1188.5" cy="222.676" r="11.5" fill="#0097DC"/>
<circle opacity="0.5" cx="1311" cy="208.301" r="11.5" fill="#0097DC"/>
<circle opacity="0.5" cx="1223.51" cy="511.57" r="11.5" fill="#0097DC"/>
</svg>
