<svg width="43" height="43" viewBox="0 0 43 43" fill="none" xmlns="http://www.w3.org/2000/svg">
<path opacity="0.8" d="M17.8032 14.374H24.6616M10.9448 41.4648H4.42922C2.53535 41.4648 1 39.9295 1 38.0356V28.0909C1 26.197 2.53535 24.6616 4.42922 24.6616H10.9448M24.6616 41.4648H10.9448V11.2877C10.9448 9.3938 12.4801 7.85845 14.374 7.85845H28.0909C29.9847 7.85845 31.5201 9.3938 31.5201 11.2877V41.4648M31.5201 17.8032L39.12 20.4508C40.5204 20.9176 41.4648 22.228 41.4648 23.704V38.0356C41.4648 39.9295 39.9295 41.4648 38.0356 41.4648H31.5201M17.8032 1V7.85845M24.6616 4.42922V7.85845M17.8032 21.2324H24.6616M17.8032 28.0909H24.6616M17.8032 41.4648V38.0356C17.8032 36.1417 19.3385 34.6064 21.2324 34.6064C23.1263 34.6064 24.6616 36.1417 24.6616 38.0356V41.4648" stroke="white" stroke-width="2" stroke-miterlimit="10" stroke-linecap="round" stroke-linejoin="round"/>
</svg>
