<svg width="36" height="43" viewBox="0 0 36 43" fill="none" xmlns="http://www.w3.org/2000/svg">
<path opacity="0.81" d="M28.3567 20.2503C25.8621 17.3198 22.1483 15.4605 18 15.4605C13.8518 15.4605 10.1379 17.3198 7.64341 20.2503M31.5997 24.8174V19.0332L17.9998 24.1369V42L31.5997 36.8963V30.7718M4.40015 30.7718V36.8963L18.0001 42V24.1369L4.40015 19.0332V24.8174M25.225 8.23029C25.225 12.2235 21.9903 15.4606 18.0001 15.4606C14.0099 15.4606 10.7751 12.2235 10.7751 8.23029C10.7751 4.23713 14.0099 1 18.0001 1C21.9903 1 25.225 4.23713 25.225 8.23029ZM32.025 30.7718H30.75C30.2807 30.7718 29.9 30.3909 29.9 29.9212V25.668C29.9 25.1983 30.2807 24.8174 30.75 24.8174H32.025C33.6681 24.8174 35 26.1504 35 27.7946C35 29.4389 33.6681 30.7718 32.025 30.7718ZM3.97499 30.7718H5.24998C5.71935 30.7718 6.09997 30.3909 6.09997 29.9212V25.668C6.09997 25.1983 5.71935 24.8174 5.24998 24.8174H3.97499C2.33194 24.8174 1 26.1504 1 27.7946C1 29.4389 2.33194 30.7718 3.97499 30.7718Z" stroke="white" stroke-width="2" stroke-miterlimit="10" stroke-linecap="round" stroke-linejoin="round"/>
</svg>
