<svg width="58" height="71" viewBox="0 0 58 71" fill="none" xmlns="http://www.w3.org/2000/svg">
<path d="M47.4203 6.60659C44.0775 3.86947 40.1688 1.90835 35.9763 0.864676C31.7838 -0.178997 27.4119 -0.279207 23.1759 0.571274C17.7294 1.68792 12.7187 4.34665 8.74059 8.23077C4.7625 12.1149 1.98477 17.0606 0.738261 22.4789C-0.508245 27.8972 -0.170975 33.5596 1.7099 38.7916C3.59077 44.0236 6.93595 48.6047 11.347 51.9891C16.3832 55.6751 20.6711 60.2868 23.9815 65.5774L26.2371 69.3281C26.5236 69.8046 26.9284 70.1988 27.4123 70.4724C27.8962 70.7461 28.4427 70.8899 28.9986 70.8899C29.5545 70.8899 30.101 70.7461 30.5849 70.4724C31.0688 70.1988 31.4736 69.8046 31.7601 69.3281L33.9222 65.7256C36.8049 60.6582 40.7355 56.2641 45.4515 52.8366C49.1494 50.2923 52.2055 46.9236 54.3786 42.9961C56.5517 39.0687 57.7825 34.69 57.9737 30.2054C58.1649 25.7209 57.3114 21.2533 55.4805 17.1551C53.6496 13.0569 50.8914 9.44026 47.4236 6.59048L47.4203 6.60659Z" fill="#0097DC"/>
<path fill-rule="evenodd" clip-rule="evenodd" d="M29.6885 15.2003C30.0078 15.5379 30.3545 15.8481 30.6465 16.213C31.6138 17.4085 32.1706 18.8048 32.417 20.3107C32.8276 22.8113 32.3809 25.1935 31.2949 27.4659C30.9391 28.2142 30.5918 28.9622 30.2451 29.7013C29.6611 30.9424 29.7702 32.1566 30.3906 33.3429C30.4636 33.4889 30.5367 33.6351 30.6279 33.8175C30.9565 33.4524 31.2672 33.0966 31.5957 32.7589C32.6907 31.6273 34.0503 31.0431 35.5742 30.7511C36.8243 30.5138 38.0473 30.1763 39.1514 29.5011C40.1004 28.917 40.9499 28.2138 41.6982 27.3741C41.5157 27.6662 41.342 27.9678 41.1504 28.2599C40.3473 29.4463 39.3702 30.4679 38.1748 31.2618C37.3901 31.7819 36.5055 32.0197 35.6113 32.2296C32.9923 32.8502 31.5318 34.6483 30.7744 37.1124C30.3456 38.5087 30.3818 39.9144 30.9658 41.2833C31.559 42.6702 32.5812 43.4454 34.0957 43.628C36.3405 43.9018 38.5129 44.4585 40.5205 45.5353C41.3144 45.9642 42.0538 46.4846 42.8203 46.9591C42.8021 46.9956 42.7839 47.0232 42.7656 47.0597C42.2365 46.8316 41.7072 46.5947 41.1689 46.3849C39.3347 45.6457 37.4448 45.1527 35.4463 45.253C33.5301 45.3444 31.7873 45.9741 30.1904 46.9962C29.2231 47.6077 28.3465 48.3557 27.4248 49.0402C27.3701 49.0857 27.306 49.1316 27.2422 49.1407C26.1382 49.2137 25.0343 49.2771 23.9395 49.3409C23.9212 49.3409 23.9119 49.3231 23.9209 49.3321C25.2441 48.5291 26.5766 47.7172 27.918 46.9142C29.2685 46.102 30.6828 45.4077 32.1611 44.8693C32.3801 44.7871 32.6082 44.7232 32.8271 44.5773C32.4806 44.5955 32.1249 44.6049 31.7783 44.6505C29.9532 44.8787 28.2735 45.5726 26.6582 46.4122C25.2074 47.1605 23.7654 47.9452 22.1777 48.4015C20.7269 48.8212 19.2396 48.9035 17.7432 48.8214C16.5295 48.7484 15.3246 48.5475 14.1201 48.4015C14.0927 48.4015 14.0651 48.383 14.0469 48.3009C14.7131 48.3009 15.3797 48.3283 16.0459 48.3009C17.734 48.2278 19.3586 47.8624 20.9463 47.3058C22.2055 46.8678 23.4467 46.3756 24.6055 45.7003C24.9887 45.4813 25.2256 45.1703 25.2529 44.6866C22.0407 45.9734 18.8105 47.0598 15.3428 47.215C14.2294 47.2606 13.1159 47.215 12.0117 47.1603C12.8148 47.0416 13.6182 46.9407 14.4121 46.8038C16.2919 46.4753 18.1174 45.9465 19.915 45.3077C21.2198 44.8515 22.5246 44.3861 23.8203 43.8751C25.6728 43.1542 26.6767 41.7301 26.9961 39.8136C27.2242 38.4355 27.0507 37.0938 26.3115 35.88C25.5633 34.6482 24.3865 34.0181 23.0361 33.7169C21.1015 33.2789 19.1755 33.4164 17.2773 33.9366C16.3194 34.2013 15.3795 34.5294 14.4307 34.8214C14.4215 34.8214 14.4027 34.8028 14.3936 34.8028L14.375 34.7755C14.74 34.5017 15.0871 34.1824 15.4795 33.9542C17.2955 32.8956 19.2487 32.303 21.3477 32.2208C23.2274 32.1478 25.016 32.476 26.6494 33.5802C26.6768 33.4342 26.7132 33.3062 26.7314 33.1876C26.9595 31.8644 26.7775 30.5775 26.376 29.3273C25.938 27.9584 25.4179 26.6079 24.9434 25.2482C24.5418 24.08 24.1769 22.9021 24.0674 21.67C23.9397 20.2466 24.1311 18.8781 24.8975 17.628C25.0891 17.3178 25.2989 17.0252 25.5088 16.715C25.5451 16.7331 25.5905 16.7513 25.627 16.7784C25.5996 16.8788 25.5635 16.9886 25.5361 17.089C25.2806 17.892 24.9524 18.6769 24.7881 19.4982C24.4869 21.0131 24.7883 22.4827 25.4453 23.8517C25.9928 24.9833 26.6497 26.0694 27.252 27.1827C27.5622 27.7576 27.8636 28.3415 28.2012 28.9894C28.5934 28.4146 28.9769 27.8675 29.3418 27.3019C30.081 26.1428 30.6466 24.9012 31.0664 23.587C31.6413 21.7984 31.5407 20.0098 30.9385 18.2667C30.5826 17.2356 30.0991 16.2497 29.6885 15.2003ZM32.3438 46.923C34.4792 45.8004 36.7156 45.7182 38.9971 46.4757C40.6487 47.0324 42.1909 47.7995 43.4775 49.004C43.5231 49.0494 43.5774 49.0768 43.5957 49.1495C42.9206 48.9032 42.2454 48.6481 41.5703 48.42C39.7543 47.8086 37.892 47.5348 35.9756 47.6261C34.7986 47.6809 33.6945 48.0727 32.5723 48.3829C31.5319 48.675 30.4639 48.8667 29.4053 49.0948C29.2412 49.1313 29.0589 49.1131 28.8857 49.1222L28.8418 49.0196C30.0089 48.3174 31.1401 47.5522 32.3438 46.923ZM28.8418 49.0196L28.8398 49.0216V49.0128L28.8418 49.0196ZM31.9883 40.5167C32.2255 40.4712 32.444 40.6353 32.4805 40.8634C32.5259 41.1006 32.371 41.3197 32.1338 41.3653C31.8968 41.4107 31.6783 41.2465 31.6416 41.0187C31.596 40.7814 31.751 40.5623 31.9883 40.5167ZM25.6641 40.1964C25.9012 40.242 26.0561 40.4613 26.0107 40.6984C25.9742 40.9356 25.7457 41.0916 25.5176 41.046C25.2806 41.0094 25.1256 40.7811 25.1709 40.5441C25.2165 40.3068 25.4359 40.1508 25.6641 40.1964ZM34.7168 39.7775C34.9358 39.6953 35.1825 39.8133 35.2646 40.0323C35.3468 40.2513 35.2277 40.498 35.0088 40.5802C34.7898 40.6623 34.5431 40.5434 34.4609 40.3243C34.379 40.1054 34.4979 39.8596 34.7168 39.7775ZM22.1875 39.5577C22.2698 39.339 22.5155 39.2208 22.7344 39.3028C22.9533 39.3849 23.0721 39.6308 22.9902 39.8497C22.9081 40.0688 22.6614 40.1877 22.4424 40.1056C22.2235 40.0234 22.1054 39.7767 22.1875 39.5577ZM31.6689 38.7189C32.0338 38.6551 32.3804 38.9009 32.4443 39.2657C32.5082 39.6308 32.2615 39.9782 31.8965 40.0421C31.5316 40.1058 31.185 39.8591 31.1211 39.4943C31.0572 39.1292 31.3039 38.7827 31.6689 38.7189ZM26.0654 38.4816C26.4304 38.5455 26.6772 38.8919 26.6133 39.257C26.5494 39.622 26.2019 39.8687 25.8369 39.8048C25.4721 39.7408 25.2262 39.3934 25.29 39.0284C25.354 38.6635 25.7005 38.4177 26.0654 38.4816ZM23.3828 38.4718C23.5107 38.1252 23.8936 37.9427 24.2402 38.0704C24.5869 38.1982 24.7691 38.5811 24.6416 38.9278C24.5139 39.2746 24.1309 39.4578 23.7842 39.3302C23.4374 39.2024 23.2551 38.8186 23.3828 38.4718ZM34.0957 38.0704C34.4425 37.9427 34.8263 38.1251 34.9541 38.4718C35.0818 38.8185 34.8994 39.2023 34.5527 39.3302C34.206 39.458 33.8221 39.2746 33.6943 38.9278C33.5669 38.5813 33.7493 38.1983 34.0957 38.0704ZM20.9092 38.0245C21.0187 37.833 21.2742 37.7605 21.4658 37.879C21.6575 37.9885 21.7309 38.244 21.6123 38.4357C21.5028 38.6273 21.2473 38.6998 21.0557 38.5812C20.864 38.4717 20.7905 38.2162 20.9092 38.0245ZM36.8701 37.879C37.0617 37.7696 37.3172 37.8331 37.4268 38.0245C37.5362 38.2161 37.4726 38.4715 37.2812 38.5812C37.0897 38.6906 36.8342 38.6271 36.7246 38.4357C36.6151 38.2441 36.6787 37.9886 36.8701 37.879ZM32.335 35.7433C32.919 35.5882 33.5213 35.9353 33.6855 36.5284C33.8404 37.1214 33.4939 37.7238 32.9102 37.879C32.3261 38.0342 31.7147 37.687 31.5596 37.0939C31.4044 36.5007 31.7509 35.8984 32.335 35.7433ZM24.3682 36.7198C24.505 36.227 25.0069 35.9257 25.5088 36.0626C26.0015 36.1995 26.2936 36.7105 26.166 37.2032C26.0292 37.696 25.5272 37.9972 25.0254 37.8605C24.5326 37.7236 24.2313 37.2126 24.3682 36.7198ZM18.1348 37.003C18.2899 36.8205 18.5548 36.8023 18.7373 36.9484C18.9197 37.1035 18.9379 37.3674 18.792 37.5499C18.6369 37.7324 18.3729 37.7597 18.1904 37.6046C18.0081 37.4496 17.9892 37.1856 18.1348 37.003ZM39.5898 36.9484C39.7724 36.7932 40.0464 36.8205 40.1924 37.003C40.347 37.1854 40.3197 37.4586 40.1377 37.6046C39.9552 37.7598 39.6903 37.7324 39.5352 37.5499C39.3802 37.3675 39.4075 37.0944 39.5898 36.9484ZM21.4385 36.5734C21.621 36.2541 22.0322 36.1448 22.3516 36.3273C22.6708 36.5098 22.7801 36.921 22.5977 37.2403C22.4151 37.5594 22.0048 37.6686 21.6855 37.4864C21.3661 37.3039 21.256 36.8928 21.4385 36.5734ZM35.9854 36.3273C36.3046 36.145 36.7149 36.2543 36.8975 36.5734C37.08 36.8928 36.9708 37.3039 36.6514 37.4864C36.332 37.6689 35.9208 37.5597 35.7383 37.2403C35.5558 36.9209 35.666 36.5098 35.9854 36.3273ZM18.9561 35.6427C19.1933 35.3598 19.6136 35.3234 19.8965 35.5607C20.1794 35.7979 20.2158 36.227 19.9785 36.5099C19.7413 36.7927 19.3219 36.829 19.0391 36.5919C18.7562 36.3547 18.7189 35.9256 18.9561 35.6427ZM38.4307 35.5607C38.7136 35.3234 39.1338 35.3598 39.3711 35.6427C39.6082 35.9255 39.5717 36.3455 39.2891 36.5919C39.0062 36.8292 38.5859 36.7928 38.3486 36.5099C38.1114 36.227 38.1478 35.8071 38.4307 35.5607ZM23.4551 35.8165C23.5463 35.6159 23.7837 35.5242 23.9844 35.6241C24.1851 35.7154 24.2771 35.9624 24.1768 36.1632C24.0855 36.3639 23.8482 36.4548 23.6475 36.3546C23.4468 36.2634 23.355 36.0172 23.4551 35.8165ZM34.3516 35.6153C34.5522 35.515 34.7895 35.6062 34.8809 35.8068C34.9812 36.0075 34.8902 36.2545 34.6895 36.3458C34.4796 36.4462 34.2416 36.3542 34.1504 36.1534H34.1602C34.06 35.9527 34.1509 35.7066 34.3516 35.6153ZM16.1367 34.8946C16.3192 34.7395 16.5841 34.7668 16.7393 34.9493C16.8942 35.1318 16.867 35.4059 16.6846 35.5519C16.5021 35.7069 16.2372 35.6795 16.082 35.4972C15.9269 35.3147 15.9543 35.0407 16.1367 34.8946ZM41.5879 34.9493C41.743 34.7668 42.0079 34.7486 42.1904 34.8946C42.3729 35.0498 42.3911 35.3147 42.2451 35.4972C42.0899 35.6794 41.825 35.6978 41.6426 35.5519C41.4603 35.3968 41.4421 35.1318 41.5879 34.9493ZM17.5332 34.3927C17.8161 34.1555 18.2354 34.1919 18.4727 34.4747C18.7099 34.7576 18.6735 35.1775 18.3906 35.4239C18.1078 35.661 17.6885 35.6245 17.4512 35.3419C17.2139 35.059 17.2503 34.6391 17.5332 34.3927ZM21.585 34.6573C21.7127 34.4748 21.9591 34.429 22.1416 34.5568C22.3239 34.6845 22.3697 34.9309 22.2422 35.1134C22.1145 35.2958 21.868 35.3415 21.6855 35.214C21.503 35.0862 21.4572 34.8399 21.585 34.6573ZM36.1953 34.548C36.3778 34.4203 36.6242 34.4661 36.752 34.6486C36.8793 34.831 36.8337 35.0775 36.6514 35.2052C36.4689 35.3328 36.2225 35.2869 36.0947 35.1046C35.967 34.9221 36.0128 34.6666 36.1953 34.548ZM22.9355 34.3829C23.0726 34.146 23.3736 34.0736 23.6016 34.2013C23.8387 34.3382 23.9119 34.6392 23.7842 34.8673C23.6473 35.1044 23.3462 35.1774 23.1182 35.0499C22.8809 34.913 22.8078 34.6111 22.9355 34.3829ZM19.8779 33.8722C20.1426 33.6075 20.5811 33.6075 20.8457 33.8722C21.1103 34.1368 21.1103 34.5753 20.8457 34.84C20.5811 35.1046 20.1426 35.1046 19.8779 34.84C19.6133 34.5753 19.6134 34.1368 19.8779 33.8722ZM37.2812 32.6222C37.8014 32.1021 38.6498 32.102 39.1699 32.6222C39.69 33.1424 39.6901 34.0004 39.1699 34.5206C38.6498 35.0405 37.8014 35.0404 37.2812 34.5206C36.7611 34.0004 36.7611 33.1424 37.2812 32.6222ZM40.21 33.7814C40.4472 33.4984 40.8675 33.462 41.1504 33.6993C41.433 33.9367 41.4696 34.3657 41.2324 34.6486C40.9951 34.9312 40.5748 34.9678 40.292 34.7306C40.0093 34.4934 39.973 34.0643 40.21 33.7814ZM34.1689 33.1876C34.5157 32.9869 34.9633 33.1055 35.1641 33.4523C35.3648 33.799 35.246 34.2462 34.8994 34.4562C34.5526 34.6569 34.1051 34.5383 33.9043 34.1915C33.7037 33.8448 33.8222 33.3975 34.1689 33.1876ZM42.5098 32.2111C42.6193 32.0195 42.8748 31.947 43.0664 32.0655C43.258 32.1751 43.3315 32.4305 43.2129 32.6222C43.1034 32.8138 42.8479 32.8863 42.6562 32.7677C42.4646 32.6582 42.3911 32.4027 42.5098 32.2111ZM15.2695 32.0655C15.4611 31.9561 15.7166 32.0197 15.8262 32.2111C15.9356 32.4026 15.872 32.6581 15.6807 32.7677C15.4891 32.8772 15.2336 32.8137 15.124 32.6222C15.0146 32.4306 15.0781 32.1751 15.2695 32.0655ZM25.7002 32.0831C25.828 31.9008 26.0744 31.8558 26.2568 31.9835C26.4393 32.1204 26.4852 32.3664 26.3574 32.5489C26.2297 32.7315 25.9833 32.7773 25.8008 32.6495V32.6407C25.6183 32.513 25.5724 32.2656 25.7002 32.0831ZM16.4473 31.0792C16.7666 30.897 17.1769 31.007 17.3594 31.3263C17.5418 31.6456 17.4325 32.0558 17.1133 32.2384C16.7939 32.4209 16.3827 32.3117 16.2002 31.9923C16.0178 31.6729 16.1279 31.2617 16.4473 31.0792ZM40.9678 31.3263C41.1502 31.007 41.5606 30.8971 41.8799 31.0792C42.1992 31.2617 42.3094 31.6729 42.127 31.9923C41.9444 32.3117 41.5333 32.4209 41.2139 32.2384C40.8948 32.0558 40.7854 31.6456 40.9678 31.3263ZM39.1973 31.5362C39.325 31.3537 39.5714 31.3079 39.7539 31.4357C39.9363 31.5725 39.982 31.8186 39.8545 32.0011C39.7267 32.1836 39.4804 32.2294 39.2979 32.1017V32.0929C39.1154 31.9743 39.0697 31.7188 39.1973 31.5362ZM18.5732 31.4357C18.7558 31.3079 19.0021 31.3537 19.1299 31.5362C19.2575 31.7188 19.2118 31.9743 19.0293 32.0929C18.8468 32.2204 18.6004 32.1747 18.4727 31.9923C18.345 31.8098 18.3908 31.5634 18.5732 31.4357ZM30.7471 30.6417C31.1028 30.4319 31.5586 30.5596 31.7686 30.9152C31.9784 31.2711 31.851 31.7277 31.4951 31.9376C31.1394 32.1473 30.6836 32.0197 30.4736 31.6642C30.2637 31.3083 30.3912 30.8516 30.7471 30.6417ZM21.9043 30.8243C22.1689 30.5597 22.5889 30.5597 22.8535 30.8243C23.1179 31.089 23.1181 31.509 22.8535 31.7736C22.5889 32.0381 22.169 32.038 21.9043 31.7736C21.6397 31.5089 21.6397 31.089 21.9043 30.8243ZM24.0303 30.2491C24.3222 29.7382 24.9792 29.5648 25.4902 29.8566C26.0012 30.1485 26.1746 30.8055 25.8828 31.3165C25.5908 31.8276 24.9339 32.0011 24.4229 31.7091C23.9119 31.417 23.7383 30.7602 24.0303 30.2491ZM33.3291 29.756C33.6484 29.7833 33.8857 30.0665 33.8584 30.3859C33.831 30.7052 33.5488 30.9423 33.2295 30.9152C32.9101 30.8878 32.6728 30.6047 32.7002 30.2853C32.7278 29.9662 33.01 29.7289 33.3291 29.756ZM19.6318 28.8898C20.1427 28.5978 20.7997 28.7706 21.0918 29.2814C21.3838 29.7924 21.2103 30.4499 20.6992 30.7511C20.1882 31.043 19.5312 30.8695 19.2393 30.3585C18.9474 29.8475 19.121 29.1909 19.6318 28.8898ZM13.3721 29.8019C13.591 29.7201 13.8369 29.8389 13.9189 30.0577C14.001 30.2767 13.8829 30.5234 13.6641 30.6056C13.4451 30.6877 13.1984 30.5687 13.1162 30.3497C13.0341 30.1307 13.1531 29.884 13.3721 29.8019ZM44.4082 30.0577C44.4903 29.8387 44.737 29.7197 44.9561 29.8019C45.1749 29.8841 45.293 30.1308 45.2109 30.3497C45.1288 30.5685 44.8829 30.6873 44.6641 30.6056C44.4451 30.5235 44.3262 30.2767 44.4082 30.0577ZM14.7676 29.0353C15.1143 28.9075 15.4981 29.09 15.626 29.4366C15.7537 29.7834 15.5704 30.1673 15.2236 30.295C14.8771 30.4224 14.494 30.2401 14.3662 29.8937C14.2385 29.5469 14.4209 29.1631 14.7676 29.0353ZM42.7012 29.4366C42.829 29.0899 43.2128 28.9075 43.5596 29.0353C43.9063 29.1631 44.0887 29.5469 43.9609 29.8937C43.8331 30.2401 43.4501 30.4225 43.1035 30.295C42.7567 30.1673 42.5734 29.7834 42.7012 29.4366ZM17.5332 29.4913C17.7339 29.3912 17.9713 29.4831 18.0625 29.6837C18.1626 29.8844 18.0708 30.1306 17.8701 30.2218H17.8799C17.67 30.3222 17.4321 30.2312 17.3408 30.0304C17.2404 29.8296 17.3324 29.5826 17.5332 29.4913ZM40.2646 29.6837C40.3559 29.4829 40.5938 29.3909 40.8037 29.4913H40.7939C40.9947 29.5826 41.0867 29.8296 40.9863 30.0304C40.8951 30.231 40.6577 30.322 40.457 30.2218C40.2564 30.1306 40.1646 29.8844 40.2646 29.6837ZM31.6963 29.0724C31.9151 29.0543 32.1154 29.2179 32.1338 29.4366C32.152 29.6557 31.9876 29.8569 31.7686 29.8751C31.5497 29.8931 31.3493 29.7288 31.3311 29.5099C31.3129 29.2909 31.4773 29.0906 31.6963 29.0724ZM41.9688 25.2355C40.8347 28.1048 37.4485 30.5458 33.6768 29.382C34.4431 29.1721 35.2007 28.9072 35.9854 28.7521C38.3853 28.2683 40.3568 27.0733 41.9629 25.2482C41.9662 25.2449 41.9662 25.2392 41.9688 25.2355ZM21.9229 27.1368C22.5615 26.7631 23.3821 26.9915 23.7471 27.63C24.1212 28.2687 23.8935 29.0897 23.2549 29.464C22.6162 29.8381 21.7948 29.6104 21.4297 28.9718C21.0647 28.333 21.2841 27.511 21.9229 27.1368ZM16.4561 26.5167C17.1679 26.3251 17.907 26.7541 18.0986 27.4659C18.2901 28.1868 17.8612 28.9169 17.1494 29.1085C16.4377 29.3 15.6985 28.8711 15.5068 28.1593C15.3152 27.4475 15.7352 26.7084 16.4561 26.5167ZM24.5684 28.132C24.6961 27.9494 24.9435 27.9036 25.126 28.0314C25.3083 28.1592 25.3533 28.4153 25.2256 28.5978C25.0977 28.7799 24.8513 28.825 24.6689 28.6974V28.6886C24.4867 28.5608 24.4409 28.3144 24.5684 28.132ZM31.7324 27.8126C31.8419 27.4203 32.2434 27.1828 32.6357 27.2921C33.028 27.4016 33.2655 27.8031 33.1562 28.1954C33.0468 28.5878 32.6453 28.8253 32.2529 28.7159C31.8606 28.6064 31.623 28.205 31.7324 27.8126ZM42.2549 27.6388C42.5466 27.6663 42.7654 27.931 42.7383 28.2228C42.72 28.5148 42.4551 28.7345 42.1631 28.7071C41.8712 28.6797 41.6525 28.415 41.6797 28.1232C41.6979 27.8311 41.9629 27.6114 42.2549 27.6388ZM34.0957 27.6847C34.3147 27.6664 34.5159 27.8309 34.5342 28.0499C34.5523 28.2689 34.3879 28.4692 34.1689 28.4874C33.9501 28.5056 33.7499 28.342 33.7314 28.1232C33.7132 27.9043 33.8769 27.7031 34.0957 27.6847ZM35.0449 26.964C35.3096 26.4986 35.9031 26.3429 36.3594 26.6075C36.8247 26.8722 36.9794 27.4654 36.7148 27.9308C36.4503 28.3961 35.8576 28.5516 35.4014 28.2872C34.936 28.0226 34.7805 27.4294 35.0449 26.964ZM12.6963 26.9728C12.9335 26.9272 13.1529 27.0914 13.1895 27.3195C13.235 27.5566 13.0707 27.7756 12.8428 27.8214C12.6055 27.867 12.3861 27.7029 12.3496 27.4747C12.304 27.2375 12.4682 27.0184 12.6963 26.9728ZM45.6309 26.9728C45.8681 27.0093 46.0231 27.2375 45.9775 27.4747C45.9319 27.7119 45.7134 27.8668 45.4854 27.8214C45.2481 27.7758 45.093 27.5567 45.1387 27.3195C45.1844 27.0824 45.4029 26.9272 45.6309 26.9728ZM14.2021 26.462C14.567 26.3982 14.9134 26.6441 14.9775 27.0089C15.0414 27.3739 14.7953 27.7213 14.4395 27.7853C14.0744 27.8492 13.7279 27.6025 13.6641 27.2374C13.6002 26.8725 13.8461 26.526 14.2109 26.462H14.2021ZM44.1348 26.462C44.4995 26.5261 44.7457 26.8726 44.6729 27.2374C44.609 27.6023 44.2623 27.8489 43.8975 27.7853C43.5324 27.7214 43.2854 27.374 43.3584 27.0089C43.4225 26.6441 43.7699 26.3982 44.1348 26.462ZM28.082 26.8907C28.301 26.8086 28.5478 26.9276 28.6299 27.1466C28.7118 27.3655 28.5929 27.6114 28.374 27.6935C28.1552 27.7755 27.9094 27.6573 27.8271 27.4386C27.745 27.2196 27.8631 26.9729 28.082 26.8907ZM19.7227 26.3341C20.0786 26.2337 20.4436 26.4528 20.5439 26.8087C20.6352 27.1645 20.426 27.5386 20.0703 27.63C19.7144 27.7304 19.3495 27.5112 19.249 27.1554C19.1578 26.7996 19.367 26.4255 19.7227 26.3341ZM38.6133 26.3341C38.9692 26.4345 39.1791 26.7995 39.0879 27.1554C38.9966 27.5113 38.6225 27.7303 38.2666 27.63C37.9107 27.5296 37.7008 27.1646 37.792 26.8087C37.8832 26.4528 38.2574 26.2428 38.6133 26.3341ZM33.8584 24.1525C34.5975 24.1525 35.2001 24.7551 35.2002 25.4943C35.2002 26.2335 34.5976 26.8361 33.8584 26.8361C33.1194 26.8358 32.5176 26.2333 32.5176 25.4943C32.5177 24.7552 33.1195 24.1527 33.8584 24.1525ZM23.4004 25.421C23.6649 25.1565 24.085 25.1567 24.3496 25.421C24.6142 25.6857 24.6142 26.1056 24.3496 26.3702C24.085 26.6349 23.665 26.6349 23.4004 26.3702C23.1361 26.1056 23.1359 25.6856 23.4004 25.421ZM42.5195 25.6583C42.7384 25.6768 42.902 25.8779 42.8838 26.0968C42.8655 26.3157 42.6652 26.4802 42.4463 26.462C42.2273 26.4438 42.0628 26.2426 42.0811 26.0236C42.0994 25.8046 42.3006 25.6401 42.5195 25.6583ZM27.79 24.0978C28.3375 23.7784 29.0399 23.9704 29.3594 24.5177C29.6788 25.0652 29.4879 25.7686 28.9404 26.088C28.3929 26.4074 27.6895 26.2156 27.3701 25.6681C27.0507 25.1205 27.2425 24.4172 27.79 24.0978ZM16.5293 25.2023C16.7482 25.1841 16.9486 25.3485 16.9668 25.5675C16.985 25.7864 16.8213 25.9875 16.6025 26.006C16.3836 26.0242 16.1825 25.8596 16.1641 25.6407C16.1458 25.4217 16.3103 25.2205 16.5293 25.2023ZM21.5752 23.1486C22.3143 23.1486 22.9169 23.7512 22.917 24.4903C22.917 25.2296 22.3144 25.8321 21.5752 25.8321C20.8362 25.8319 20.2344 25.2294 20.2344 24.4903C20.2345 23.7513 20.8363 23.1488 21.5752 23.1486ZM36.7607 23.1486C37.4999 23.1486 38.1024 23.7512 38.1025 24.4903C38.1025 25.2296 37.4999 25.8321 36.7607 25.8321C36.0216 25.8321 35.4189 25.2296 35.4189 24.4903C35.419 23.7512 36.0216 23.1486 36.7607 23.1486ZM18.7744 23.423C19.3674 23.4232 19.8418 23.907 19.8418 24.5001C19.8415 25.093 19.3581 25.5761 18.7744 25.5763C18.1905 25.5763 17.7063 25.0931 17.7061 24.5001C17.7061 23.9069 18.1904 23.423 18.7744 23.423ZM39.5625 23.423C40.1556 23.423 40.6299 23.9069 40.6299 24.5001C40.6296 25.0931 40.1463 25.5762 39.5625 25.5763C38.9786 25.5763 38.4954 25.0931 38.4951 24.5001C38.4951 23.9069 38.9785 23.423 39.5625 23.423ZM41.4424 24.4903C41.6613 24.4722 41.8616 24.6366 41.8799 24.8556C41.8981 25.0745 41.7345 25.2756 41.5156 25.2941C41.2967 25.3123 41.0955 25.1477 41.0771 24.9288C41.0589 24.7098 41.2234 24.5086 41.4424 24.4903ZM14.8682 23.8243C15.2423 23.8243 15.5342 24.1259 15.5342 24.5001C15.5339 24.8741 15.233 25.1661 14.8682 25.1661C14.5033 25.1661 14.2024 24.8649 14.2021 24.5001C14.2021 24.1351 14.5032 23.8244 14.8682 23.8243ZM43.459 23.8243C43.8331 23.8243 44.125 24.1259 44.125 24.5001C44.1248 24.8741 43.8239 25.1661 43.459 25.1661C43.0941 25.1661 42.7932 24.8649 42.793 24.5001C42.793 24.1351 43.094 23.8244 43.459 23.8243ZM13.3535 24.089C13.5816 24.0891 13.7637 24.272 13.7637 24.5001C13.7634 24.728 13.5814 24.9102 13.3535 24.9103C13.1255 24.9103 12.9426 24.7281 12.9424 24.5001C12.9424 24.272 13.1254 24.089 13.3535 24.089ZM44.9834 24.089C45.2114 24.0892 45.3936 24.2721 45.3936 24.5001C45.3933 24.7279 45.2112 24.9101 44.9834 24.9103C44.7554 24.9103 44.5725 24.7281 44.5723 24.5001C44.5723 24.272 44.7553 24.089 44.9834 24.089ZM26.4121 23.4962C26.6037 23.3867 26.8592 23.4502 26.9688 23.6417C27.0782 23.8333 27.0146 24.0887 26.8232 24.1984C26.6318 24.3078 26.3763 24.2442 26.2666 24.0528C26.1571 23.8613 26.2207 23.6058 26.4121 23.4962ZM29.7979 22.6466C30.1172 22.4642 30.5275 22.5743 30.71 22.8937C30.8925 23.2131 30.7833 23.6233 30.4639 23.8058C30.1445 23.9883 29.7343 23.879 29.5518 23.5597C29.3692 23.2403 29.4785 22.8291 29.7979 22.6466ZM16.6025 22.9845C16.8213 23.003 16.985 23.2041 16.9668 23.423C16.9484 23.6418 16.7481 23.8063 16.5293 23.7882C16.3103 23.7699 16.1458 23.5688 16.1641 23.3497C16.1823 23.1307 16.3835 22.9662 16.6025 22.9845ZM41.5879 22.9757C41.8069 22.9574 42.0081 23.1219 42.0264 23.3409C42.0444 23.5598 41.88 23.7602 41.6611 23.7784C41.4422 23.7966 41.2419 23.6322 41.2236 23.4132C41.2056 23.1945 41.3692 22.9942 41.5879 22.9757ZM33.3115 21.6984C33.7494 21.4429 34.3147 21.5975 34.5703 22.0353C34.8257 22.4823 34.6711 23.0482 34.2334 23.3038C33.7955 23.5593 33.2293 23.4047 32.9736 22.9669C32.7181 22.5197 32.8735 21.9539 33.3115 21.6984ZM22.9355 22.6739C23.0634 22.4918 23.3098 22.4467 23.4922 22.5743C23.6745 22.7022 23.7205 22.9485 23.5928 23.131C23.4651 23.3133 23.2186 23.3589 23.0361 23.2316C22.8536 23.1038 22.8078 22.8565 22.9355 22.6739ZM28.1191 22.3097C28.3016 22.182 28.548 22.2269 28.6758 22.4093C28.8035 22.5918 28.7577 22.8391 28.5752 22.9669C28.3928 23.0945 28.1463 23.0486 28.0186 22.8663C27.8908 22.6838 27.9366 22.4283 28.1191 22.3097ZM25.9834 20.8487C26.4578 20.5752 27.069 20.7397 27.3428 21.214C27.6165 21.6885 27.4529 22.3005 26.9785 22.5743C26.504 22.8481 25.8919 22.6836 25.6182 22.2091C25.3444 21.7345 25.5089 21.1225 25.9834 20.8487ZM20.0703 21.3507C20.4259 21.4512 20.635 21.8163 20.5439 22.172C20.4527 22.5279 20.0786 22.747 19.7227 22.6466C19.3671 22.546 19.1578 22.1811 19.249 21.8253C19.3405 21.4697 19.7146 21.2595 20.0703 21.3507ZM38.2666 21.3507C38.6223 21.2505 38.9874 21.4696 39.0879 21.8253C39.1791 22.1812 38.9691 22.5553 38.6133 22.6466C38.2574 22.747 37.8924 22.5279 37.792 22.172C37.701 21.8162 37.9108 21.4419 38.2666 21.3507ZM14.4307 21.2052C14.7953 21.2693 15.0416 21.6158 14.9688 21.9806C14.9049 22.3455 14.5582 22.592 14.1934 22.5284C13.8285 22.4646 13.5816 22.1179 13.6543 21.753C13.7182 21.388 14.0656 21.1413 14.4307 21.2052ZM43.8975 21.2052C44.2624 21.1415 44.609 21.3881 44.6729 21.753C44.7365 22.1178 44.4903 22.4644 44.1348 22.5284C43.7697 22.5923 43.4223 22.3456 43.3584 21.9806C43.2947 21.6156 43.5413 21.2691 43.9062 21.2052H43.8975ZM15.5068 20.8214C15.6986 20.1098 16.4287 19.6808 17.1494 19.8722C17.8612 20.0638 18.2903 20.8039 18.0986 21.5157C17.9068 22.2273 17.1768 22.6565 16.4561 22.465C15.7442 22.2733 15.3152 21.5333 15.5068 20.8214ZM41.1865 19.8722C41.8982 19.6806 42.6373 20.1098 42.8291 20.8214C43.0207 21.5333 42.6008 22.2733 41.8799 22.465C41.1683 22.6562 40.429 22.2273 40.2373 21.5157C40.0457 20.7948 40.4748 20.0639 41.1865 19.8722ZM12.8428 21.1681C13.0797 21.2138 13.2347 21.4331 13.1895 21.67C13.1438 21.9073 12.9244 22.0633 12.6963 22.0177C12.4591 21.9812 12.3042 21.7529 12.3496 21.5157C12.3861 21.2785 12.6146 21.1225 12.8428 21.1681ZM45.4854 21.1681C45.7224 21.1228 45.9411 21.2877 45.9775 21.5157C46.023 21.7529 45.8589 21.9721 45.6309 22.0177C45.3937 22.0541 45.1752 21.8981 45.1387 21.67C45.0933 21.4329 45.2573 21.2137 45.4854 21.1681ZM34.9629 19.4161C35.6017 19.042 36.4231 19.2705 36.7881 19.9093C37.1622 20.5481 36.9337 21.3691 36.2949 21.7433C35.6563 22.1172 34.8358 21.8895 34.4707 21.2511C34.0966 20.6123 34.3241 19.7903 34.9629 19.4161ZM29.1592 19.8361C29.6885 19.5259 30.3636 19.7088 30.6738 20.2472C30.9748 20.7765 30.8017 21.4516 30.2725 21.7618C29.7432 22.0721 29.0681 21.8891 28.7578 21.3507C28.4568 20.8214 28.6299 20.1372 29.1592 19.8361ZM21.6484 20.1368C21.9497 19.6168 22.6069 19.4441 23.127 19.7452C23.647 20.0464 23.8207 20.7036 23.5195 21.2237C23.2183 21.7437 22.5611 21.9165 22.041 21.6153C21.521 21.3141 21.3473 20.657 21.6484 20.1368ZM32.9375 19.5987C33.2021 19.3344 33.6212 19.3344 33.8857 19.5987C34.1504 19.8634 34.1504 20.2833 33.8857 20.548C33.6211 20.8124 33.2021 20.8124 32.9375 20.548C32.6729 20.2833 32.6729 19.8634 32.9375 19.5987ZM19.2393 18.7501C19.5312 18.2391 20.1882 18.0566 20.6992 18.3575C21.2103 18.6496 21.3838 19.3071 21.0918 19.8273C20.7997 20.3381 20.1428 20.5208 19.6318 20.2198C19.1208 19.9278 18.9473 19.2703 19.2393 18.7501ZM37.6279 18.3575C38.1389 18.0565 38.7959 18.2391 39.0879 18.7501C39.3799 19.2612 39.2063 19.9187 38.6953 20.2198C38.1844 20.5207 37.5274 20.3381 37.2354 19.8273C36.9433 19.3162 37.1169 18.6587 37.6279 18.3575ZM25.5908 19.4073C25.7915 19.307 26.0288 19.3981 26.1201 19.5987C26.2205 19.7994 26.1293 20.0455 25.9287 20.1368C25.7279 20.2372 25.4907 20.1462 25.3994 19.9454C25.2992 19.7447 25.3902 19.4986 25.5908 19.4073ZM27.2793 19.0148C27.5439 18.7502 27.9639 18.7501 28.2285 19.0148C28.493 19.2794 28.493 19.6994 28.2285 19.964C27.9639 20.2286 27.5439 20.2285 27.2793 19.964C27.0147 19.6993 27.0147 19.2794 27.2793 19.0148ZM14.3662 19.0968C14.4939 18.7502 14.877 18.568 15.2236 18.6954C15.5703 18.8231 15.7534 19.2062 15.626 19.5528C15.4982 19.8996 15.1144 20.083 14.7676 19.9552C14.4209 19.8274 14.2385 19.4436 14.3662 19.0968ZM43.1035 18.6954C43.4502 18.5679 43.8332 18.7502 43.9609 19.0968C44.0887 19.4436 43.9063 19.8274 43.5596 19.9552C43.2128 20.0829 42.8289 19.8996 42.7012 19.5528C42.5738 19.2062 42.7569 18.8231 43.1035 18.6954ZM17.3408 18.9601C17.4321 18.7593 17.67 18.6683 17.8799 18.7687H17.8701C18.0708 18.8599 18.1628 19.106 18.0625 19.3068C17.9713 19.5075 17.7339 19.5985 17.5332 19.4982C17.3325 19.4069 17.2406 19.1608 17.3408 18.9601ZM40.457 18.7687C40.6578 18.6684 40.8951 18.7593 40.9863 18.9601C41.0866 19.1608 40.9946 19.4069 40.7939 19.4982H40.8037C40.5938 19.5985 40.3559 19.5075 40.2646 19.3068C40.1644 19.106 40.2563 18.8599 40.457 18.7687ZM13.125 18.6407C13.2071 18.4217 13.4538 18.3027 13.6729 18.3849C13.8918 18.467 14.0108 18.7137 13.9287 18.9327C13.8466 19.1517 13.5998 19.2705 13.3809 19.1886C13.1619 19.1065 13.043 18.8597 13.125 18.6407ZM44.6641 18.3849C44.883 18.303 45.1289 18.4218 45.2109 18.6407C45.293 18.8597 45.1749 19.1064 44.9561 19.1886C44.7371 19.2707 44.4904 19.1517 44.4082 18.9327C44.3261 18.7137 44.445 18.467 44.6641 18.3849ZM29.7705 18.3302C29.9712 18.2299 30.2085 18.321 30.2998 18.5216C30.4002 18.7223 30.3091 18.9694 30.1084 19.0607H30.1172C29.9073 19.1609 29.6703 19.069 29.5791 18.8683C29.4789 18.6676 29.5698 18.4214 29.7705 18.3302ZM32.4443 17.3263C32.7273 16.8244 33.3663 16.6606 33.8682 16.9435C34.3697 17.2355 34.5336 17.8645 34.251 18.3663C33.9681 18.8683 33.3291 19.033 32.8271 18.7501C32.3346 18.458 32.1615 17.8281 32.4443 17.3263ZM26.2207 17.6368C26.4945 17.4817 26.841 17.573 26.9961 17.8468C27.1512 18.1206 27.0599 18.467 26.7861 18.6222C26.5124 18.7772 26.1659 18.686 26.0107 18.4122C25.8557 18.1385 25.947 17.792 26.2207 17.6368ZM22.2695 17.2716C22.5341 17.0072 22.9532 17.0073 23.2178 17.2716C23.4824 17.5363 23.4824 17.9562 23.2178 18.2208C22.9532 18.4852 22.5341 18.4852 22.2695 18.2208C22.0049 17.9562 22.0049 17.5363 22.2695 17.2716ZM35.4834 17.2081C35.748 16.9435 36.168 16.9435 36.4326 17.2081C36.6969 17.4728 36.6971 17.8928 36.4326 18.1573C36.1681 18.4219 35.748 18.4217 35.4834 18.1573C35.2188 17.8927 35.2188 17.4728 35.4834 17.2081ZM28.7031 15.8849C29.287 15.8851 29.7617 16.3595 29.7617 16.9435C29.7615 17.5273 29.2869 18.0019 28.7031 18.0021C28.1192 18.0021 27.6447 17.5274 27.6445 16.9435C27.6445 16.3594 28.1191 15.8849 28.7031 15.8849ZM16.21 16.9884C16.3926 16.6693 16.8028 16.56 17.1221 16.7423C17.4415 16.9248 17.5517 17.336 17.3691 17.6554C17.1866 17.9747 16.7754 18.084 16.4561 17.9015C16.1367 17.719 16.0274 17.3078 16.21 16.9884ZM41.2139 16.7423C41.5332 16.5598 41.9444 16.6691 42.127 16.9884C42.3095 17.3078 42.1993 17.719 41.8799 17.9015C41.5606 18.0836 41.1503 17.9744 40.9678 17.6554C40.7853 17.336 40.8946 16.9249 41.2139 16.7423ZM18.4727 16.9982C18.6004 16.8157 18.8468 16.7699 19.0293 16.8976C19.2118 17.0253 19.2576 17.2717 19.1299 17.4542C19.0021 17.6367 18.7557 17.6825 18.5732 17.5548C18.3908 17.4271 18.3452 17.1807 18.4727 16.9982ZM39.2979 16.8888C39.4803 16.7611 39.7267 16.806 39.8545 16.9884C39.9822 17.1709 39.9363 17.4172 39.7539 17.545C39.5715 17.6728 39.3251 17.6278 39.1973 17.4454C39.0695 17.2629 39.1154 17.0166 39.2979 16.8888ZM19.3672 14.6886C19.8873 14.1687 20.7357 14.1688 21.2559 14.6886C21.776 15.2088 21.776 16.0668 21.2559 16.587C20.7357 17.1071 19.8873 17.1072 19.3672 16.587C18.8471 16.0668 18.847 15.2088 19.3672 14.6886ZM15.1143 16.3595C15.2237 16.1679 15.4793 16.0946 15.6709 16.213C15.8625 16.3225 15.9359 16.578 15.8174 16.7696C15.7079 16.9612 15.4524 17.0345 15.2607 16.9161C15.0693 16.8067 14.9961 16.5511 15.1143 16.3595ZM42.6562 16.213C42.8479 16.1036 43.1034 16.1679 43.2129 16.3595C43.322 16.5511 43.2579 16.8067 43.0664 16.9161C42.8748 17.0254 42.6192 16.9612 42.5098 16.7696C42.4004 16.578 42.4647 16.3225 42.6562 16.213ZM37.2715 14.4698C37.7916 13.9496 38.641 13.9496 39.1611 14.4698C39.6812 14.99 39.6812 15.8481 39.1611 16.3683C38.641 16.8885 37.7916 16.8885 37.2715 16.3683C36.7515 15.8481 36.7515 14.99 37.2715 14.4698ZM23.4375 14.5431C23.9485 14.2511 24.6055 14.4246 24.8975 14.9357C25.1892 15.4467 25.0158 16.1033 24.5049 16.4044C23.9938 16.7056 23.3369 16.5229 23.0449 16.0118C22.7531 15.5008 22.9265 14.8442 23.4375 14.5431ZM33.4395 14.9357C33.7315 14.4246 34.3884 14.2419 34.8994 14.5431C35.4101 14.8442 35.5836 15.4918 35.292 16.0118C35 16.5229 34.3421 16.7056 33.8311 16.4044C33.3203 16.1123 33.1476 15.4557 33.4395 14.9357ZM26.5039 14.5431C26.8597 14.4429 27.2248 14.6619 27.3252 15.0177C27.4162 15.3734 27.2062 15.7476 26.8506 15.839C26.4947 15.9394 26.1298 15.7202 26.0293 15.3644C25.938 15.0084 26.148 14.6343 26.5039 14.5431ZM31.8242 14.5431C32.1798 14.6345 32.3891 15.0086 32.2979 15.3644C32.2065 15.7202 31.8324 15.9302 31.4766 15.839C31.1209 15.7385 30.9118 15.3735 31.0029 15.0177C31.0942 14.6618 31.4683 14.4518 31.8242 14.5431ZM17.1045 14.3419C17.3418 14.0593 17.7612 14.0228 18.0439 14.2599C18.3268 14.4972 18.3632 14.9262 18.126 15.2091C17.8887 15.4919 17.4694 15.5283 17.1865 15.2911C16.9036 15.0538 16.8672 14.6248 17.1045 14.3419ZM40.2832 14.2599C40.5661 14.0226 40.9864 14.059 41.2236 14.3419C41.4608 14.6247 41.4242 15.0447 41.1416 15.2911C40.8587 15.5284 40.4384 15.492 40.2012 15.2091C39.9639 14.9262 40.0003 14.4972 40.2832 14.2599ZM29.168 12.9913C29.752 12.9913 30.2363 13.4753 30.2363 14.0685C30.2363 14.6616 29.752 15.1456 29.168 15.1456C28.5841 15.1455 28.1007 14.6615 28.1006 14.0685C28.1006 13.4753 28.584 12.9915 29.168 12.9913ZM21.6855 13.7765C21.868 13.6489 22.1145 13.6946 22.2422 13.8771C22.3696 14.0596 22.324 14.3152 22.1416 14.4337C21.9592 14.5614 21.7128 14.5155 21.585 14.3331C21.4572 14.1506 21.503 13.8951 21.6855 13.7765ZM36.0947 13.8771C36.2225 13.6945 36.4689 13.6487 36.6514 13.7765C36.8337 13.8952 36.8796 14.1506 36.752 14.3331C36.6243 14.5155 36.3778 14.5612 36.1953 14.4337C36.0129 14.306 35.9671 14.0596 36.0947 13.8771ZM41.6426 13.4386C41.825 13.2835 42.09 13.3109 42.2451 13.4933C42.4003 13.6758 42.3729 13.9498 42.1904 14.0958C42.0079 14.2508 41.743 14.2236 41.5879 14.0411C41.4329 13.8587 41.4603 13.5846 41.6426 13.4386ZM16.082 13.4933C16.2372 13.3109 16.5021 13.2835 16.6846 13.4386C16.8669 13.5938 16.8852 13.8587 16.7393 14.0411C16.5841 14.2236 16.3192 14.2418 16.1367 14.0958C15.9542 13.9407 15.936 13.6758 16.082 13.4933ZM19.0479 12.3986C19.3307 12.1522 19.75 12.1977 19.9873 12.4806C20.2246 12.7635 20.1882 13.1925 19.9053 13.4298C19.6225 13.6667 19.203 13.6303 18.9658 13.3478C18.7286 13.0649 18.7651 12.645 19.0479 12.3986ZM38.3486 12.4806C38.5859 12.1977 39.0062 12.1613 39.2891 12.3986C39.5716 12.6359 39.6082 13.065 39.3711 13.3478C39.1338 13.6306 38.7135 13.667 38.4307 13.4298C38.1478 13.1926 38.1115 12.7635 38.3486 12.4806ZM25.5 10.8009C26.2117 10.6095 26.9509 11.0384 27.1426 11.7501C27.3342 12.471 26.9142 13.201 26.1934 13.3927C25.4816 13.5843 24.7424 13.1553 24.5508 12.4435C24.3594 11.7317 24.7883 10.9925 25.5 10.8009ZM31.1846 11.7501C31.3762 11.0384 32.1064 10.6096 32.8271 10.8009C33.5389 10.9925 33.9678 11.7317 33.7764 12.4435C33.5847 13.1553 32.8547 13.5843 32.1338 13.3927C31.4222 13.2009 30.993 12.4619 31.1846 11.7501ZM23.6475 12.6359C23.8482 12.5356 24.0855 12.6265 24.1768 12.8273C24.277 13.028 24.1851 13.2741 23.9844 13.3653C23.7837 13.4656 23.5463 13.3746 23.4551 13.1739C23.3548 12.9732 23.4468 12.7271 23.6475 12.6359ZM34.1504 12.8273C34.2416 12.6265 34.4796 12.5355 34.6895 12.6359C34.89 12.7272 34.9812 12.9733 34.8809 13.1739C34.7896 13.3747 34.5523 13.4657 34.3516 13.3653C34.1509 13.274 34.0598 13.028 34.1602 12.8273H34.1504ZM21.6855 11.4943C22.0049 11.3122 22.4152 11.4221 22.5977 11.7413C22.78 12.0606 22.6707 12.4708 22.3516 12.6534C22.0322 12.836 21.621 12.7268 21.4385 12.4073C21.2561 12.0879 21.3662 11.6768 21.6855 11.4943ZM35.7383 11.7413C35.9208 11.422 36.332 11.3118 36.6514 11.4943C36.9708 11.6768 37.08 12.0879 36.8975 12.4073C36.7149 12.7267 36.3047 12.8359 35.9854 12.6534C35.6661 12.471 35.556 12.0607 35.7383 11.7413ZM28.0273 11.4581C28.2464 11.4399 28.4476 11.6043 28.4658 11.8234C28.484 12.0423 28.3195 12.2425 28.1006 12.2609C27.8817 12.2791 27.6805 12.1155 27.6621 11.8966C27.6439 11.6776 27.8084 11.4764 28.0273 11.4581ZM30.3086 11.4581C30.5276 11.4764 30.6921 11.6776 30.6738 11.8966C30.6554 12.1153 30.4551 12.2789 30.2363 12.2609C30.0173 12.2426 29.8529 12.0424 29.8711 11.8234C29.8893 11.6044 30.0897 11.4401 30.3086 11.4581ZM18.1904 11.3761C18.3729 11.2212 18.6369 11.2485 18.792 11.4308C18.9471 11.6133 18.9198 11.8873 18.7373 12.0333C18.5548 12.1883 18.2807 12.1611 18.1348 11.9786C17.9797 11.7961 18.0079 11.5221 18.1904 11.3761ZM39.5352 11.4308C39.6903 11.2484 39.9552 11.221 40.1377 11.3761C40.32 11.5313 40.3383 11.7962 40.1924 11.9786C40.0373 12.1611 39.7724 12.1884 39.5898 12.0333C39.4073 11.8782 39.3891 11.6133 39.5352 11.4308ZM36.7246 10.5548C36.8341 10.3632 37.0896 10.2897 37.2812 10.4083C37.4728 10.5178 37.5452 10.7734 37.4268 10.965C37.3172 11.1566 37.0618 11.2301 36.8701 11.1114C36.6786 11.0019 36.606 10.7464 36.7246 10.5548ZM21.0557 10.4083C21.2473 10.2991 21.5029 10.3633 21.6123 10.5548C21.7217 10.7464 21.6574 11.002 21.4658 11.1114C21.2742 11.2208 21.0186 11.1565 20.9092 10.965C20.8 10.7734 20.8642 10.5177 21.0557 10.4083ZM23.7842 9.65148C24.1309 9.52375 24.5138 9.70608 24.6416 10.0528C24.7694 10.3996 24.587 10.7825 24.2402 10.9103C23.8935 11.038 23.5106 10.8557 23.3828 10.5089C23.2551 10.1621 23.4374 9.77924 23.7842 9.65148ZM33.6943 10.0528C33.8221 9.70605 34.206 9.52371 34.5527 9.65148C34.8992 9.77937 35.0816 10.1623 34.9541 10.5089C34.8263 10.8557 34.4425 11.038 34.0957 10.9103C33.7493 10.7824 33.5667 10.3995 33.6943 10.0528ZM29.168 9.48742C29.533 9.48742 29.8339 9.78808 29.834 10.1622C29.834 10.5364 29.533 10.838 29.168 10.838C28.803 10.8379 28.502 10.5363 28.502 10.1622C28.502 9.78816 28.8031 9.48755 29.168 9.48742ZM26.4307 8.93957C26.7956 8.87577 27.1422 9.12241 27.2061 9.48742C27.2697 9.85231 27.0231 10.199 26.6582 10.2628C26.2933 10.3264 25.9467 10.0799 25.8828 9.71496C25.819 9.34997 26.0657 9.00344 26.4307 8.93957ZM31.8965 8.93957C32.2615 9.00344 32.5081 9.34996 32.4443 9.71496C32.3805 10.0799 32.0339 10.3265 31.6689 10.2628C31.3041 10.199 31.0575 9.8523 31.1211 9.48742C31.185 9.12245 31.5316 8.87585 31.8965 8.93957ZM23.3281 8.41027C23.5469 8.32838 23.7927 8.44651 23.875 8.66515C23.9571 8.88406 23.8389 9.13073 23.6201 9.213C23.4011 9.29514 23.1544 9.17618 23.0723 8.95715C22.9904 8.73822 23.1092 8.49236 23.3281 8.41027ZM34.4609 8.66515C34.5432 8.44633 34.7899 8.32817 35.0088 8.41027C35.2275 8.49241 35.3463 8.73832 35.2646 8.95715C35.1825 9.17614 34.9358 9.29507 34.7168 9.213C34.4978 9.13087 34.3788 8.88418 34.4609 8.66515ZM29.1592 8.22765C29.3871 8.22771 29.5691 8.40987 29.5693 8.63781C29.5693 8.86593 29.3873 9.04889 29.1592 9.04894C28.931 9.04894 28.748 8.86597 28.748 8.63781C28.7483 8.40984 28.9312 8.22765 29.1592 8.22765ZM32.125 7.6339C32.3621 7.67951 32.5171 7.89872 32.4717 8.13586C32.4261 8.37314 32.2067 8.52914 31.9785 8.48351C31.7416 8.43778 31.5865 8.21856 31.6318 7.98156C31.6683 7.74428 31.8969 7.58828 32.125 7.6339ZM26.2021 7.6339C26.4394 7.58827 26.6588 7.7534 26.6953 7.98156C26.7406 8.2186 26.5765 8.43783 26.3486 8.48351C26.1114 8.52914 25.892 8.36401 25.8555 8.13586C25.8101 7.89877 25.9742 7.67956 26.2021 7.6339Z" fill="white"/>
</svg>
