<svg width="31" height="41" viewBox="0 0 31 41" fill="none" xmlns="http://www.w3.org/2000/svg">
<path opacity="0.81" d="M18.7807 33.1038C22.7658 33.5805 25.6312 34.9017 25.6312 36.4569C25.6312 38.4137 21.0953 40 15.5 40C9.90481 40 5.36893 38.4137 5.36893 36.4569C5.36893 34.89 8.27755 33.5606 12.3096 33.0932M22.3401 14.1282C22.3401 17.8999 19.2777 20.9575 15.5 20.9575C11.7224 20.9575 8.66002 17.8999 8.66002 14.1282C8.66002 10.3565 11.7224 7.29885 15.5 7.29885C19.2777 7.29885 22.3401 10.3565 22.3401 14.1282ZM30 15.4773C30 26.9691 15.5 35.3322 15.5 35.3322C15.5 35.3322 1 26.5617 1 15.4773C1 7.48172 7.49185 1 15.5 1C23.5082 1 30 7.48172 30 15.4773Z" stroke="white" stroke-width="2" stroke-miterlimit="10"/>
</svg>
