<svg width="37" height="37" viewBox="0 0 37 37" fill="none" xmlns="http://www.w3.org/2000/svg">
<path opacity="0.84" d="M30.6452 2.45236H32.3671C34.7793 2.45236 36.5208 4.76112 35.8581 7.08048L32.9672 17.1987C32.0226 20.5049 29.0007 22.7843 25.5622 22.7843C22.1237 22.7843 19.1018 20.5049 18.1572 17.1987L15.2663 7.08048C14.6036 4.76112 16.3452 2.45236 18.7573 2.45236H20.4792M20.4789 1V3.90456M30.6447 1V3.90456M22.1442 21.9785L25.5621 30.0456M25.5621 30.0456L28.9799 21.9785M25.5621 30.0456L25.5621 31.053C25.5621 33.7851 23.3472 36 20.615 36C17.8829 36 15.668 33.7851 15.668 31.053V23.583C15.668 20.7357 13.3597 18.4274 10.5124 18.4274C7.66507 18.4274 5.35683 20.7357 5.35683 23.583V27.1411M5.35683 27.1411C7.76303 27.1411 9.71365 29.0918 9.71365 31.498C9.71365 33.9042 7.76303 35.8548 5.35683 35.8548C2.95062 35.8548 1 33.9042 1 31.498C1 29.0918 2.95062 27.1411 5.35683 27.1411ZM4.26762 31.498C4.26762 32.0995 4.75529 32.5872 5.35683 32.5872C5.95836 32.5872 6.44603 32.0995 6.44603 31.498C6.44603 30.8964 5.95836 30.4088 5.35683 30.4088C4.75529 30.4088 4.26762 30.8964 4.26762 31.498Z" stroke="white" stroke-width="2" stroke-miterlimit="10" stroke-linecap="round" stroke-linejoin="round"/>
</svg>
