<svg width="130" height="85" viewBox="0 0 130 85" fill="none" xmlns="http://www.w3.org/2000/svg">
<g clip-path="url(#clip0_219_2457)">
<path d="M0 63.5555V42.8926H7.33461L11.7066 56.1166H11.8505L16.1932 42.8926H23.4132V63.5555H18.2635V50.2416H18.1196L13.6892 63.5555H9.71954L5.2891 50.2416H5.14524V63.5555H0Z" fill="black"/>
<path d="M36.1606 63.8485C34.4163 63.8485 32.89 63.4748 31.5863 62.7275C30.2826 61.9801 29.28 60.9075 28.581 59.5097C27.8797 58.1118 27.5312 56.4395 27.5312 54.4927V42.8926H32.7664V54.4927C32.7664 55.4961 32.9103 56.3334 33.198 57.0023C33.4857 57.6713 33.8836 58.1787 34.3916 58.5224C34.8996 58.8661 35.4885 59.0391 36.1606 59.0391C36.8327 59.0391 37.4441 58.8661 37.9431 58.5224C38.4421 58.1787 38.8355 57.6713 39.1232 57.0023C39.4109 56.3334 39.5548 55.4961 39.5548 54.4927V42.8926H44.7607V54.4927C44.7607 56.4418 44.4101 58.1142 43.711 59.5097C43.0097 60.9075 42.0184 61.9801 40.7327 62.7275C39.4469 63.4748 37.9229 63.8485 36.1584 63.8485H36.1606Z" fill="black"/>
<path d="M77.0122 63.8485C75.2679 63.8485 73.7416 63.4748 72.4379 62.7275C71.1341 61.9801 70.1316 60.9075 69.4325 59.5097C68.7312 58.1118 68.3828 56.4395 68.3828 54.4927V42.8926H73.618V54.4927C73.618 55.4961 73.7618 56.3334 74.0495 57.0023C74.3373 57.6713 74.7351 58.1787 75.2431 58.5224C75.7511 58.8661 76.3401 59.0391 77.0122 59.0391C77.6843 59.0391 78.2957 58.8661 78.7947 58.5224C79.2937 58.1787 79.6871 57.6713 79.9748 57.0023C80.2625 56.3334 80.4064 55.4961 80.4064 54.4927V42.8926H85.6123V54.4927C85.6123 56.4418 85.2616 58.1142 84.5626 59.5097C83.8612 60.9075 82.87 61.9801 81.5842 62.7275C80.2985 63.4748 78.7744 63.8485 77.0099 63.8485H77.0122Z" fill="black"/>
<path d="M89.7891 63.5555V42.8926H96.4044L102.963 55.8213H103.107V42.8926H108.228V63.5555H101.613L95.0827 50.6268H94.9388V63.5555H89.7891Z" fill="black"/>
<path d="M112.484 63.5555V42.8926H120.711C122.629 42.8926 124.292 43.3101 125.702 44.1474C127.111 44.9847 128.179 46.1796 128.909 47.7342C129.637 49.2889 130.002 51.1181 130.002 53.2241C130.002 55.33 129.637 57.1592 128.909 58.7139C128.181 60.2686 127.111 61.4634 125.702 62.3007C124.292 63.138 122.629 63.5555 120.711 63.5555H112.484ZM120.509 58.7439C121.276 58.7439 121.981 58.5224 122.624 58.0796C123.267 57.6367 123.789 57.0023 124.191 56.1766C124.593 55.3508 124.796 54.3658 124.796 53.2241C124.796 52.0823 124.593 51.0996 124.191 50.2715C123.789 49.4458 123.265 48.8114 122.624 48.3686C121.981 47.9257 121.276 47.7042 120.509 47.7042H117.72V58.7439H120.509Z" fill="black"/>
<path d="M66.8425 42.8574H60.5374L53.6658 50.3517V42.8574H48.9297V63.4812H53.6658V56.4989L55.3899 54.7551L60.9937 63.4812H66.8155L58.7863 51.1244L66.8425 42.8574Z" fill="black"/>
<path d="M35.5351 85.0007L31.5901 79.1234C32.0037 79.0242 32.4039 78.8651 32.7882 78.6436C33.4851 78.24 34.0493 77.6656 34.4786 76.9206C34.9079 76.1755 35.1215 75.3082 35.1215 74.3256C35.1215 73.3429 34.9102 72.4526 34.4898 71.7075C34.0672 70.9625 33.4828 70.3789 32.7343 69.9614C31.9858 69.5439 31.1091 69.334 30.1066 69.334H23.7812V84.9984H26.573V79.248H28.5736L32.3971 84.9984H35.5373L35.5351 85.0007ZM26.573 71.8851H29.9313C30.6573 71.8851 31.2395 72.1043 31.6756 72.5448C32.1116 72.9854 32.3297 73.5782 32.3297 74.3233C32.3297 74.8146 32.2308 75.2436 32.0352 75.6104C31.8397 75.9771 31.5587 76.2585 31.1968 76.4615C30.8326 76.6622 30.4123 76.7637 29.9313 76.7637H26.573V71.8851Z" fill="black"/>
<path d="M42.0105 82.4496V78.3092H48.8798V75.9149H42.0105V71.8851H49.3159V69.334H39.2188V85.0007H49.534V82.4496H42.0105Z" fill="black"/>
<path d="M63.5131 85.0004H66.3701L60.7865 69.3359H57.4508L51.8672 85.0004H54.6814L55.8211 81.7342H62.3757L63.5154 85.0004H63.5131ZM56.6865 79.2476L59.0422 72.4891H59.1524L61.5081 79.2476H56.6865Z" fill="black"/>
<path d="M69.2734 85.0004V69.3359H72.0652V82.4492H79.3054V85.0004H69.2734Z" fill="black"/>
<path d="M83.7583 85.0004V71.8871H79.0469V69.3359H91.2165V71.8871H86.5276V85.0004H83.7583Z" fill="black"/>
<path d="M98.1087 85.0007V79.4048L92.7656 69.334H95.7305L99.4596 76.563H99.5698L103.321 69.334H106.221L100.878 79.4048V85.0007H98.1087Z" fill="black"/>
<path d="M51.4594 0.000353524H60.4956C60.5248 0.0441798 60.554 0.0880062 60.581 0.134139C62.0286 2.70836 63.4739 5.28027 64.9215 7.85449C65.0047 8.00212 65.0047 8.00212 65.0879 7.85449C65.6588 6.83957 66.2298 5.82464 66.8007 4.80972C67.7043 3.2066 68.6079 1.60347 69.5116 0.000353524H78.5478C78.604 0.0603264 78.6377 0.136446 78.6759 0.205645C80.1145 2.76372 81.5531 5.3241 82.9939 7.87986C83.0569 7.99289 83.0524 8.07362 82.9917 8.18204C81.5508 10.7401 80.1122 13.2982 78.6736 15.8563C78.6467 15.9047 78.5837 15.9554 78.6152 16.0062C78.6467 16.0569 78.7186 16.0269 78.7725 16.0269C81.652 16.0269 84.5314 16.0269 87.4109 16.0269C87.5345 16.0269 87.6042 16.0685 87.6649 16.1769C88.8113 18.2229 89.9622 20.2666 91.113 22.3103C91.4367 22.8846 91.7627 23.459 92.0886 24.031V24.1048C92.0571 24.1556 92.0234 24.2063 91.9919 24.2617C90.5511 26.8198 89.1102 29.3778 87.6716 31.9382C87.6087 32.0489 87.5413 32.0881 87.4176 32.0881C84.5135 32.0858 81.6093 32.0858 78.7051 32.0881C78.577 32.0881 78.5073 32.0489 78.4421 31.9336C77.0035 29.3686 75.5582 26.8082 74.1151 24.2455C74.0319 24.0979 74.0319 24.0979 73.9487 24.2455C72.5056 26.8059 71.0626 29.3686 69.6217 31.9313C69.5588 32.0443 69.4891 32.0881 69.3587 32.0881C66.4545 32.0835 63.5504 32.0835 60.6462 32.0881C60.5226 32.0881 60.4551 32.0489 60.3922 31.9382C58.9513 29.3732 57.5082 26.8128 56.0651 24.2502C56.0404 24.2063 56.0247 24.1533 55.9775 24.1233C55.9348 24.151 55.9235 24.1971 55.9011 24.234C54.4557 26.799 53.0104 29.364 51.5673 31.9313C51.5021 32.0466 51.4324 32.0858 51.3043 32.0858C48.4001 32.0812 45.4959 32.0812 42.5918 32.0858C42.4681 32.0858 42.3984 32.0443 42.3378 31.9359C41.7668 30.9164 41.1936 29.8991 40.6182 28.8796C39.7168 27.2788 38.8154 25.6803 37.9141 24.0795V24.0541C39.3886 21.436 40.8632 18.818 42.3333 16.1953C42.4052 16.0685 42.4839 16.0223 42.6255 16.0246C45.4892 16.0293 48.3529 16.0269 51.2166 16.0269C51.2571 16.0269 51.2975 16.0269 51.3358 16.0269C51.4099 16.0269 51.4189 15.9923 51.383 15.9347C51.3695 15.9139 51.3605 15.8909 51.347 15.8701C49.9016 13.3005 48.4563 10.7309 47.0087 8.16358C46.9548 8.0667 46.9525 7.9952 47.0087 7.89601C48.1191 5.92613 49.2251 3.95626 50.3332 1.98638C50.7064 1.32206 51.084 0.660055 51.4571 -0.00195312" fill="#0097DC"/>
</g>
<defs>
<clipPath id="clip0_219_2457">
<rect width="130" height="85" fill="white"/>
</clipPath>
</defs>
</svg>
