<svg width="220" height="127" viewBox="0 0 220 127" fill="none" xmlns="http://www.w3.org/2000/svg">
<path d="M54.8624 0.0078827L91.4688 0.0078827C91.587 0.181298 91.7132 0.354714 91.8156 0.536012C97.6802 10.6966 103.537 20.8493 109.394 31.0098C109.725 31.5853 109.733 31.5853 110.064 31.0098C112.381 27.0055 114.691 23.0012 117.008 18.989C120.666 12.6593 124.331 6.32967 127.989 0L164.595 0C164.824 0.236476 164.958 0.536011 165.115 0.8119C170.948 10.9094 176.766 21.0148 182.607 31.1044C182.867 31.5459 182.843 31.869 182.591 32.2947C176.75 42.3922 170.925 52.4897 165.099 62.5872C164.989 62.7764 164.737 62.9735 164.863 63.1784C164.989 63.3755 165.281 63.2573 165.501 63.2573C177.168 63.2573 188.826 63.2573 200.492 63.2573C200.989 63.2573 201.272 63.4149 201.525 63.8563C206.175 71.928 210.834 79.9997 215.492 88.0636C216.801 90.3337 218.125 92.596 219.442 94.8583V95.1499C219.315 95.3549 219.174 95.5519 219.055 95.7648C213.214 105.862 207.381 115.96 201.556 126.065C201.304 126.499 201.028 126.656 200.524 126.656C188.763 126.641 176.994 126.641 165.233 126.656C164.713 126.656 164.429 126.499 164.161 126.042C158.328 115.92 152.48 105.807 146.639 95.7017C146.308 95.1184 146.3 95.1184 145.969 95.7017C140.12 105.815 134.279 115.928 128.438 126.042C128.178 126.491 127.902 126.664 127.374 126.664C115.613 126.648 103.844 126.648 92.0836 126.664C91.587 126.664 91.3033 126.514 91.051 126.073C85.218 115.952 79.3691 105.839 73.5203 95.7333C73.4178 95.5598 73.3627 95.347 73.1656 95.2366C73.0001 95.347 72.9449 95.5283 72.8582 95.6781C67.0015 105.799 61.1447 115.928 55.3038 126.057C55.0437 126.507 54.7599 126.672 54.2396 126.672C42.471 126.656 30.7103 126.656 18.9496 126.672C18.4451 126.672 18.1692 126.515 17.917 126.081C15.6074 122.053 13.2821 118.033 10.9567 114.013C7.3071 107.699 3.64961 101.385 0 95.0632L0 94.9686C5.96707 84.6347 11.942 74.2928 17.9012 63.9509C18.1929 63.4543 18.5082 63.273 19.0836 63.273C30.6867 63.2888 42.2819 63.2809 53.8849 63.2809C54.0426 63.2809 54.2081 63.2809 54.3658 63.2809C54.6653 63.2809 54.7047 63.1469 54.5628 62.9183C54.5155 62.8316 54.4682 62.7528 54.4209 62.6661C48.5642 52.5213 42.7154 42.3764 36.8508 32.2395C36.6301 31.8533 36.6222 31.5695 36.8508 31.1833C41.3517 23.4111 45.829 15.631 50.3142 7.85888C51.8276 5.24188 53.3489 2.62488 54.8703 0.0078827" fill="white"/>
</svg>
