<svg width="157" height="111" viewBox="0 0 157 111" fill="none" xmlns="http://www.w3.org/2000/svg">
<path d="M52.6082 0.000697016L78.6932 5.20502C78.7528 5.34541 78.818 5.48691 78.8652 5.63067C81.5997 13.7046 84.3297 21.7719 87.0585 29.8447C87.2126 30.3018 87.2182 30.3029 87.536 29.94C89.7566 27.4161 91.9717 24.891 94.1935 22.3615C97.6996 18.3711 101.211 14.3818 104.717 10.3914L130.802 15.5957C130.932 15.7967 130.985 16.0292 131.058 16.2482C133.779 24.2728 136.487 32.3007 139.215 40.3208C139.338 40.6723 139.275 40.8992 139.035 41.1667C133.437 47.5316 127.85 53.8987 122.264 60.2658C122.158 60.3849 121.951 60.4894 122.011 60.6534C122.073 60.8118 122.298 60.769 122.455 60.8004C130.768 62.4589 139.076 64.1164 147.389 65.7749C147.742 65.8455 147.922 65.9982 148.039 66.3486C150.206 72.7615 152.378 79.1756 154.551 85.584C155.161 87.3877 155.783 89.188 156.399 90.9872L156.357 91.195C156.238 91.3232 156.109 91.4434 155.995 91.5782C150.397 97.9431 144.805 104.309 139.217 110.682C138.976 110.955 138.757 111.028 138.398 110.956C130.019 109.273 121.633 107.6 113.251 105.939C112.88 105.865 112.7 105.712 112.574 105.349C109.857 97.3072 107.127 89.2691 104.401 81.2378C104.248 80.7751 104.243 80.774 103.924 81.1426C98.3182 87.5176 92.7183 93.8937 87.1183 100.27C86.8691 100.553 86.6479 100.637 86.2715 100.562C77.8933 98.8789 69.5073 97.2058 61.1246 95.545C60.7707 95.4744 60.5898 95.3274 60.4728 94.9769C57.7552 86.9355 55.0253 78.8975 52.2942 70.8651C52.2459 70.727 52.2368 70.5675 52.1121 70.4608C51.9784 70.5159 51.9133 70.6373 51.8302 70.7317C46.218 77.1111 40.6045 83.4962 35.0024 89.8835C34.7531 90.1667 34.5274 90.2443 34.1567 90.1704C25.7729 88.486 17.3924 86.814 9.00974 85.1532C8.65026 85.0815 8.47608 84.9299 8.35798 84.5851C7.28488 81.3865 6.19942 78.1913 5.11396 74.9961C3.41098 69.9781 1.70238 64.9589 0.000510547 59.9353L0.0139579 59.8679C5.73514 53.3525 11.4631 46.8325 17.1798 40.3104C17.4582 39.998 17.7086 39.9136 18.1187 39.9954C26.3845 41.6562 34.6481 43.2991 42.9162 44.9487C43.0286 44.9711 43.1465 44.9947 43.2589 45.0171C43.4723 45.0597 43.5194 44.9698 43.4508 44.7867C43.4295 44.7182 43.407 44.6553 43.3856 44.5868C40.6545 36.5252 37.929 28.4647 35.1912 20.4076C35.0889 20.101 35.1236 19.8976 35.3414 19.6549C39.6536 14.7565 43.9501 9.84915 48.2511 4.94853C49.7016 3.29888 51.1577 1.65035 52.6139 0.00181791" fill="#0097DC"/>
</svg>
