<svg width="16" height="16" viewBox="0 0 16 16" fill="none" xmlns="http://www.w3.org/2000/svg">
<path d="M8.38516 3.61266C9.26007 3.75929 10.0548 4.17253 10.6893 4.80571C11.3238 5.43889 11.7345 6.23204 11.8848 7.10516M8.51875 0.75C10.0749 1.01327 11.4941 1.74976 12.6228 2.87283C13.7515 3.99923 14.4862 5.41556 14.75 6.96852M13.5344 13.147C13.5344 13.147 12.6896 13.9769 12.4825 14.2201C12.1453 14.58 11.7479 14.75 11.2269 14.75C11.1769 14.75 11.1234 14.75 11.0733 14.7467C10.0815 14.6833 9.15988 14.2968 8.46863 13.9669C6.57855 13.0537 4.91889 11.7574 3.53973 10.1144C2.40101 8.74476 1.63964 7.4784 1.13539 6.11872C0.824831 5.28892 0.711293 4.6424 0.761383 4.03255C0.794777 3.64264 0.945048 3.31939 1.22222 3.04279L2.36094 1.90639C2.52457 1.75309 2.69821 1.66978 2.86852 1.66978C3.0789 1.66978 3.24921 1.79642 3.35607 1.90306C3.35941 1.90639 3.36275 1.90972 3.36609 1.91305C3.56979 2.10301 3.76347 2.29963 3.96717 2.50958C4.07069 2.61622 4.17755 2.72286 4.28441 2.83284L5.19606 3.74262C5.55003 4.09587 5.55003 4.42246 5.19606 4.77571C5.09922 4.87235 5.00571 4.96899 4.90887 5.0623C4.62837 5.3489 4.84872 5.129 4.5582 5.38894C4.55152 5.3956 4.54484 5.39893 4.5415 5.4056C4.25431 5.6922 4.30774 5.97213 4.36785 6.16209C4.37119 6.17208 4.37453 6.18208 4.37787 6.19208C4.61496 6.76528 4.9489 7.30515 5.45648 7.94833L5.45982 7.95166C6.38149 9.08472 7.35324 9.96785 8.42518 10.6444C8.56209 10.731 8.70234 10.801 8.83592 10.8676C8.95614 10.9276 9.06967 10.9843 9.16652 11.0443C9.17987 11.0509 9.19323 11.0609 9.20659 11.0676C9.32013 11.1242 9.42699 11.1509 9.53718 11.1509C9.81435 11.1509 9.988 10.9776 10.0448 10.921L10.6993 10.2677C10.8129 10.1544 10.9932 10.0178 11.2036 10.0178C11.4106 10.0178 11.5809 10.1478 11.6844 10.2611C11.6878 10.2644 11.6878 10.2644 11.6911 10.2677L13.5311 12.104C13.8751 12.4439 13.5344 13.147 13.5344 13.147Z" stroke="#0097DC" strokeWidth="1.5" strokeLinecap="round" strokeLinejoin="round"/>
</svg>
