<svg width="44" height="44" viewBox="0 0 44 44" fill="none" xmlns="http://www.w3.org/2000/svg">
<path d="M18.3032 14.874H25.1616M11.4448 41.9648H4.92922C3.03535 41.9648 1.5 40.4295 1.5 38.5356V28.5909C1.5 26.697 3.03535 25.1616 4.92922 25.1616H11.4448M25.1616 41.9648H11.4448V11.7877C11.4448 9.8938 12.9801 8.35845 14.874 8.35845H28.5909C30.4847 8.35845 32.0201 9.8938 32.0201 11.7877V41.9648M32.0201 18.3032L39.62 20.9508C41.0204 21.4176 41.9648 22.728 41.9648 24.204V38.5356C41.9648 40.4295 40.4295 41.9648 38.5356 41.9648H32.0201M18.3032 1.5V8.35845M25.1616 4.92922V8.35845M18.3032 21.7324H25.1616M18.3032 28.5909H25.1616M18.3032 41.9648V38.5356C18.3032 36.6417 19.8385 35.1064 21.7324 35.1064C23.6263 35.1064 25.1616 36.6417 25.1616 38.5356V41.9648" stroke="white" stroke-width="3" stroke-miterlimit="10" stroke-linecap="round" stroke-linejoin="round"/>
</svg>
