<svg width="41" height="41" viewBox="0 0 41 41" fill="none" xmlns="http://www.w3.org/2000/svg">
<path opacity="0.8" d="M1 0C0.447715 0 0 0.447715 0 1C0 1.55228 0.447715 2 1 2V1V0ZM5.65672 1L6.6226 0.741032C6.50541 0.303922 6.10926 0 5.65672 0V1ZM13.2239 29.2236L12.258 29.4826C12.3874 29.9653 12.8533 30.2783 13.3492 30.2157L13.2239 29.2236ZM36.5075 26.2837L36.6327 27.2758C37.0576 27.2221 37.4012 26.9039 37.4871 26.4843L36.5075 26.2837ZM40 9.23189L40.9797 9.43254C41.0399 9.13825 40.9647 8.83245 40.7748 8.59969C40.5849 8.36693 40.3004 8.23189 40 8.23189V9.23189ZM7.86381 9.23189L6.89792 9.49086V9.49086L7.86381 9.23189ZM1 1V2H5.65672V1V0H1V1ZM13.2239 29.2236L13.3492 30.2157L36.6327 27.2758L36.5075 26.2837L36.3822 25.2915L13.0986 28.2315L13.2239 29.2236ZM36.5075 26.2837L37.4871 26.4843L40.9797 9.43254L40 9.23189L39.0203 9.03123L35.5278 26.083L36.5075 26.2837ZM5.65672 1L4.69083 1.25897L6.89792 9.49086L7.86381 9.23189L8.82969 8.97292L6.6226 0.741032L5.65672 1ZM7.86381 9.23189L6.89792 9.49086L12.258 29.4826L13.2239 29.2236L14.1898 28.9646L8.82969 8.97292L7.86381 9.23189ZM40 9.23189V8.23189H7.86381V9.23189V10.2319H40V9.23189ZM20.5 36.9222H19.5C19.5 38.0793 18.5741 39 17.4531 39V40V41C19.6976 41 21.5 39.1648 21.5 36.9222H20.5ZM17.4531 40V39C16.3322 39 15.4063 38.0793 15.4063 36.9222H14.4063H13.4063C13.4063 39.1648 15.2086 41 17.4531 41V40ZM14.4063 36.9222H15.4063C15.4063 35.7652 16.3322 34.8445 17.4531 34.8445V33.8445V32.8445C15.2086 32.8445 13.4063 34.6797 13.4063 36.9222H14.4063ZM17.4531 33.8445V34.8445C18.5741 34.8445 19.5 35.7652 19.5 36.9222H20.5H21.5C21.5 34.6797 19.6976 32.8445 17.4531 32.8445V33.8445ZM36.75 36.9222H35.75C35.75 38.0793 34.8241 39 33.7031 39V40V41C35.9476 41 37.75 39.1648 37.75 36.9222H36.75ZM33.7031 40V39C32.5822 39 31.6563 38.0793 31.6563 36.9222H30.6563H29.6563C29.6563 39.1648 31.4586 41 33.7031 41V40ZM30.6563 36.9222H31.6563C31.6563 35.7652 32.5822 34.8445 33.7031 34.8445V33.8445V32.8445C31.4586 32.8445 29.6563 34.6797 29.6563 36.9222H30.6563ZM33.7031 33.8445V34.8445C34.8241 34.8445 35.75 35.7652 35.75 36.9222H36.75H37.75C37.75 34.6797 35.9476 32.8445 33.7031 32.8445V33.8445Z" fill="white"/>
</svg>
