<svg width="39" height="35" viewBox="0 0 39 35" fill="none" xmlns="http://www.w3.org/2000/svg">
<path opacity="0.8" d="M27.0655 33.792L27.066 27.6441C27.0663 24.2481 24.3135 21.495 20.9175 21.495H7.1492C3.75374 21.495 1.00107 24.2474 1.00069 27.6428L1 33.792M37.7291 33.7924L37.7297 27.6444C37.73 24.2485 34.9771 21.4954 31.5812 21.4954M25.8812 2.20789C27.3911 3.32821 28.3697 5.12425 28.3697 7.14884C28.3697 9.17343 27.3911 10.9695 25.8812 12.0898M20.3095 7.1485C20.3095 10.5442 17.5567 13.297 14.161 13.297C10.7653 13.297 8.01247 10.5442 8.01247 7.1485C8.01247 3.75278 10.7653 1 14.161 1C17.5567 1 20.3095 3.75278 20.3095 7.1485Z" stroke="white" stroke-width="2" stroke-linecap="round" stroke-linejoin="round"/>
</svg>
