<svg width="35" height="43" viewBox="0 0 35 43" fill="none" xmlns="http://www.w3.org/2000/svg">
<path d="M28.6141 3.98652C26.597 2.3349 24.2385 1.15153 21.7086 0.521759C19.1788 -0.10801 16.5407 -0.168478 13.9847 0.344715C10.6982 1.01852 7.67464 2.62284 5.2742 4.96657C2.87377 7.3103 1.19764 10.2947 0.445478 13.5641C-0.306683 16.8336 -0.103169 20.2504 1.03178 23.4074C2.16672 26.5645 4.18526 29.3288 6.84694 31.371C9.88585 33.5952 12.4733 36.3779 14.4708 39.5704L15.8319 41.8336C16.0047 42.1211 16.249 42.359 16.541 42.5241C16.833 42.6893 17.1627 42.776 17.4982 42.776C17.8336 42.776 18.1634 42.6893 18.4554 42.5241C18.7473 42.359 18.9916 42.1211 19.1645 41.8336L20.4692 39.6598C22.2086 36.6021 24.5804 33.9506 27.4261 31.8824C29.6575 30.3471 31.5016 28.3144 32.8129 25.9445C34.1242 23.5746 34.8668 20.9324 34.9822 18.2264C35.0976 15.5204 34.5826 12.8246 33.4778 10.3517C32.373 7.87875 30.7086 5.6964 28.6161 3.97679L28.6141 3.98652Z" fill="#0097DC"/>
<path d="M17.4397 6.25615C17.4626 6.2746 17.4573 6.29684 17.4389 6.31914C17.492 6.32577 17.4058 6.38413 17.4071 6.41466C17.4204 6.47044 17.3367 6.66672 17.3115 6.73309C17.2823 6.90695 17.1881 7.16718 17.1205 7.37023C17.1416 7.43529 17.0634 7.59446 17.0249 7.68867C17.0765 7.69534 16.9918 7.75366 16.9931 7.78419C17.0223 7.8187 16.9518 7.94221 16.9293 8.00724C16.981 8.01387 16.8961 8.07223 16.8974 8.10276C16.9266 8.13726 16.8563 8.26063 16.8338 8.32568C16.8855 8.33231 16.8006 8.3908 16.8019 8.42133C16.8311 8.45585 16.7608 8.57922 16.7383 8.64425C16.7899 8.65091 16.7051 8.70924 16.7064 8.73977C16.6772 8.91361 16.5829 9.17372 16.5152 9.37677C16.5364 9.4418 16.4582 9.60111 16.4197 9.69534C16.4409 9.76037 16.3627 9.91968 16.3242 10.0139C16.3759 10.0206 16.291 10.0789 16.2923 10.1094C16.3215 10.1439 16.2512 10.2673 16.2286 10.3323C16.2803 10.339 16.1954 10.3975 16.1968 10.428C16.2259 10.4626 16.1555 10.5859 16.133 10.6509C16.1847 10.6576 16.0998 10.7159 16.1011 10.7464C16.1303 10.7809 16.0601 10.9043 16.0375 10.9694C16.0892 10.976 16.0043 11.0345 16.0056 11.065C15.9764 11.2389 15.8822 11.499 15.8146 11.702C15.8358 11.7671 15.7574 11.9264 15.7189 12.0206C15.7401 12.0856 15.6619 12.2448 15.6234 12.339C15.6751 12.3457 15.5903 12.404 15.5915 12.4345C15.6207 12.469 15.5504 12.5926 15.5279 12.6576C15.5796 12.6642 15.4947 12.7226 15.496 12.7531C15.5252 12.7876 15.4549 12.911 15.4324 12.976C15.484 12.9827 15.3991 13.0412 15.4005 13.0717C15.3713 13.2455 15.277 13.5056 15.2093 13.7087C15.2305 13.7737 15.1523 13.9329 15.1138 14.0271C15.135 14.0921 15.0568 14.2515 15.0183 14.3457C15.0699 14.3524 14.9851 14.4107 14.9864 14.4412C15.0156 14.4757 14.9452 14.5992 14.9226 14.6643C14.9744 14.6709 14.8895 14.7293 14.8909 14.7598C14.92 14.7943 14.8497 14.9177 14.8271 14.9827C14.7674 15.3769 14.4131 16.0312 14.8909 16.4147C14.9002 16.363 14.9545 16.4479 14.9864 16.4466C14.9811 16.4041 15.1151 16.4864 15.1457 16.4785C15.1709 16.3922 15.2479 16.3909 15.2731 16.4785C15.3633 16.4983 15.5066 16.3643 15.5279 16.4466C15.93 16.355 16.2432 16.2157 16.579 16.0963C16.6201 16.0644 16.7581 15.9861 16.8019 16.0006C16.8271 15.99 16.8457 15.9144 16.8657 15.9689C16.8963 15.9714 17.0223 15.8534 17.0249 15.9051C17.3647 15.7419 17.9075 15.5096 18.299 15.3636C18.3335 15.3357 18.4834 15.2509 18.5219 15.2681C18.5471 15.2575 18.5657 15.1818 18.5856 15.2362C18.6162 15.2388 18.7423 15.1208 18.7449 15.1726C19.0847 15.0093 19.6274 14.7771 20.0189 14.6311C20.0694 14.5647 20.1252 14.5991 20.2101 14.5354C20.1982 14.4161 20.364 14.5328 20.433 14.4399C20.441 14.3603 20.4741 14.3483 20.5285 14.408C20.5617 14.4094 20.6838 14.2926 20.6878 14.3444C21.078 14.1679 21.5624 13.9462 21.9618 13.8029C22.003 13.7711 22.1411 13.6928 22.1849 13.7074C22.2101 13.6967 22.2286 13.6211 22.2485 13.6755C22.279 13.6782 22.4051 13.5601 22.4078 13.6117C22.7462 13.4485 23.2903 13.2162 23.6818 13.0703C23.723 13.0384 23.8611 12.9601 23.9049 12.9747C23.9301 12.9641 23.9486 12.8886 23.9685 12.9428C23.999 12.9455 24.1251 12.8275 24.1278 12.8792C24.4675 12.716 25.0103 12.4837 25.4018 12.3377C25.4363 12.3099 25.5864 12.225 25.6249 12.2422C25.6501 12.2316 25.6686 12.1559 25.6885 12.2103C25.719 12.213 25.8451 12.0949 25.8478 12.1466C26.1875 11.9833 26.7303 11.7511 27.1218 11.6051C27.1563 11.5772 27.3064 11.4923 27.3448 11.5095C27.37 11.4989 27.3886 11.4234 27.4085 11.4777C27.439 11.4803 27.5651 11.3623 27.5678 11.414C22.1676 15.3132 12.8204 20.781 6.09174 25.1752C5.8463 25.2946 6.33982 24.6394 6.35859 24.59C7.18938 23.1421 8.10639 21.7101 8.9385 20.2609C10.4621 17.7844 11.9047 15.288 13.4283 12.8129C14.6822 10.8025 16.1498 8.05578 17.4397 6.25615Z" fill="white"/>
<path d="M23.078 15.5839C23.4576 16.2395 23.9287 16.9376 24.2233 17.6198L24.222 17.6185C24.2711 17.7804 24.4595 17.9754 24.4768 18.0962C24.5458 18.2289 25.1032 19.1181 25.1457 19.2734C25.3182 19.5747 25.5837 19.945 25.6872 20.229C25.7655 20.375 26.1836 21.0266 26.2287 21.1845C26.3084 21.3306 26.7251 21.9822 26.7702 22.1401C26.8393 22.273 27.3965 23.1618 27.4391 23.3172C27.8319 23.7405 27.938 24.5448 27.3117 24.5263C27.2997 24.5449 27.2784 24.5449 27.2479 24.5263C27.2413 24.6205 27.0701 24.4719 26.9931 24.4626C24.1902 22.6869 21.2134 20.6629 18.3972 18.8036C18.4264 18.4652 19.1285 18.4545 19.2652 18.1015C20.575 17.353 21.7973 16.3338 23.078 15.5839Z" fill="white"/>
<path d="M17.7349 6.48503C17.8318 6.45982 19.436 9.46651 19.5504 9.48033H19.5491C19.5504 9.50951 20.0849 10.3318 20.0336 10.327C20.0283 10.3562 20.3998 10.842 20.3361 10.842C20.3308 10.8712 20.7024 11.357 20.6387 11.357C20.6339 11.3868 21.0048 11.8718 20.9413 11.8719C20.9363 11.9015 21.3075 12.3868 21.2438 12.3868C21.3115 12.5514 21.7853 13.0292 21.3646 13.0226C21.0833 13.1791 20.7316 13.3318 20.4875 13.4154C20.4105 13.4632 20.2724 13.5601 20.2153 13.5362C19.9353 13.6928 19.5823 13.8454 19.3381 13.929C19.2612 13.9768 19.1232 14.0736 19.0661 14.0498C18.7861 14.2064 18.433 14.359 18.1888 14.4426C18.1118 14.4931 18.0295 14.5289 17.9406 14.5488C17.8729 11.8534 17.7561 9.10083 17.7349 6.48503Z" fill="white"/>
<path d="M17.4397 6.25615C17.4394 6.25593 17.4392 6.25559 17.4389 6.25537H17.4403C17.4401 6.25564 17.4399 6.25588 17.4397 6.25615Z" fill="white"/>
</svg>
