<svg width="35" height="43" viewBox="0 0 35 43" fill="none" xmlns="http://www.w3.org/2000/svg">
<path d="M28.6141 3.98652C26.597 2.3349 24.2385 1.15153 21.7086 0.521759C19.1788 -0.10801 16.5407 -0.168478 13.9847 0.344715C10.6982 1.01852 7.67464 2.62284 5.2742 4.96657C2.87377 7.3103 1.19764 10.2947 0.445478 13.5641C-0.306683 16.8336 -0.103169 20.2504 1.03178 23.4074C2.16672 26.5645 4.18526 29.3288 6.84694 31.371C9.88585 33.5952 12.4733 36.3779 14.4708 39.5704L15.8319 41.8336C16.0047 42.1211 16.249 42.359 16.541 42.5241C16.833 42.6893 17.1627 42.776 17.4982 42.776C17.8336 42.776 18.1634 42.6893 18.4554 42.5241C18.7473 42.359 18.9916 42.1211 19.1645 41.8336L20.4692 39.6598C22.2086 36.6021 24.5804 33.9506 27.4261 31.8824C29.6575 30.3471 31.5016 28.3144 32.8129 25.9445C34.1242 23.5746 34.8668 20.9324 34.9822 18.2264C35.0976 15.5204 34.5826 12.8246 33.4778 10.3517C32.373 7.87875 30.7086 5.6964 28.6161 3.97679L28.6141 3.98652Z" fill="#0097DC"/>
<path fill-rule="evenodd" clip-rule="evenodd" d="M18.2627 6.88672C19.5891 6.88676 20.6975 7.09574 21.5879 7.51367C22.4783 7.93164 23.1512 8.51276 23.6055 9.25781C24.0597 9.98468 24.2861 10.8207 24.2861 11.7656C24.2861 12.7288 24.0771 13.5372 23.6592 14.1914C23.2412 14.8456 22.6876 15.3461 21.9971 15.6914C21.6582 15.8654 21.305 16.0058 20.9385 16.1152C21.5098 16.2138 22.0356 16.4158 22.5146 16.7266C23.2052 17.1445 23.7506 17.7082 24.1504 18.417C24.5502 19.1257 24.75 19.9076 24.75 20.7617C24.7499 21.7429 24.5043 22.6331 24.0137 23.4326C23.5412 24.214 22.8418 24.8318 21.915 25.2861C20.9883 25.7404 19.8525 25.9678 18.5078 25.9678H10.875V6.88672H18.2627ZM13.873 23.5146H18.126C19.2527 23.5146 20.1253 23.2506 20.7432 22.7236C21.379 22.1785 21.6973 21.4239 21.6973 20.4609C21.6972 19.4981 21.3698 18.7351 20.7158 18.1719C20.0798 17.6085 19.1888 17.3262 18.0439 17.3262H13.873V23.5146ZM13.873 15.0371H17.8809C18.953 15.0371 19.7798 14.7822 20.3613 14.2734C20.9427 13.7646 21.2333 13.0651 21.2334 12.1748C21.2334 11.3025 20.952 10.6114 20.3887 10.1025C19.8253 9.57558 18.971 9.31251 17.8262 9.3125H13.873V15.0371Z" fill="white"/>
</svg>
