<svg width="35" height="43" viewBox="0 0 35 43" fill="none" xmlns="http://www.w3.org/2000/svg">
<path d="M28.6141 3.98652C26.597 2.3349 24.2385 1.15153 21.7086 0.521759C19.1788 -0.10801 16.5407 -0.168478 13.9847 0.344715C10.6982 1.01852 7.67464 2.62284 5.2742 4.96657C2.87377 7.3103 1.19764 10.2947 0.445478 13.5641C-0.306683 16.8336 -0.103169 20.2504 1.03178 23.4074C2.16672 26.5645 4.18526 29.3288 6.84694 31.371C9.88585 33.5952 12.4733 36.3779 14.4708 39.5704L15.8319 41.8336C16.0047 42.1211 16.249 42.359 16.541 42.5241C16.833 42.6893 17.1627 42.776 17.4982 42.776C17.8336 42.776 18.1634 42.6893 18.4554 42.5241C18.7473 42.359 18.9916 42.1211 19.1645 41.8336L20.4692 39.6598C22.2086 36.6021 24.5804 33.9506 27.4261 31.8824C29.6575 30.3471 31.5016 28.3144 32.8129 25.9445C34.1242 23.5746 34.8668 20.9324 34.9822 18.2264C35.0976 15.5204 34.5826 12.8246 33.4778 10.3517C32.373 7.87875 30.7086 5.6964 28.6161 3.97679L28.6141 3.98652Z" fill="#0097DC"/>
<path d="M23.0723 15.4614C22.9419 13.4526 20.7486 12.1182 19.0024 13.2071C18.1283 13.7485 17.6972 14.8314 17.8837 15.7211C18.3969 18.531 23.0703 18.7665 23.0703 15.4614H23.0723Z" fill="white"/>
<path d="M23.0574 15.32C22.911 13.7077 21.5637 12.8039 20.2746 12.818C19.0857 12.8301 17.949 13.6312 17.8427 15.2012C17.7485 17.0127 19.4085 17.995 20.8841 17.8863C22.1111 17.7957 23.2097 16.9302 23.0554 15.32H23.0574ZM19.5108 16.7269C15.9762 15.5635 20.5172 11.5842 21.9868 14.388C23.4343 17.377 20.1744 18.5304 19.5108 16.7269Z" fill="url(#paint0_radial_61_594)"/>
<path d="M25.2791 9.14065C25.0666 7.4358 25.4215 9.37011 24.9483 10.775C24.4651 12.188 23.3765 13.1663 23.2943 13.0817C23.2121 12.9167 25.5799 11.087 24.6616 7.40762C24.6055 7.18218 24.6356 7.25867 24.6356 7.64916C24.6356 10.7006 22.0072 12.1236 22.5164 11.6365C24.5774 9.66196 24.7498 6.82592 23.7955 5.43305C23.0958 4.14687 24.9483 6.9648 22.9815 9.59957C22.348 10.461 21.528 10.8435 21.7746 10.5959C23.0537 9.55931 23.7113 7.95309 23.6712 6.35895C23.0938 8.67367 20.6699 9.05208 20.7201 11.0287C20.7201 11.3165 20.1126 10.4691 21.4077 9.01786C21.8408 8.47642 21.919 8.42207 22.0252 8.10204C22.1936 7.70753 22.1315 7.16004 21.8989 6.79975C22.2598 8.00945 20.7862 8.63141 20.1366 10.139C20.0945 10.2014 20.0304 10.1571 20.0464 10.1028C20.8885 7.99335 20.7962 8.253 20.0905 9.51905C19.4169 10.7288 18.5768 13.118 19.0259 11.2239C19.1342 10.769 19.2665 10.3262 19.455 9.88538C18.234 11.7794 18.4104 12.7939 18.238 12.7939C18.0656 12.7939 18.2681 11.4675 18.4626 10.8717C18.0476 11.6245 17.7067 12.9408 17.7569 13.7983C19.2324 11.6043 22.2097 11.8861 23.3464 14.4887C24.5093 13.2568 25.4716 11.1816 25.2771 9.13662L25.2791 9.14065Z" fill="white"/>
<path d="M25.0277 14.1692C25.3645 13.2876 25.0137 12.243 26.0923 10.981C25.3084 11.3735 25.2222 12.3255 24.9034 12.9656C24.5125 13.821 23.5742 14.4913 23.3476 14.4913C24.1997 16.6329 22.5577 18.7383 20.0476 18.3076C17.75 17.8909 16.6854 15.4917 17.758 13.8009C17.6117 12.9354 17.6839 12.0417 18.0167 11.1802C17.3551 12.3638 17.0563 13.5815 17.2468 14.924C17.2468 15.226 16.902 14.6 17.0062 13.6681C17.1125 12.6999 17.4112 11.2849 16.9701 13.0582C16.7015 14.6563 16.7837 15.5621 17.3731 17.3314C17.8162 18.6357 17.5435 18.4746 17.5435 18.4082C17.5175 18.211 17.4313 18.0519 17.3471 17.8688C17.2508 17.6635 17.1746 17.4984 17.0523 16.9711C16.1802 13.7204 16.912 14.4812 16.5972 12.5811C16.7135 13.8653 16.0339 13.8673 16.0339 15.8761C16.0339 17.5206 16.1862 17.6876 16.1862 17.9493C16.1862 18.4364 15.3201 16.017 16.2404 13.4607C15.8795 14.1189 15.6048 14.9643 15.5427 15.7151C15.5427 15.8218 15.1537 15.7573 15.5246 13.8935C14.7147 14.9764 14.857 16.1478 15.0775 17.3676C15.6088 20.417 14.3999 21.2966 14.5683 20.9403C15.5026 18.9698 14.2415 17.6454 14.452 15.0227C14.2515 15.9627 14.2195 16.7517 14.2816 17.3394C14.6144 20.4935 13.1709 22.299 13.0747 22.2205C13.0667 22.2144 13.5318 21.3932 13.7904 20.4814C13.9087 20.0668 14.031 19.5716 13.9648 19.2375C13.622 20.6364 13.4556 21.4516 11.9941 22.8344C11.2683 23.5268 10.5445 23.5147 10.4563 23.4261L9.80273 23.9998C10.5806 23.9012 12.9784 24.664 14.1393 25.0766C11.9961 23.9998 11.3405 24.0723 11.3405 23.9193C11.3405 23.5026 14.4901 24.9217 14.5964 24.9599C16.6614 25.7067 12.4592 23.8911 12.4592 23.8025C12.5113 23.6959 12.7599 23.8106 12.9143 23.8106C14.4901 24.1004 15.0956 25.0183 16.3747 25.1934C16.7556 25.2578 16.4248 25.3222 14.7026 24.3218C14.029 23.9314 12.8782 23.6033 12.788 23.6033C11.4989 23.4704 13.7162 23.2148 15.0595 23.72C15.9577 24.0481 16.8378 24.5433 18.163 24.4205C19.0191 24.3641 18.139 24.4104 17.5997 24.2675C15.6108 23.6013 15.284 23.0357 13.3614 23.082C13.3072 23.082 13.3012 23.0175 13.3534 22.9914C15.5828 22.613 16.6854 23.8589 18.5139 23.7723C17.0423 23.4765 16.6373 23.1987 16.519 23.1987C14.5924 22.5083 14.3638 22.5828 14.3638 22.4902C14.3638 22.3674 15.1357 22.3211 15.5627 22.3916C16.6534 22.5526 17.8202 23.7059 20.0697 23.1987C18.7264 23.3678 17.3531 23.0155 15.9015 21.8521C15.7572 21.5623 16.8539 22.2929 17.0463 22.2929L17.0543 22.301C18.2653 22.7498 19.2737 23.0377 20.623 22.6331C19.0973 22.5828 17.9004 21.7032 17.9946 21.6086C18.0748 21.4455 19.6286 22.8706 22.0465 22.0132C20.3564 22.4379 18.58 21.4979 18.7023 21.3751C18.7565 21.21 19.9514 22.146 21.8941 21.5643C22.3973 21.4194 21.844 21.5985 21.2766 21.6448C19.8632 21.7616 18.56 21.0752 18.6121 20.9705C18.6622 20.8699 19.1073 21.1939 20.3564 21.204C20.8877 21.208 20.0356 21.2624 19.0953 20.7994C19.0412 20.7632 19.0592 20.7089 19.1314 20.7089C21.0821 21.3811 22.9346 20.6525 23.9792 19.4971C22.3111 20.9826 18.56 19.9017 19.3018 19.9017C22.5316 20.5156 24.8272 18.7343 25.0077 16.5625C24.7149 17.3817 24.2939 18.0982 23.6584 18.6638C22.1527 20.0366 20.4907 19.4207 19.8571 19.3381C18.8988 19.2415 18.5239 19.6159 18.4618 19.4911C18.4357 19.4126 18.7224 19.3301 18.8006 19.312C19.3299 19.1348 19.8993 19.1409 20.4546 19.1409C22.4274 19.1409 22.6539 18.8168 22.8163 18.7544C23.2634 18.531 22.8705 18.7061 22.7802 18.7363C22.7762 18.7363 22.7422 18.7464 22.7361 18.7544C22.283 18.9175 21.431 18.9456 21.431 18.8168C21.431 18.6759 22.5096 18.8651 23.4338 17.7218C23.0529 18.0781 22.6078 18.3136 22.1186 18.4666C19.7188 19.002 25.6071 17.4964 25.6071 13.7445C25.3244 15.1595 23.7867 15.6607 23.7285 15.4856C23.6664 15.3608 24.6207 15.3105 25.0337 14.1652L25.0277 14.1692Z" fill="white"/>
<path d="M4.90527 25.3481C4.90527 25.3481 5.38243 23.8828 7.61585 23.6292C9.09745 23.4601 11.2126 23.5285 12.0045 22.9368C12.7563 22.3752 12.1228 23.3675 12.1228 23.3675C12.1228 23.3675 12.207 23.8264 11.0702 23.9573C9.93348 24.0881 6.25255 23.8969 5.66712 25.2616C5.25212 26.2257 4.90527 25.3481 4.90527 25.3481Z" fill="white"/>
<path d="M21.6228 15.2093C21.5606 14.9959 21.4684 14.7926 21.3541 14.6034C21.2258 14.3901 21.0294 14.227 20.7908 14.1626C20.46 14.0741 20.1051 14.0882 19.7903 14.213C18.401 14.7162 18.9162 16.5196 20.049 16.1614C19.9287 17.3892 22.2182 17.1839 21.6228 15.2093Z" fill="url(#paint1_radial_61_594)"/>
<defs>
<radialGradient id="paint0_radial_61_594" cx="0" cy="0" r="1" gradientUnits="userSpaceOnUse" gradientTransform="translate(17.3756 19.6294) scale(7.67263 7.70301)">
<stop/>
<stop offset="0.08" stop-color="#051B08"/>
<stop offset="0.26" stop-color="#0E5118"/>
<stop offset="0.42" stop-color="#167C24"/>
<stop offset="0.57" stop-color="#1C9A2D"/>
<stop offset="0.7" stop-color="#1FAD33"/>
<stop offset="0.79" stop-color="#21B435"/>
<stop offset="1" stop-color="#758626"/>
</radialGradient>
<radialGradient id="paint1_radial_61_594" cx="0" cy="0" r="1" gradientUnits="userSpaceOnUse" gradientTransform="translate(20.3617 15.3421) scale(2.17528 2.1839)">
<stop offset="0.36" stop-color="#184189"/>
<stop offset="0.45" stop-color="#173E85" stop-opacity="0.96"/>
<stop offset="0.57" stop-color="#17387C" stop-opacity="0.85"/>
<stop offset="0.69" stop-color="#172D6D" stop-opacity="0.68"/>
<stop offset="0.82" stop-color="#161E58" stop-opacity="0.43"/>
<stop offset="0.96" stop-color="#150A3E" stop-opacity="0.11"/>
<stop offset="1" stop-color="#150435" stop-opacity="0"/>
</radialGradient>
</defs>
</svg>
