<svg width="35" height="43" viewBox="0 0 35 43" fill="none" xmlns="http://www.w3.org/2000/svg">
<path d="M28.6141 3.98652C26.597 2.3349 24.2385 1.15153 21.7086 0.521759C19.1788 -0.10801 16.5407 -0.168478 13.9847 0.344715C10.6982 1.01852 7.67464 2.62284 5.2742 4.96657C2.87377 7.3103 1.19764 10.2947 0.445478 13.5641C-0.306683 16.8336 -0.103169 20.2504 1.03178 23.4074C2.16672 26.5645 4.18526 29.3288 6.84694 31.371C9.88585 33.5952 12.4733 36.3779 14.4708 39.5704L15.8319 41.8336C16.0047 42.1211 16.249 42.359 16.541 42.5241C16.833 42.6893 17.1627 42.776 17.4982 42.776C17.8336 42.776 18.1634 42.6893 18.4554 42.5241C18.7473 42.359 18.9916 42.1211 19.1645 41.8336L20.4692 39.6598C22.2086 36.6021 24.5804 33.9506 27.4261 31.8824C29.6575 30.3471 31.5016 28.3144 32.8129 25.9445C34.1242 23.5746 34.8668 20.9324 34.9822 18.2264C35.0976 15.5204 34.5826 12.8246 33.4778 10.3517C32.373 7.87875 30.7086 5.6964 28.6161 3.97679L28.6141 3.98652Z" fill="#0097DC"/>
<path d="M20.1037 16.7885H19.6546C19.6043 15.8511 18.9222 14.9306 17.765 15.0908C16.7717 15.2269 16.2667 16.0039 16.2146 16.7885H15.7692C15.9071 15.2306 17.7724 13.7622 19.4254 15.2511C19.9136 15.6909 20.113 16.2425 20.1037 16.7885ZM28.9776 12.3403C28.318 11.757 27.5465 12.1297 27.4403 12.9646C28.2322 13.2534 28.7 13.1826 28.9776 12.3403ZM27.4384 9.47239C26.4452 9.45935 26.1973 9.55625 26.0426 10.5886L27.1402 10.57L27.4384 9.47239ZM16.4848 16.7885H19.3825C19.3676 16.522 19.2688 16.2425 19.0583 15.9685C18.1712 14.8225 16.5742 15.6667 16.4866 16.7885H16.4848ZM25.1351 8.35429L25.2022 7.37409C24.317 7.37782 24.004 7.79711 24.2276 8.63009L25.1351 8.35429ZM24.8835 16.7885C24.8109 13.1193 22.2784 9.46866 17.4892 9.79478C13.0932 10.0929 10.9614 13.4323 10.9558 16.7885H11.3508C11.3415 13.7081 13.1882 10.652 17.068 10.2103C21.9336 9.65501 24.4698 13.2068 24.5183 16.7885H24.8835ZM11.5726 16.7885H13.2889C13.3 16.5686 13.3112 16.3431 13.3131 16.1102C13.3187 15.5697 14.2467 13.7268 14.6455 13.3783C14.8468 13.2012 16.8258 12.1446 17.0382 12.1316C17.355 12.113 17.601 12.3366 17.8656 12.344C18.2551 12.3552 18.5085 12.0831 19.0583 12.1838C19.2185 12.2136 21.0857 13.2534 21.2292 13.3783C21.7007 13.7901 22.5523 15.4878 22.5579 16.1139C22.5598 16.3766 22.5691 16.5872 22.5803 16.7885H24.2183L23.1114 16.112C23.1039 16.03 23.8717 15.1206 24.086 15.2008C24.25 14.979 22.8989 14.7014 22.6883 14.7834L23.2474 13.3876L21.8516 13.5274L22.1293 11.99L20.7335 12.4093L20.5919 11.0116L19.3378 11.8502L18.7787 10.4545L18.0072 11.5707L16.9618 10.4526L16.5388 11.8483L15.2847 11.0098L15.143 12.5472L13.7473 11.9881L14.0249 13.3839H12.4876L13.1864 14.7815L11.7925 15.1318L12.7671 16.1772L11.5092 16.74L11.5745 16.7866L11.5726 16.7885ZM20.4521 16.74C20.4596 16.7568 20.4689 16.7717 20.4782 16.7866H22.0007C22.0231 16.3394 22.4834 16.1213 22.0473 15.3499C21.8796 15.0517 21.5106 14.9772 21.4603 14.8896C21.2907 14.5951 21.5423 14.2113 21.0149 13.7286C20.5379 13.2926 20.1819 13.5031 19.9229 13.3522C19.772 13.2646 19.6732 12.7018 19.0918 12.5732C18.4601 12.4335 18.3129 12.7652 17.9812 12.795C17.655 12.8248 17.3848 12.3794 16.6693 12.6087C16.1847 12.7633 16.0692 13.2795 15.9462 13.3522C15.6667 13.5143 15.2194 13.2758 14.7815 13.7957C14.4386 14.2019 14.556 14.6455 14.4032 14.884C14.2989 15.0461 13.928 15.0536 13.7324 15.5418C13.4659 16.2033 13.7864 16.4121 13.8367 16.7866H15.3313C15.1486 16.6636 14.8095 16.7419 14.5262 16.5816C13.861 16.2071 14.1349 15.2977 14.9101 15.3834C15.199 15.4151 15.4039 15.6443 15.6984 15.6182C15.3294 15.1095 14.7033 14.7442 15.2064 14.0808C15.8717 13.5926 16.2052 14.3454 16.6748 14.6417C16.6599 14.2243 16.209 13.5926 16.6022 13.2422C16.8332 13.0373 17.4333 13.0596 17.6215 13.2776C17.8023 13.4882 17.6532 14.3305 18.0035 14.2224L18.3073 13.2329L19.3117 13.2646L19.1943 14.6417C19.5633 13.8609 21.0149 13.5777 20.8472 14.6809C20.7596 15.253 20.1708 15.1542 20.1726 15.6201C21.9634 14.6753 22.3902 16.8295 20.4521 16.74ZM28.1391 15.6182C28.9478 16.0002 29.328 16.0207 29.8162 15.2026L28.8174 14.8486C28.6608 14.9492 28.0198 15.4542 28.1391 15.6182ZM9.83022 10.5886L9.51902 9.64011C9.16123 9.50593 8.79412 9.5078 8.4326 9.61215L8.73262 10.57L9.83208 10.5886H9.83022ZM8.4326 12.9646C8.24998 12.1465 7.57912 11.7459 6.89894 12.3366L7.40954 13.0894L8.4326 12.9646ZM9.69978 13.3056C10.0128 13.477 10.6893 13.3895 10.6688 13.9429C9.93458 14.0007 9.91594 13.4379 9.20409 13.5199C8.96183 13.5479 7.73938 14.0324 7.73751 14.1535C8.12512 14.5281 8.42328 15.2772 8.91711 15.4989C9.2339 15.6424 9.73705 15.4598 10.1116 15.6219C10.0687 16.4195 9.178 15.7393 8.85188 15.8176C8.61149 15.8754 7.61266 16.5425 7.4729 16.7866H9.45938L10.5085 16.2984L10.6725 15.5548C10.1675 15.4337 9.79668 15.02 9.69046 14.502L10.9278 14.3492L11.2092 13.7044C11.2931 13.4472 10.9371 13.518 10.7452 13.2367C10.68 13.1398 10.4843 12.6068 10.5272 12.5453C11.0415 12.3478 11.308 12.3664 11.785 12.6217L12.2062 12.0571L11.7869 10.7265C12.2956 10.6203 12.946 11.2483 13.3187 11.0806C13.9951 10.7787 13.315 10.0613 13.6038 9.4668C14.1181 9.55998 14.5467 9.67178 14.7871 10.1544C15.8139 9.91777 15.1356 9.20964 15.7729 8.62823C16.5705 8.94129 16.2593 9.64942 17.2954 9.47425C17.4538 9.07174 17.4314 8.46797 17.9886 8.35616C18.3799 8.60773 18.5104 9.01024 18.4992 9.45935C19.4272 9.72024 19.4738 8.96552 20.0999 8.49033C20.536 8.84253 20.4298 9.37549 20.4689 9.86559C21.3094 10.3948 21.464 9.40903 22.2653 9.32704C22.379 9.89168 22.5076 10.201 22.1852 10.7247C22.7797 11.5073 23.3126 10.6147 24.0822 10.7247C24.1046 11.2968 23.553 11.8241 23.8213 12.3068C24.194 12.9795 24.5984 12.085 25.342 12.5416C25.2842 13.0559 25.1072 13.382 24.6338 13.5963C24.9208 14.5001 24.8705 14.1852 25.355 14.2951C25.6737 14.3678 25.97 14.5486 26.3184 14.4982C26.0482 15.0219 25.7463 15.3368 25.1966 15.5548C25.3401 16.5723 25.396 16.1493 26.0016 16.4195C26.1712 16.4959 26.311 16.6431 26.4358 16.7829H28.3832C27.9583 16.4866 27.5521 15.9052 27.021 15.8064C26.5495 15.7188 26.1731 16.2779 25.6178 15.8269C26.0203 15.3145 26.5588 15.6667 26.952 15.4952C27.4421 15.2828 27.7477 14.5169 28.1316 14.1498C28.1316 13.9895 26.7806 13.5367 26.5178 13.5162C25.9047 13.4677 25.9252 14.0864 25.2003 13.9392C25.1947 13.2348 25.9308 13.4249 26.1694 13.3075C26.6669 13.0633 26.8738 12.072 27.0172 11.5651C26.5588 11.567 26.0221 11.2744 25.5824 11.3173C24.9189 11.3787 24.8165 12.1689 24.0822 12.1223C24.2854 11.3694 24.9804 11.5614 25.232 10.8272C25.4053 10.3166 25.3364 9.84882 25.3401 9.3289C24.8444 9.57488 23.9108 9.39971 23.4691 9.73328C23.3219 9.84509 23.3965 10.693 22.6865 10.5868C22.5169 9.95876 23.307 9.79478 23.3853 9.40158C23.5008 8.82762 23.2101 8.22571 23.2437 7.65175C22.7946 7.94246 22.0697 8.02073 21.6988 8.4102C21.3317 8.79594 21.423 9.58047 20.8696 9.60656C20.5938 9.10155 21.3 8.56487 21.2982 8.42883C21.2889 7.85674 20.9143 7.17656 20.6609 6.67342C20.2285 6.9809 19.3136 7.44863 19.2334 8.017C19.1906 8.3282 19.4869 8.81458 18.9129 9.04751C18.5439 8.53319 19.0676 8.10458 18.9968 7.79152C18.9427 7.55299 18.0687 6.34917 17.8656 6.3939C17.5935 6.7461 16.9618 7.37968 16.8686 7.79152C16.7978 8.10831 17.3289 8.53878 16.9525 9.04751C16.345 8.79221 16.7363 8.0934 16.6115 7.79524C16.5314 7.6033 15.2772 6.5672 15.1393 6.67156C15.0499 7.1952 14.5542 7.73934 14.5691 8.28348C14.5821 8.74376 15.1449 9.06428 14.9958 9.60656C14.3697 9.43698 14.5449 8.69718 14.3007 8.41579C14.079 8.16235 13.0168 7.89215 12.6888 7.65175L12.4801 9.74632L10.3855 9.3289C10.5682 9.82273 10.5272 10.8011 10.8141 11.2054C10.993 11.4552 11.69 11.5893 11.7832 12.1223C11.0079 12.126 11.0117 11.4291 10.2532 11.3489C9.81904 11.3023 9.28049 11.4812 8.85188 11.5707C8.87797 12.0943 9.23017 13.0466 9.69605 13.3019L9.69978 13.3056ZM22.3604 5.85534C21.7137 5.91498 21.4417 6.95481 21.9187 7.37223C22.7573 7.34241 22.9902 5.79758 22.3604 5.85534ZM7.73192 15.6182C7.43749 14.6492 6.80204 14.7722 6.05664 15.2045C6.52438 15.976 6.95112 16.0766 7.73192 15.6182ZM16.6078 6.67342C17.1724 6.01561 17.1836 5.24412 16.2611 5C15.8102 5.78826 15.9052 6.12555 16.6078 6.67342ZM19.6098 5C18.7228 5.24784 18.5961 6.04728 19.2632 6.67342C19.9658 6.12555 20.0608 5.7864 19.6098 5ZM14.0212 7.37409C14.7666 5.89075 12.7168 5.20126 13.1826 6.85604C13.2218 6.99394 13.8535 7.25669 14.0212 7.37409ZM11.6434 8.63009L11.5745 7.65735L10.6688 7.37596C10.4564 8.14558 10.7806 8.72886 11.6434 8.63009ZM15.7692 16.8015C15.7599 17.3475 15.9611 17.8991 16.4475 18.3389C18.1004 19.8278 19.9658 18.3594 20.1037 16.8015H19.6583C19.6061 17.5861 19.0992 18.3631 18.1079 18.4992C16.9506 18.6576 16.2686 17.737 16.2183 16.8015H15.7692ZM6.89521 21.2497C7.55489 21.833 8.32638 21.4603 8.4326 20.6254C7.64061 20.3366 7.17287 20.4074 6.89521 21.2497ZM8.43446 24.1176C9.4277 24.1307 9.67555 24.0337 9.83022 23.0014L8.73262 23.02L8.43446 24.1176ZM19.3881 16.8015H16.4904C16.5053 17.068 16.604 17.3475 16.8146 17.6215C17.7016 18.7675 19.2986 17.9233 19.3862 16.8015H19.3881ZM10.7377 25.2357L10.6707 26.2159C11.5558 26.2122 11.8689 25.7929 11.6453 24.9599L10.7377 25.2357ZM18.3837 23.7971C22.7797 23.4989 24.9115 20.1595 24.9171 16.8034H24.522C24.5313 19.8837 22.6846 22.9399 18.8048 23.3815C13.9392 23.9368 11.403 20.385 11.3546 16.8034H10.9893C11.062 20.4726 13.5945 24.1232 18.3837 23.7971ZM24.3003 16.8015H22.584C22.5728 17.0214 22.5616 17.2469 22.5598 17.4798C22.5542 18.0202 21.6262 19.8632 21.2274 20.2117C21.0261 20.3888 19.0471 21.4454 18.8346 21.4584C18.5178 21.477 18.2719 21.2534 18.0072 21.246C17.6178 21.2348 17.3643 21.5068 16.8146 21.4062C16.6543 21.3764 14.7871 20.3366 14.6436 20.2117C14.1722 19.7999 13.3205 18.1022 13.315 17.4761C13.3131 17.2134 13.3038 17.0028 13.2926 16.8015H11.6546L12.7615 17.478C12.769 17.56 12.0012 18.4693 11.7869 18.3892C11.6229 18.611 12.9739 18.8886 13.1845 18.8066L12.6255 20.2024L14.0212 20.0626L13.7436 21.6L15.1393 21.1807L15.2809 22.5784L16.5351 21.7398L17.0941 23.1355L17.8656 22.0193L18.911 23.1374L19.334 21.7416L20.5882 22.5802L20.7298 21.0428L22.1256 21.6019L21.8479 20.2061H23.3853L22.6865 18.8085L24.0804 18.4582L23.1058 17.4127L24.3636 16.85L24.2984 16.8034L24.3003 16.8015ZM14.4088 18.6986C14.5784 18.993 14.3268 19.3769 14.8542 19.8595C15.3313 20.2956 15.6872 20.085 15.9462 20.2359C16.0972 20.3235 16.1959 20.8863 16.7773 21.0149C17.4091 21.1546 17.5563 20.8229 17.888 20.7931C18.2141 20.7633 18.4843 21.2087 19.1999 20.9795C19.6844 20.8248 19.7999 20.3086 19.9229 20.2359C20.2024 20.0738 20.6497 20.3123 21.0876 19.7924C21.4305 19.3862 21.3131 18.9427 21.4659 18.7042C21.5702 18.542 21.9411 18.5346 22.1367 18.0463C22.4032 17.3848 22.0827 17.1761 22.0324 16.8015H20.5379C20.7205 16.9245 21.0596 16.8462 21.3429 17.0065C22.0082 17.3811 21.7342 18.2905 20.959 18.2047C20.6702 18.1731 20.4652 17.9438 20.1708 17.9699C20.5397 18.4787 21.1659 18.8439 20.6627 19.5073C19.9975 19.9956 19.6639 19.2427 19.1943 18.9464C19.2092 19.3638 19.6602 19.9956 19.267 20.3459C19.0359 20.5509 18.4358 20.5285 18.2476 20.3105C18.0669 20.0999 18.216 19.2576 17.8656 19.3657L17.5619 20.3552L16.5574 20.3235L16.6748 18.9464C16.3059 19.7272 14.8542 20.0105 15.0219 18.9073C15.1095 18.3352 15.6984 18.4339 15.6965 17.9681C13.9057 18.9129 13.4789 16.7587 15.417 16.8481C15.4095 16.8313 15.4002 16.8164 15.3909 16.8015H13.8684C13.8461 17.2488 13.3858 17.4668 13.8218 18.2383C13.9895 18.5364 14.3585 18.611 14.4088 18.6986ZM7.73379 17.9699C6.92503 17.5879 6.54488 17.5674 6.05664 18.3855L7.05547 18.7396C7.21201 18.6389 7.85305 18.1339 7.73379 17.9699ZM26.0426 23.0014L26.3538 23.9499C26.7116 24.0841 27.0787 24.0822 27.4403 23.9778L27.1402 23.02L26.0408 23.0014H26.0426ZM27.4403 20.6254C27.6229 21.4435 28.2937 21.8441 28.9739 21.2534L28.4633 20.5006L27.4403 20.6254ZM26.1731 20.2844C25.86 20.113 25.1836 20.2005 25.2041 19.6471C25.9383 19.5893 25.9569 20.1521 26.6688 20.0701C26.911 20.0421 28.1335 19.5576 28.1353 19.4365C27.7477 19.0619 27.4496 18.3128 26.9557 18.0911C26.639 17.9476 26.1358 18.1302 25.7612 17.9681C25.8041 17.1705 26.6949 17.8507 27.021 17.7724C27.2614 17.7146 28.2602 17.0475 28.4 16.8034H26.4135L25.3643 17.2916L25.2003 18.0352C25.7053 18.1563 26.0762 18.57 26.1824 19.088L24.945 19.2408L24.6636 19.8856C24.5798 20.1428 24.9357 20.072 25.1277 20.3533C25.1929 20.4502 25.3885 20.9832 25.3457 21.0447C24.8314 21.2422 24.5649 21.2236 24.0878 20.9683L23.6667 21.5329L24.086 22.8635C23.5772 22.9697 22.9269 22.3417 22.5542 22.5094C21.8777 22.8113 22.5579 23.5287 22.2691 24.1232C21.7547 24.03 21.3261 23.9182 21.0857 23.4356C20.0589 23.6722 20.7373 24.3804 20.0999 24.9618C19.3024 24.6487 19.6136 23.9406 18.5775 24.1157C18.4191 24.5183 18.4414 25.122 17.8842 25.2338C17.4929 24.9823 17.3625 24.5798 17.3737 24.1307C16.4456 23.8698 16.399 24.6245 15.7729 25.0997C15.3369 24.7475 15.4431 24.2145 15.4039 23.7244C14.5635 23.1952 14.4088 24.181 13.6075 24.263C13.4939 23.6983 13.3653 23.389 13.6877 22.8653C13.0932 22.0827 12.5602 22.9753 11.7906 22.8653C11.7683 22.2932 12.3199 21.7659 12.0515 21.2832C11.6788 20.6105 11.2744 21.505 10.5309 21.0484C10.5887 20.5341 10.7657 20.208 11.239 19.9937C10.952 19.0899 11.0024 19.4048 10.5179 19.2949C10.1992 19.2222 9.9029 19.0414 9.55442 19.0918C9.82463 18.5681 10.1265 18.2532 10.6762 18.0352C10.5328 17.0177 10.4769 17.4407 9.87122 17.1705C9.70164 17.0941 9.56188 16.9469 9.43702 16.8071H7.48594C7.91082 17.1034 8.31706 17.6848 8.84816 17.7836C9.31962 17.8712 9.69605 17.3121 10.2514 17.7631C9.84886 18.2755 9.3103 17.9233 8.91711 18.0948C8.42701 18.3072 8.12139 19.0731 7.73751 19.4402C7.73751 19.6005 9.08855 20.0533 9.3513 20.0738C9.96439 20.1223 9.94389 19.5036 10.6688 19.6508C10.6744 20.3552 9.9383 20.1651 9.69978 20.2825C9.20222 20.5267 8.99537 21.518 8.85188 22.0249C9.3103 22.023 9.84699 22.3156 10.2868 22.2727C10.9502 22.2113 11.0527 21.4211 11.7869 21.4677C11.5838 22.2206 10.8887 22.0286 10.6371 22.7628C10.4638 23.2734 10.5328 23.7412 10.529 24.2611C11.0247 24.0151 11.9583 24.1903 12.4 23.8567C12.5472 23.7449 12.4727 22.897 13.1826 23.0032C13.3522 23.6312 12.5621 23.7952 12.4838 24.1884C12.3683 24.7624 12.659 25.3643 12.6255 25.9382C13.0746 25.6475 13.7995 25.5693 14.1703 25.1798C14.5374 24.7941 14.4461 24.0095 14.9996 23.9834C15.2754 24.4884 14.5691 25.0251 14.571 25.1612C14.5803 25.7333 14.9548 26.4134 15.2083 26.9166C15.6406 26.6091 16.5556 26.1414 16.6357 25.573C16.6786 25.2618 16.3823 24.7754 16.9562 24.5425C17.3252 25.0568 16.8016 25.4854 16.8724 25.7985C16.9264 26.037 17.8004 27.2408 18.0035 27.1961C18.2756 26.8439 18.9073 26.2103 19.0005 25.7985C19.0713 25.4817 18.5402 25.0512 18.9166 24.5425C19.5241 24.7978 19.1328 25.4966 19.2576 25.7948C19.3378 25.9867 20.5919 27.0228 20.7298 26.9184C20.8193 26.3948 21.3149 25.8507 21.3 25.3065C21.287 24.8462 20.7242 24.5257 20.8733 23.9834C21.4994 24.153 21.3243 24.8928 21.5684 25.1742C21.7901 25.4276 22.8523 25.6979 23.1803 25.9382L23.389 23.8437L25.4836 24.2611C25.301 23.7673 25.342 22.7889 25.055 22.3846C24.8761 22.1348 24.1791 22.0007 24.086 21.4677C24.8612 21.464 24.8575 22.1609 25.6159 22.2411C26.0501 22.2877 26.5886 22.1088 27.0172 22.0193C26.9912 21.4957 26.639 20.5434 26.1731 20.2881V20.2844ZM13.5125 27.7347C14.1591 27.675 14.4312 26.6352 13.9541 26.2178C13.1156 26.2476 12.8826 27.7924 13.5125 27.7347ZM28.1391 17.9718C28.4335 18.9408 29.069 18.8178 29.8144 18.3855C29.3466 17.614 28.9199 17.5134 28.1391 17.9718ZM19.2632 26.9166C18.6986 27.5744 18.6874 28.3459 19.6098 28.59C20.0608 27.8017 19.9658 27.4644 19.2632 26.9166ZM16.2611 28.59C17.1482 28.3422 17.2749 27.5427 16.6078 26.9166C15.9052 27.4644 15.8102 27.8036 16.2611 28.59ZM21.8516 26.2159C21.1062 27.6992 23.1561 28.3887 22.6902 26.734C22.6511 26.5961 22.0193 26.3333 21.8516 26.2159ZM24.2295 24.9599L24.2984 25.9327L25.2041 26.214C25.4165 25.4444 25.0923 24.8611 24.2295 24.9599Z" fill="white"/>
</svg>
