<svg width="35" height="43" viewBox="0 0 35 43" fill="none" xmlns="http://www.w3.org/2000/svg">
<path d="M28.6141 3.98652C26.597 2.3349 24.2385 1.15153 21.7086 0.521759C19.1788 -0.10801 16.5407 -0.168478 13.9847 0.344715C10.6982 1.01852 7.67464 2.62284 5.2742 4.96657C2.87377 7.3103 1.19764 10.2947 0.445478 13.5641C-0.306683 16.8336 -0.103169 20.2504 1.03178 23.4074C2.16672 26.5645 4.18526 29.3288 6.84694 31.371C9.88585 33.5952 12.4733 36.3779 14.4708 39.5704L15.8319 41.8336C16.0047 42.1211 16.249 42.359 16.541 42.5241C16.833 42.6893 17.1627 42.776 17.4982 42.776C17.8336 42.776 18.1634 42.6893 18.4554 42.5241C18.7473 42.359 18.9916 42.1211 19.1645 41.8336L20.4692 39.6598C22.2086 36.6021 24.5804 33.9506 27.4261 31.8824C29.6575 30.3471 31.5016 28.3144 32.8129 25.9445C34.1242 23.5746 34.8668 20.9324 34.9822 18.2264C35.0976 15.5204 34.5826 12.8246 33.4778 10.3517C32.373 7.87875 30.7086 5.6964 28.6161 3.97679L28.6141 3.98652Z" fill="#0097DC"/>
<path fill-rule="evenodd" clip-rule="evenodd" d="M17.6592 19.4998L24.6035 18.6384L27.5039 25.032L27.0693 14.2839L17.6592 19.4998ZM7.49609 25.032L10.3965 18.6384L17.3408 19.4998L7.93066 14.2839L7.49609 25.032ZM13.2471 16.3601L14.7773 17.2761L17.501 15.2253L20.2227 17.2761L21.7529 16.3601L17.5 9.3562L13.2471 16.3601Z" fill="white"/>
</svg>
