<svg width="35" height="43" viewBox="0 0 35 43" fill="none" xmlns="http://www.w3.org/2000/svg">
<path d="M28.6141 3.98652C26.597 2.3349 24.2385 1.15153 21.7086 0.521759C19.1788 -0.10801 16.5407 -0.168478 13.9847 0.344715C10.6982 1.01852 7.67464 2.62284 5.2742 4.96657C2.87377 7.3103 1.19764 10.2947 0.445478 13.5641C-0.306683 16.8336 -0.103169 20.2504 1.03178 23.4074C2.16672 26.5645 4.18526 29.3288 6.84694 31.371C9.88585 33.5952 12.4733 36.3779 14.4708 39.5704L15.8319 41.8336C16.0047 42.1211 16.249 42.359 16.541 42.5241C16.833 42.6893 17.1627 42.776 17.4982 42.776C17.8336 42.776 18.1634 42.6893 18.4554 42.5241C18.7473 42.359 18.9916 42.1211 19.1645 41.8336L20.4692 39.6598C22.2086 36.6021 24.5804 33.9506 27.4261 31.8824C29.6575 30.3471 31.5016 28.3144 32.8129 25.9445C34.1242 23.5746 34.8668 20.9324 34.9822 18.2264C35.0976 15.5204 34.5826 12.8246 33.4778 10.3517C32.373 7.87875 30.7086 5.6964 28.6161 3.97679L28.6141 3.98652Z" fill="#0097DC"/>
<path d="M18.6166 13.7448C18.9179 13.7544 19.2509 13.6751 19.6252 13.5133C19.9994 13.3516 20.3768 13.1327 20.7638 12.86C21.1539 12.5872 21.5313 12.2764 21.8961 11.9243C22.264 11.5723 22.5907 11.2075 22.8761 10.8365C23.1615 10.4622 23.3931 10.1006 23.5643 9.73907C23.7388 9.38068 23.8276 9.06034 23.8276 8.78124C23.8276 8.50213 23.7229 8.27695 23.5073 8.10568C23.2916 7.93441 22.9522 7.85195 22.4765 7.85195C21.8485 7.85195 21.1888 8.00736 20.5005 8.31818C19.8155 8.62583 19.1177 9.04765 18.4168 9.58049C17.7158 10.1133 17.0181 10.7318 16.3267 11.4391C15.6321 12.1463 14.9724 12.898 14.3381 13.6973C13.7037 14.4965 13.1138 15.318 12.5746 16.1585C12.0323 17.0021 11.5565 17.8204 11.1506 18.6197C10.7446 19.4189 10.4179 20.1706 10.1705 20.8779C9.92313 21.5851 9.78675 22.2036 9.75821 22.7364C9.72966 23.2693 9.82164 23.6911 10.0278 23.9987C10.234 24.3064 10.586 24.4618 11.0808 24.4618C11.4392 24.4618 11.8071 24.3603 12.1845 24.1573C12.5619 23.9543 12.9362 23.6879 13.3104 23.3581C13.6847 23.0282 14.0463 22.6571 14.3983 22.2385C14.7504 21.8198 15.0739 21.4012 15.3625 20.9762C15.6067 20.6083 15.8319 20.253 16.0444 19.9169C16.2569 19.5775 16.4313 19.2603 16.5741 18.9654C16.7168 18.6704 16.8183 18.3945 16.8785 18.1439C16.942 17.8933 16.9483 17.6745 16.9007 17.4906C17.7444 17.4493 18.366 17.5096 18.7752 17.6586C19.1811 17.8077 19.419 18.0329 19.4856 18.3279C19.5554 18.6228 19.4824 18.9844 19.2668 19.4094C19.0511 19.8344 18.7561 20.2975 18.366 20.7954C17.9791 21.2933 17.5319 21.8198 17.0213 22.3717C16.5138 22.9236 15.9968 23.4786 15.4735 24.0336C14.9502 24.5887 14.4491 25.1374 13.9701 25.6734C13.4912 26.2094 13.0853 26.7168 12.7491 27.1926C12.416 27.6683 12.1782 28.0965 12.045 28.4771C11.9118 28.8577 11.9276 29.178 12.102 29.4286C11.7817 29.1368 11.6041 28.7847 11.5724 28.3693C11.5407 27.9506 11.6009 27.4939 11.7595 26.9959C11.9181 26.498 12.156 25.9683 12.47 25.407C12.784 24.8456 13.1297 24.2779 13.5071 23.707C13.0726 24.0844 12.6317 24.392 12.194 24.6299C11.7532 24.8646 11.3345 24.9851 10.9381 24.9851C10.1547 24.9851 9.51716 24.8202 9.03508 24.4904C8.55299 24.1605 8.20411 23.7133 7.99795 23.1456C7.79179 22.5779 7.7125 21.9213 7.76642 21.1697C7.82034 20.418 7.98844 19.6187 8.26754 18.7719C8.54664 17.9251 8.93675 17.056 9.42836 16.1648C9.92313 15.2767 10.5067 14.4045 11.1791 13.5577C11.8515 12.7109 12.6063 11.9148 13.4437 11.1631C14.2841 10.4115 15.1849 9.75493 16.1586 9.18721C17.1323 8.61948 18.163 8.17545 19.2509 7.84243C20.3388 7.51258 21.4679 7.34766 22.6414 7.34766C23.5834 7.34766 24.316 7.47452 24.8489 7.73142C25.3817 7.98833 25.7464 8.32452 25.9367 8.73366C26.1302 9.1428 26.1714 9.60269 26.0668 10.0975C25.9621 10.5954 25.7433 11.0902 25.4198 11.5723C25.0962 12.0544 24.6839 12.5047 24.1765 12.9234C23.6722 13.342 23.1171 13.6687 22.505 13.9034C21.8961 14.1381 21.2554 14.2587 20.5893 14.2587C19.9233 14.2587 19.2573 14.0842 18.6007 13.7353L18.6166 13.7448Z" fill="white"/>
</svg>
