<svg width="35" height="43" viewBox="0 0 35 43" fill="none" xmlns="http://www.w3.org/2000/svg">
<path d="M28.6141 3.98652C26.597 2.3349 24.2385 1.15153 21.7086 0.521759C19.1788 -0.10801 16.5407 -0.168478 13.9847 0.344715C10.6982 1.01852 7.67464 2.62284 5.2742 4.96657C2.87377 7.3103 1.19764 10.2947 0.445478 13.5641C-0.306683 16.8336 -0.103169 20.2504 1.03178 23.4074C2.16672 26.5645 4.18526 29.3288 6.84694 31.371C9.88585 33.5952 12.4733 36.3779 14.4708 39.5704L15.8319 41.8336C16.0047 42.1211 16.249 42.359 16.541 42.5241C16.833 42.6893 17.1627 42.776 17.4982 42.776C17.8336 42.776 18.1634 42.6893 18.4554 42.5241C18.7473 42.359 18.9916 42.1211 19.1645 41.8336L20.4692 39.6598C22.2086 36.6021 24.5804 33.9506 27.4261 31.8824C29.6575 30.3471 31.5016 28.3144 32.8129 25.9445C34.1242 23.5746 34.8668 20.9324 34.9822 18.2264C35.0976 15.5204 34.5826 12.8246 33.4778 10.3517C32.373 7.87875 30.7086 5.6964 28.6161 3.97679L28.6141 3.98652Z" fill="#0097DC"/>
<g clip-path="url(#clip0_31_2)">
<path d="M22.398 18.8279C22.2452 18.729 21.9711 18.6786 21.4375 18.9086V19.7479H23.304C23.3228 19.7418 23.3417 19.7338 23.3584 19.7297C23.2643 19.6995 23.1262 19.647 22.988 19.5441C22.6323 19.2838 22.6365 18.9792 22.4001 18.8258L22.398 18.8279Z" fill="white"/>
<path d="M25.31 18.3601C25.0778 18.2108 24.6614 18.1342 23.8516 18.4832V19.7502H26.7141C26.7329 19.7442 26.7518 19.7361 26.7685 19.7321C26.6241 19.6877 26.4149 19.605 26.2035 19.4516C25.6616 19.0562 25.6699 18.5942 25.31 18.3621V18.3601Z" fill="white"/>
<path d="M22.162 16.9254C21.7184 16.8709 21.5656 16.6066 21.2811 16.5884C21.0969 16.5763 20.8354 16.6651 20.4922 17.1211L21.3438 18.5435C21.9256 18.485 22.1369 18.3094 22.2164 18.15C22.342 17.9039 22.1808 17.6436 22.3545 17.2462C22.4215 17.0908 22.5135 16.9778 22.5805 16.9072C22.4822 16.9274 22.3357 16.9476 22.162 16.9254Z" fill="white"/>
<path d="M18.4378 15.0046C18.2787 14.7766 17.9649 14.7807 17.6928 14.4377C17.5882 14.3045 17.5317 14.1714 17.5003 14.0806C17.4689 14.1714 17.4145 14.3045 17.3078 14.4377C17.0379 14.7807 16.7219 14.7766 16.5629 15.0046C16.4604 15.1519 16.408 15.4162 16.6466 15.9307H18.3499C18.5884 15.4162 18.5361 15.1519 18.4336 15.0046H18.4378Z" fill="white"/>
<path d="M24.8898 15.2913C24.216 15.2086 23.9816 14.8071 23.5506 14.7789C23.2723 14.7607 22.8726 14.8959 22.3516 15.5879L23.6468 17.7488C24.5299 17.66 24.8521 17.3937 24.9735 17.1516C25.1639 16.7763 24.9191 16.3808 25.1827 15.7776C25.2853 15.5415 25.4234 15.37 25.5259 15.2631C25.3773 15.2934 25.1555 15.3236 24.8919 15.2913H24.8898Z" fill="white"/>
<path d="M29.5187 17.3996C29.1253 17.1454 28.4159 17.0163 27.0391 17.6094V19.7501H31.9397C31.9585 19.744 31.9795 19.738 31.9962 19.7319C31.7514 19.6553 31.3957 19.5161 31.0378 19.2538C30.1171 18.5799 30.1297 17.7971 29.5187 17.3996Z" fill="white"/>
<path d="M13.5594 18.9105C13.0259 18.6805 12.7517 18.731 12.599 18.8298C12.3625 18.9832 12.3667 19.2858 12.011 19.5481C11.8729 19.649 11.7348 19.7034 11.6406 19.7337C11.6574 19.7397 11.6762 19.7458 11.695 19.7519H13.5594V18.9125V18.9105Z" fill="white"/>
<path d="M11.1513 18.4832C10.3415 18.1342 9.92512 18.2108 9.69285 18.3601C9.33294 18.5921 9.34131 19.0542 8.79935 19.4496C8.58801 19.605 8.37876 19.6857 8.23438 19.7301C8.25112 19.7361 8.26995 19.7422 8.28878 19.7482H11.1513V18.4812V18.4832Z" fill="white"/>
<path d="M14.2355 16.0903C14.2229 16.2679 14.315 16.5201 14.7879 16.8509L16.2631 16.0298C16.2024 15.4689 16.0204 15.2651 15.855 15.1885C15.5998 15.0674 15.3298 15.2228 14.9176 15.0553C14.7565 14.9907 14.6393 14.902 14.5661 14.8374C14.587 14.9322 14.6079 15.0735 14.5849 15.2409C14.5284 15.6686 14.2543 15.8159 14.2355 16.0903Z" fill="white"/>
<path d="M20.0799 15.0553C19.6676 15.2228 19.3977 15.0674 19.1424 15.1885C18.9771 15.2671 18.7951 15.4709 18.7344 16.0298L20.2096 16.8509C20.6825 16.5201 20.7746 16.2659 20.762 16.0903C20.7432 15.8159 20.467 15.6686 20.4126 15.2409C20.3916 15.0735 20.4126 14.9322 20.4314 14.8374C20.3582 14.902 20.241 14.9887 20.0799 15.0553Z" fill="white"/>
<path d="M12.8404 16.9254C12.6667 16.9456 12.5202 16.9254 12.4219 16.9072C12.4888 16.9778 12.5788 17.0908 12.6479 17.2462C12.8215 17.6436 12.6604 17.9039 12.786 18.15C12.8676 18.3094 13.0789 18.485 13.6585 18.5435L14.5102 17.1211C14.167 16.6651 13.9034 16.5763 13.7213 16.5884C13.4367 16.6066 13.284 16.8729 12.8404 16.9254Z" fill="white"/>
<path d="M10.8203 12.8239L14.6308 10.7014C14.4738 9.25478 14.0051 8.72819 13.5782 8.52644C12.917 8.21371 12.2202 8.61723 11.1551 8.18546C10.7387 8.01599 10.4374 7.79002 10.247 7.62256C10.3014 7.86467 10.3537 8.23187 10.2972 8.66161C10.1528 9.76725 9.44136 10.1486 9.39324 10.8567C9.36185 11.3127 9.60039 11.9684 10.8203 12.8239Z" fill="white"/>
<path d="M19.7011 10.5316C20.3163 9.20202 20.1824 8.52008 19.9188 8.14077C19.5086 7.55164 18.6946 7.56374 17.9957 6.67601C17.7237 6.32898 17.5793 5.98801 17.4998 5.75195C17.4203 5.98801 17.2759 6.331 17.0039 6.67601C16.305 7.56374 15.4931 7.55164 15.0809 8.14077C14.8172 8.52008 14.6833 9.20404 15.2985 10.5316H19.699H19.7011Z" fill="white"/>
<path d="M17.7952 11.3387C17.6341 11.1349 17.5504 10.9332 17.5044 10.7939C17.4583 10.9332 17.3725 11.1349 17.2135 11.3387C16.8034 11.8612 16.3242 11.8532 16.0835 12.2002C15.9287 12.4242 15.8492 12.8256 16.2112 13.6065H18.7996C19.1616 12.8256 19.0821 12.4242 18.9273 12.2002C18.6866 11.8532 18.2074 11.8612 17.7973 11.3387H17.7952Z" fill="white"/>
<path d="M7.95714 19.7501V17.6094C6.57818 17.0163 5.87091 17.1454 5.47752 17.3996C4.86651 17.7951 4.87907 18.5799 3.95837 19.2538C3.59846 19.5161 3.24482 19.6553 3 19.7319C3.01883 19.738 3.03767 19.744 3.0565 19.7501H7.95714Z" fill="white"/>
<path d="M5.88275 15.955C6.092 16.3666 6.63815 16.8185 8.13847 16.9698L10.3398 13.2958C9.45466 12.1176 8.77459 11.8875 8.29959 11.9198C7.56513 11.9683 7.16964 12.6542 6.02295 12.7914C5.57516 12.8459 5.19641 12.7955 4.94531 12.743C5.1169 12.9266 5.35335 13.2192 5.52912 13.6186C5.97692 14.6456 5.56051 15.3195 5.88275 15.955Z" fill="white"/>
<path d="M13.4046 12.3231C13.1597 12.2242 12.9819 12.091 12.871 11.9922C12.9024 12.1354 12.9338 12.3493 12.9003 12.6035C12.8145 13.2532 12.3981 13.4791 12.3688 13.8948C12.3499 14.1631 12.4901 14.5485 13.2079 15.0508L15.4489 13.802C15.3569 12.9505 15.0807 12.6398 14.8296 12.5228C14.4404 12.3392 14.0302 12.5753 13.4046 12.3211V12.3231Z" fill="white"/>
<path d="M11.4498 14.7789C11.0187 14.8071 10.7844 15.2106 10.1106 15.2913C9.84694 15.3236 9.62513 15.2913 9.47656 15.2631C9.577 15.3721 9.7172 15.5435 9.81973 15.7776C10.0834 16.3808 9.83857 16.7783 10.029 17.1516C10.1524 17.3937 10.4726 17.66 11.3556 17.7488L12.6509 15.5879C12.1299 14.8959 11.7302 14.7607 11.4519 14.7789H11.4498Z" fill="white"/>
<path d="M24.6641 13.2935L26.8654 16.9676C28.3657 16.8162 28.9118 16.3643 29.1211 15.9527C29.4454 15.3152 29.0269 14.6433 29.4747 13.6164C29.6505 13.2149 29.8849 12.9243 30.0585 12.7407C29.8074 12.7932 29.4266 12.8436 28.9809 12.7892C27.8342 12.6499 27.4387 11.964 26.7043 11.9176C26.2313 11.8873 25.5513 12.1173 24.6641 13.2935Z" fill="white"/>
<path d="M25.6047 10.8587C25.5545 10.1505 24.8431 9.7692 24.7008 8.66357C24.6443 8.2318 24.6966 7.86662 24.751 7.62451C24.5606 7.78995 24.2572 8.01794 23.8428 8.18742C22.7778 8.61918 22.0789 8.21768 21.4197 8.52839C20.9928 8.73015 20.5241 9.25674 20.3672 10.7033L24.1776 12.8258C25.3997 11.9724 25.6382 11.3167 25.6047 10.8587Z" fill="white"/>
<path d="M19.5547 13.8044L21.7958 15.0533C22.5135 14.5509 22.6537 14.1655 22.6349 13.8972C22.6056 13.4816 22.1871 13.2556 22.1034 12.606C22.0699 12.3517 22.1034 12.1379 22.1327 11.9946C22.0197 12.0915 21.8418 12.2267 21.5991 12.3255C20.9734 12.5797 20.5612 12.3437 20.1741 12.5273C19.923 12.6463 19.6468 12.955 19.5547 13.8064V13.8044Z" fill="white"/>
</g>
<defs>
<clipPath id="clip0_31_2">
<rect width="29" height="14" fill="white" transform="translate(3 5.75)"/>
</clipPath>
</defs>
</svg>
