<svg width="35" height="43" viewBox="0 0 35 43" fill="none" xmlns="http://www.w3.org/2000/svg">
<path d="M28.6141 3.98652C26.597 2.3349 24.2385 1.15153 21.7086 0.521759C19.1788 -0.10801 16.5407 -0.168478 13.9847 0.344715C10.6982 1.01852 7.67464 2.62284 5.2742 4.96657C2.87377 7.3103 1.19764 10.2947 0.445478 13.5641C-0.306683 16.8336 -0.103169 20.2504 1.03178 23.4074C2.16672 26.5645 4.18526 29.3288 6.84694 31.371C9.88585 33.5952 12.4733 36.3779 14.4708 39.5704L15.8319 41.8336C16.0047 42.1211 16.249 42.359 16.541 42.5241C16.833 42.6893 17.1627 42.776 17.4982 42.776C17.8336 42.776 18.1634 42.6893 18.4554 42.5241C18.7473 42.359 18.9916 42.1211 19.1645 41.8336L20.4692 39.6598C22.2086 36.6021 24.5804 33.9506 27.4261 31.8824C29.6575 30.3471 31.5016 28.3144 32.8129 25.9445C34.1242 23.5746 34.8668 20.9324 34.9822 18.2264C35.0976 15.5204 34.5826 12.8246 33.4778 10.3517C32.373 7.87875 30.7086 5.6964 28.6161 3.97679L28.6141 3.98652Z" fill="#0097DC"/>
<path d="M24.1924 16.605C24.0621 14.5962 21.8687 13.2617 20.1225 14.3506C19.2484 14.8921 18.8173 15.975 19.0038 16.8646C19.517 19.6745 24.1904 19.91 24.1904 16.605H24.1924Z" fill="white"/>
<path d="M24.1755 16.4635C24.0292 14.8512 22.6819 13.9475 21.3928 13.9616C20.2039 13.9737 19.0671 14.7748 18.9609 16.3448C18.8666 18.1563 20.5267 19.1385 22.0023 19.0298C23.2292 18.9393 24.3279 18.0738 24.1735 16.4635H24.1755ZM20.6289 17.8705C17.0943 16.7071 21.6354 12.7277 23.1049 15.5316C24.5524 18.5206 21.2925 19.6739 20.6289 17.8705Z" fill="url(#paint0_radial_61_533)"/>
<path d="M26.3983 10.2842C26.1857 8.57935 26.5406 10.5137 26.0675 11.9186C25.5843 13.3316 24.4956 14.3098 24.4134 14.2253C24.3312 14.0602 26.699 12.2306 25.7808 8.55117C25.7246 8.32574 25.7547 8.40223 25.7547 8.79271C25.7547 11.8441 23.1263 13.2672 23.6356 12.7801C25.6966 10.8055 25.869 7.96947 24.9147 6.57661C24.215 5.29043 26.0675 8.10836 24.1007 10.7431C23.4671 11.6046 22.6472 11.987 22.8938 11.7395C24.1729 10.7029 24.8305 9.09664 24.7904 7.5025C24.213 9.81723 21.7891 10.1956 21.8392 12.1722C21.8392 12.46 21.2317 11.6127 22.5269 10.1614C22.9599 9.61997 23.0381 9.56563 23.1444 9.24559C23.3128 8.85108 23.2506 8.3036 23.0181 7.94331C23.3789 9.153 21.9054 9.77496 21.2558 11.2826C21.2137 11.345 21.1495 11.3007 21.1656 11.2463C22.0076 9.1369 21.9154 9.39655 21.2097 10.6626C20.536 11.8723 19.696 14.2615 20.1451 12.3675C20.2533 11.9126 20.3857 11.4697 20.5741 11.0289C19.3532 12.923 19.5296 13.9374 19.3572 13.9374C19.1847 13.9374 19.3872 12.611 19.5817 12.0152C19.1667 12.768 18.8259 14.0844 18.876 14.9418C20.3516 12.7479 23.3288 13.0297 24.4656 15.6322C25.6284 14.4004 26.5907 12.3252 26.3963 10.2802L26.3983 10.2842Z" fill="white"/>
<path d="M26.1468 15.3128C26.4837 14.4312 26.1328 13.3865 27.2114 12.1245C26.4275 12.517 26.3413 13.4691 26.0225 14.1091C25.6316 14.9646 24.6933 15.6348 24.4668 15.6348C25.3188 17.7765 23.6768 19.8819 21.1668 19.4511C18.8692 19.0345 17.8046 16.6352 18.8772 14.9445C18.7308 14.0789 18.803 13.1853 19.1358 12.3238C18.4742 13.5073 18.1755 14.7251 18.366 16.0676C18.366 16.3695 18.0211 15.7435 18.1254 14.8116C18.2316 13.8434 18.5303 12.4284 18.0893 14.2017C17.8206 15.7999 17.9028 16.7057 18.4923 18.4749C18.9353 19.7792 18.6627 19.6182 18.6627 19.5518C18.6366 19.3545 18.5504 19.1955 18.4662 19.0123C18.37 18.807 18.2938 18.642 18.1715 18.1146C17.2994 14.8639 18.0311 15.6248 17.7164 13.7247C17.8327 15.0089 17.153 15.0109 17.153 17.0197C17.153 18.6641 17.3054 18.8312 17.3054 19.0929C17.3054 19.58 16.4393 17.1606 17.3595 14.6043C16.9986 15.2625 16.724 16.1079 16.6618 16.8586C16.6618 16.9653 16.2729 16.9009 16.6438 15.037C15.8338 16.1199 15.9761 17.2914 16.1967 18.5111C16.728 21.5606 15.519 22.4401 15.6874 22.0839C16.6217 20.1133 15.3607 18.7889 15.5712 16.1662C15.3707 17.1062 15.3386 17.8952 15.4007 18.483C15.7336 21.637 14.2901 23.4425 14.1938 23.364C14.1858 23.358 14.6509 22.5368 14.9096 21.625C15.0278 21.2103 15.1501 20.7152 15.084 20.381C14.7412 21.7799 14.5747 22.5951 13.1132 23.9779C12.3874 24.6703 11.6637 24.6583 11.5755 24.5697L10.9219 25.1433C11.6998 25.0447 14.0976 25.8076 15.2584 26.2202C13.1152 25.1433 12.4596 25.2158 12.4596 25.0628C12.4596 24.6462 15.6093 26.0652 15.7155 26.1035C17.7805 26.8502 13.5783 25.0347 13.5783 24.9461C13.6305 24.8394 13.8791 24.9541 14.0334 24.9541C15.6093 25.244 16.2147 26.1618 17.4938 26.3369C17.8748 26.4014 17.544 26.4658 15.8218 25.4654C15.1481 25.0749 13.9973 24.7468 13.9071 24.7468C12.618 24.614 14.8354 24.3584 16.1786 24.8636C17.0768 25.1917 17.957 25.6868 19.2822 25.564C20.1383 25.5077 19.2581 25.554 18.7188 25.4111C16.73 24.7448 16.4032 24.1792 14.4805 24.2255C14.4264 24.2255 14.4204 24.1611 14.4725 24.1349C16.7019 23.7565 17.8046 25.0025 19.633 24.9159C18.1615 24.62 17.7565 24.3423 17.6382 24.3423C15.7115 23.6519 15.4829 23.7263 15.4829 23.6337C15.4829 23.511 16.2548 23.4647 16.6819 23.5351C17.7725 23.6961 18.9393 24.8495 21.1888 24.3423C19.8455 24.5113 18.4722 24.1591 17.0207 22.9957C16.8763 22.7058 17.973 23.4365 18.1655 23.4365L18.1735 23.4445C19.3844 23.8934 20.3929 24.1812 21.7421 23.7767C20.2164 23.7263 19.0195 22.8467 19.1138 22.7521C19.194 22.5891 20.7477 24.0142 23.1656 23.1567C21.4755 23.5814 19.6992 22.6414 19.8215 22.5187C19.8756 22.3536 21.0705 23.2896 23.0132 22.7079C23.5165 22.5629 22.9631 22.7421 22.3957 22.7884C20.9823 22.9051 19.6791 22.2187 19.7313 22.1141C19.7814 22.0134 20.2265 22.3375 21.4755 22.3476C22.0068 22.3516 21.1547 22.4059 20.2144 21.943C20.1603 21.9068 20.1783 21.8524 20.2505 21.8524C22.2013 22.5247 24.0538 21.7961 25.0983 20.6407C23.4302 22.1262 19.6791 21.0453 20.4209 21.0453C23.6508 21.6592 25.9464 19.8778 26.1268 17.706C25.8341 18.5252 25.4131 19.2418 24.7775 19.8074C23.2719 21.1801 21.6098 20.5642 20.9763 20.4817C20.018 20.3851 19.6431 20.7595 19.5809 20.6347C19.5548 20.5562 19.8415 20.4736 19.9197 20.4555C20.449 20.2784 21.0184 20.2844 21.5737 20.2844C23.5465 20.2844 23.7731 19.9604 23.9355 19.898C24.3826 19.6746 23.9896 19.8497 23.8994 19.8799C23.8954 19.8799 23.8613 19.8899 23.8553 19.898C23.4022 20.061 22.5501 20.0892 22.5501 19.9604C22.5501 19.8195 23.6287 20.0087 24.553 18.8654C24.1721 19.2217 23.727 19.4572 23.2378 19.6101C20.8379 20.1455 26.7263 18.64 26.7263 14.8881C26.4436 16.3031 24.9058 16.8043 24.8477 16.6292C24.7855 16.5044 25.7399 16.4541 26.1529 15.3088L26.1468 15.3128Z" fill="white"/>
<path d="M6.02344 26.4917C6.02344 26.4917 6.50059 25.0263 8.73402 24.7727C10.2156 24.6037 12.3308 24.6721 13.1227 24.0803C13.8745 23.5188 13.241 24.5111 13.241 24.5111C13.241 24.5111 13.3252 24.97 12.1884 25.1008C11.0516 25.2317 7.37071 25.0404 6.78529 26.4051C6.37028 27.3693 6.02344 26.4917 6.02344 26.4917Z" fill="white"/>
<path d="M22.741 16.3528C22.6788 16.1395 22.5866 15.9362 22.4723 15.747C22.344 15.5336 22.1475 15.3706 21.9089 15.3062C21.5781 15.2176 21.2233 15.2317 20.9085 15.3565C19.5191 15.8597 20.0344 17.6632 21.1671 17.3049C21.0468 18.5327 23.3364 18.3274 22.741 16.3528Z" fill="url(#paint1_radial_61_533)"/>
<defs>
<radialGradient id="paint0_radial_61_533" cx="0" cy="0" r="1" gradientUnits="userSpaceOnUse" gradientTransform="translate(18.4937 20.7729) scale(7.67263 7.70301)">
<stop/>
<stop offset="0.08" stop-color="#051B08"/>
<stop offset="0.26" stop-color="#0E5118"/>
<stop offset="0.42" stop-color="#167C24"/>
<stop offset="0.57" stop-color="#1C9A2D"/>
<stop offset="0.7" stop-color="#1FAD33"/>
<stop offset="0.79" stop-color="#21B435"/>
<stop offset="1" stop-color="#758626"/>
</radialGradient>
<radialGradient id="paint1_radial_61_533" cx="0" cy="0" r="1" gradientUnits="userSpaceOnUse" gradientTransform="translate(21.4799 16.4857) scale(2.17528 2.1839)">
<stop offset="0.36" stop-color="#184189"/>
<stop offset="0.45" stop-color="#173E85" stop-opacity="0.96"/>
<stop offset="0.57" stop-color="#17387C" stop-opacity="0.85"/>
<stop offset="0.69" stop-color="#172D6D" stop-opacity="0.68"/>
<stop offset="0.82" stop-color="#161E58" stop-opacity="0.43"/>
<stop offset="0.96" stop-color="#150A3E" stop-opacity="0.11"/>
<stop offset="1" stop-color="#150435" stop-opacity="0"/>
</radialGradient>
</defs>
</svg>
