<svg width="35" height="43" viewBox="0 0 35 43" fill="none" xmlns="http://www.w3.org/2000/svg">
<path d="M28.6141 3.98652C26.597 2.3349 24.2385 1.15153 21.7086 0.521759C19.1788 -0.10801 16.5407 -0.168478 13.9847 0.344715C10.6982 1.01852 7.67464 2.62284 5.2742 4.96657C2.87377 7.3103 1.19764 10.2947 0.445478 13.5641C-0.306683 16.8336 -0.103169 20.2504 1.03178 23.4074C2.16672 26.5645 4.18526 29.3288 6.84694 31.371C9.88585 33.5952 12.4733 36.3779 14.4708 39.5704L15.8319 41.8336C16.0047 42.1211 16.249 42.359 16.541 42.5241C16.833 42.6893 17.1627 42.776 17.4982 42.776C17.8336 42.776 18.1634 42.6893 18.4554 42.5241C18.7473 42.359 18.9916 42.1211 19.1645 41.8336L20.4692 39.6598C22.2086 36.6021 24.5804 33.9506 27.4261 31.8824C29.6575 30.3471 31.5016 28.3144 32.8129 25.9445C34.1242 23.5746 34.8668 20.9324 34.9822 18.2264C35.0976 15.5204 34.5826 12.8246 33.4778 10.3517C32.373 7.87875 30.7086 5.6964 28.6161 3.97679L28.6141 3.98652Z" fill="#0097DC"/>
<path d="M24.1924 16.605C24.0621 14.5962 21.8687 13.2617 20.1225 14.3506C19.2484 14.8921 18.8173 15.975 19.0038 16.8646C19.517 19.6745 24.1904 19.91 24.1904 16.605H24.1924Z" fill="white"/>
<path d="M24.1755 16.465C24.0292 14.8527 22.6819 13.949 21.3928 13.9631C20.2039 13.9751 19.0671 14.7762 18.9609 16.3462C18.8666 18.1577 20.5267 19.14 22.0023 19.0313C23.2292 18.9407 24.3279 18.0752 24.1735 16.465H24.1755ZM20.6289 17.8719C17.0943 16.7085 21.6354 12.7292 23.1049 15.533C24.5524 18.5221 21.2925 19.6754 20.6289 17.8719Z" fill="url(#paint0_radial_54_65)"/>
<path d="M26.3983 10.2847C26.1857 8.57984 26.5406 10.5141 26.0675 11.9191C25.5843 13.3321 24.4956 14.3103 24.4134 14.2258C24.3312 14.0607 26.699 12.2311 25.7808 8.55166C25.7246 8.32623 25.7547 8.40271 25.7547 8.7932C25.7547 11.8446 23.1263 13.2677 23.6356 12.7806C25.6966 10.806 25.869 7.96996 24.9147 6.5771C24.215 5.29091 26.0675 8.10884 24.1007 10.7436C23.4671 11.6051 22.6472 11.9875 22.8938 11.7399C24.1729 10.7034 24.8305 9.09713 24.7904 7.50299C24.213 9.81772 21.7891 10.1961 21.8392 12.1727C21.8392 12.4605 21.2317 11.6131 22.5269 10.1619C22.9599 9.62046 23.0381 9.56612 23.1444 9.24608C23.3128 8.85157 23.2506 8.30409 23.0181 7.94379C23.3789 9.15349 21.9054 9.77545 21.2558 11.283C21.2137 11.3454 21.1495 11.3012 21.1656 11.2468C22.0076 9.13739 21.9154 9.39704 21.2097 10.6631C20.536 11.8728 19.696 14.262 20.1451 12.3679C20.2533 11.9131 20.3857 11.4702 20.5741 11.0294C19.3532 12.9235 19.5296 13.9379 19.3572 13.9379C19.1847 13.9379 19.3872 12.6115 19.5817 12.0157C19.1667 12.7685 18.8259 14.0849 18.876 14.9423C20.3516 12.7484 23.3288 13.0302 24.4656 15.6327C25.6284 14.4009 26.5907 12.3257 26.3963 10.2807L26.3983 10.2847Z" fill="white"/>
<path d="M26.1468 15.3133C26.4837 14.4317 26.1328 13.387 27.2114 12.125C26.4275 12.5175 26.3413 13.4696 26.0225 14.1096C25.6316 14.9651 24.6933 15.6353 24.4668 15.6353C25.3188 17.777 23.6768 19.8824 21.1668 19.4516C18.8692 19.035 17.8046 16.6357 18.8772 14.9449C18.7308 14.0794 18.803 13.1857 19.1358 12.3243C18.4742 13.5078 18.1755 14.7255 18.366 16.0681C18.366 16.37 18.0211 15.744 18.1254 14.8121C18.2316 13.8439 18.5303 12.4289 18.0893 14.2022C17.8206 15.8004 17.9028 16.7061 18.4923 18.4754C18.9353 19.7797 18.6627 19.6187 18.6627 19.5523C18.6366 19.355 18.5504 19.196 18.4662 19.0128C18.37 18.8075 18.2938 18.6425 18.1715 18.1151C17.2994 14.8644 18.0311 15.6253 17.7164 13.7252C17.8327 15.0094 17.153 15.0114 17.153 17.0201C17.153 18.6646 17.3054 18.8317 17.3054 19.0933C17.3054 19.5804 16.4393 17.161 17.3595 14.6048C16.9986 15.263 16.724 16.1083 16.6618 16.8591C16.6618 16.9658 16.2729 16.9014 16.6438 15.0375C15.8338 16.1204 15.9761 17.2919 16.1967 18.5116C16.728 21.561 15.519 22.4406 15.6874 22.0844C16.6217 20.1138 15.3607 18.7894 15.5712 16.1667C15.3707 17.1067 15.3386 17.8957 15.4007 18.4835C15.7336 21.6375 14.2901 23.443 14.1938 23.3645C14.1858 23.3585 14.6509 22.5373 14.9096 21.6255C15.0278 21.2108 15.1501 20.7157 15.084 20.3815C14.7412 21.7804 14.5747 22.5956 13.1132 23.9784C12.3874 24.6708 11.6637 24.6588 11.5755 24.5702L10.9219 25.1438C11.6998 25.0452 14.0976 25.8081 15.2584 26.2207C13.1152 25.1438 12.4596 25.2163 12.4596 25.0633C12.4596 24.6467 15.6093 26.0657 15.7155 26.1039C17.7805 26.8507 13.5783 25.0351 13.5783 24.9466C13.6305 24.8399 13.8791 24.9546 14.0334 24.9546C15.6093 25.2445 16.2147 26.1623 17.4938 26.3374C17.8748 26.4018 17.544 26.4663 15.8218 25.4659C15.1481 25.0754 13.9973 24.7473 13.9071 24.7473C12.618 24.6145 14.8354 24.3588 16.1786 24.8641C17.0768 25.1921 17.957 25.6873 19.2822 25.5645C20.1383 25.5082 19.2581 25.5545 18.7188 25.4115C16.73 24.7453 16.4032 24.1797 14.4805 24.226C14.4264 24.226 14.4204 24.1616 14.4725 24.1354C16.7019 23.757 17.8046 25.0029 19.633 24.9164C18.1615 24.6205 17.7565 24.3427 17.6382 24.3427C15.7115 23.6523 15.4829 23.7268 15.4829 23.6342C15.4829 23.5115 16.2548 23.4652 16.6819 23.5356C17.7725 23.6966 18.9393 24.85 21.1888 24.3427C19.8455 24.5118 18.4722 24.1596 17.0207 22.9962C16.8763 22.7063 17.973 23.437 18.1655 23.437L18.1735 23.445C19.3844 23.8939 20.3929 24.1817 21.7421 23.7771C20.2164 23.7268 19.0195 22.8472 19.1138 22.7526C19.194 22.5896 20.7477 24.0147 23.1656 23.1572C21.4755 23.5819 19.6992 22.6419 19.8215 22.5191C19.8756 22.3541 21.0705 23.29 23.0132 22.7083C23.5165 22.5634 22.9631 22.7426 22.3957 22.7889C20.9823 22.9056 19.6791 22.2192 19.7313 22.1146C19.7814 22.0139 20.2265 22.338 21.4755 22.348C22.0068 22.3521 21.1547 22.4064 20.2144 21.9435C20.1603 21.9072 20.1783 21.8529 20.2505 21.8529C22.2013 22.5252 24.0538 21.7965 25.0983 20.6412C23.4302 22.1266 19.6791 21.0458 20.4209 21.0458C23.6508 21.6597 25.9464 19.8783 26.1268 17.7065C25.8341 18.5257 25.4131 19.2423 24.7775 19.8079C23.2719 21.1806 21.6098 20.5647 20.9763 20.4822C20.018 20.3856 19.6431 20.7599 19.5809 20.6351C19.5548 20.5567 19.8415 20.4741 19.9197 20.456C20.449 20.2789 21.0184 20.2849 21.5737 20.2849C23.5465 20.2849 23.7731 19.9609 23.9355 19.8985C24.3826 19.675 23.9896 19.8502 23.8994 19.8803C23.8954 19.8803 23.8613 19.8904 23.8553 19.8985C23.4022 20.0615 22.5501 20.0897 22.5501 19.9609C22.5501 19.82 23.6287 20.0092 24.553 18.8659C24.1721 19.2222 23.727 19.4577 23.2378 19.6106C20.8379 20.146 26.7263 18.6405 26.7263 14.8886C26.4436 16.3036 24.9058 16.8048 24.8477 16.6297C24.7855 16.5049 25.7399 16.4545 26.1529 15.3093L26.1468 15.3133Z" fill="white"/>
<path d="M6.02344 26.4917C6.02344 26.4917 6.50059 25.0263 8.73402 24.7727C10.2156 24.6037 12.3308 24.6721 13.1227 24.0803C13.8745 23.5188 13.241 24.5111 13.241 24.5111C13.241 24.5111 13.3252 24.97 12.1884 25.1008C11.0516 25.2317 7.37071 25.0404 6.78529 26.4051C6.37028 27.3693 6.02344 26.4917 6.02344 26.4917Z" fill="white"/>
<path d="M22.741 16.3533C22.6788 16.14 22.5866 15.9367 22.4723 15.7475C22.344 15.5341 22.1475 15.3711 21.9089 15.3067C21.5781 15.2181 21.2233 15.2322 20.9085 15.357C19.5191 15.8602 20.0344 17.6637 21.1671 17.3054C21.0468 18.5332 23.3364 18.3279 22.741 16.3533Z" fill="url(#paint1_radial_54_65)"/>
<defs>
<radialGradient id="paint0_radial_54_65" cx="0" cy="0" r="1" gradientUnits="userSpaceOnUse" gradientTransform="translate(18.4937 20.7744) scale(7.67263 7.70301)">
<stop/>
<stop offset="0.08" stop-color="#051B08"/>
<stop offset="0.26" stop-color="#0E5118"/>
<stop offset="0.42" stop-color="#167C24"/>
<stop offset="0.57" stop-color="#1C9A2D"/>
<stop offset="0.7" stop-color="#1FAD33"/>
<stop offset="0.79" stop-color="#21B435"/>
<stop offset="1" stop-color="#758626"/>
</radialGradient>
<radialGradient id="paint1_radial_54_65" cx="0" cy="0" r="1" gradientUnits="userSpaceOnUse" gradientTransform="translate(21.4799 16.4862) scale(2.17528 2.1839)">
<stop offset="0.36" stop-color="#184189"/>
<stop offset="0.45" stop-color="#173E85" stop-opacity="0.96"/>
<stop offset="0.57" stop-color="#17387C" stop-opacity="0.85"/>
<stop offset="0.69" stop-color="#172D6D" stop-opacity="0.68"/>
<stop offset="0.82" stop-color="#161E58" stop-opacity="0.43"/>
<stop offset="0.96" stop-color="#150A3E" stop-opacity="0.11"/>
<stop offset="1" stop-color="#150435" stop-opacity="0"/>
</radialGradient>
</defs>
</svg>
