<svg width="35" height="43" viewBox="0 0 35 43" fill="none" xmlns="http://www.w3.org/2000/svg">
<path d="M28.6141 3.98652C26.597 2.3349 24.2385 1.15153 21.7086 0.521759C19.1788 -0.10801 16.5407 -0.168478 13.9847 0.344715C10.6982 1.01852 7.67464 2.62284 5.2742 4.96657C2.87377 7.3103 1.19764 10.2947 0.445478 13.5641C-0.306683 16.8336 -0.103169 20.2504 1.03178 23.4074C2.16672 26.5645 4.18526 29.3288 6.84694 31.371C9.88585 33.5952 12.4733 36.3779 14.4708 39.5704L15.8319 41.8336C16.0047 42.1211 16.249 42.359 16.541 42.5241C16.833 42.6893 17.1627 42.776 17.4982 42.776C17.8336 42.776 18.1634 42.6893 18.4554 42.5241C18.7473 42.359 18.9916 42.1211 19.1645 41.8336L20.4692 39.6598C22.2086 36.6021 24.5804 33.9506 27.4261 31.8824C29.6575 30.3471 31.5016 28.3144 32.8129 25.9445C34.1242 23.5746 34.8668 20.9324 34.9822 18.2264C35.0976 15.5204 34.5826 12.8246 33.4778 10.3517C32.373 7.87875 30.7086 5.6964 28.6161 3.97679L28.6141 3.98652Z" fill="#0097DC"/>
<path d="M24.0898 12C24.8287 12 25.4872 12.1287 26.0654 12.3857C26.6544 12.6427 27.131 13.028 27.4951 13.542C27.8699 14.0452 28.0949 14.6931 28.1699 15.4854H26.4668C26.4025 15.0037 26.258 14.6182 26.0332 14.3291C25.8084 14.0401 25.5301 13.8316 25.1982 13.7031C24.8663 13.5746 24.5017 13.5098 24.1055 13.5098C23.7415 13.5098 23.3826 13.5688 23.0293 13.6865C22.676 13.8043 22.387 13.9921 22.1621 14.249C21.948 14.4953 21.8409 14.8217 21.8408 15.2285C21.8408 15.6033 21.9804 15.9306 22.2588 16.209C22.5372 16.4765 22.9442 16.6585 23.4795 16.7549L25.4229 17.124C26.3543 17.2953 27.0719 17.6326 27.5752 18.1357C28.0892 18.6391 28.3467 19.3358 28.3467 20.2246C28.3467 20.7921 28.2287 21.2904 27.9932 21.7188C27.7577 22.1361 27.4418 22.4893 27.0459 22.7783C26.6497 23.0568 26.2045 23.271 25.7119 23.4209C25.2302 23.56 24.7325 23.6298 24.2188 23.6299C23.6726 23.6299 23.142 23.5601 22.6279 23.4209C22.114 23.271 21.6481 23.041 21.2305 22.7305C20.8129 22.4199 20.4699 22.0238 20.2021 21.542C19.9345 21.0602 19.7743 20.487 19.7207 19.8232H21.3916C21.4666 20.3797 21.6427 20.8293 21.9209 21.1719C22.1993 21.5039 22.5423 21.7456 22.9492 21.8955C23.3561 22.0347 23.7846 22.1035 24.2344 22.1035C24.6841 22.1035 25.091 22.0396 25.4551 21.9111C25.8191 21.772 26.1081 21.5684 26.3223 21.3008C26.5364 21.0223 26.6436 20.6794 26.6436 20.2725C26.6435 19.8977 26.5364 19.5655 26.3223 19.2764C26.1187 18.9875 25.7066 18.7897 25.0859 18.6826L22.9971 18.2969C22.1405 18.1362 21.4554 17.7824 20.9414 17.2363C20.4275 16.6902 20.1699 16.0425 20.1699 15.293C20.1699 14.5971 20.347 14.0082 20.7002 13.5264C21.0643 13.0338 21.5409 12.6584 22.1299 12.4014C22.7296 12.1336 23.3831 12 24.0898 12ZM12.4111 21.0508L16.1953 12.1924H18.2832V23.4375H16.5166V15.4697L13.0791 23.4375H11.6973L8.24414 15.4648V23.4375H6.47656V12.1924H8.58105L12.4111 21.0508Z" fill="white"/>
</svg>
