<svg width="314" height="64" viewBox="0 0 314 64" fill="none" xmlns="http://www.w3.org/2000/svg">
<path d="M24.2028 4.07574H40.3519C40.4041 4.15225 40.4597 4.22875 40.5049 4.30873C43.0921 8.79112 45.6759 13.27 48.2596 17.7524C48.4056 18.0063 48.4091 18.0063 48.5552 17.7524C49.5775 15.9859 50.5964 14.2194 51.6188 12.4494C53.2323 9.657 54.8493 6.86463 56.4628 4.07227H72.6119C72.7128 4.17659 72.7719 4.30873 72.8414 4.43044C75.4147 8.88501 77.9811 13.3431 80.5578 17.7942C80.6726 17.9889 80.6621 18.1315 80.5509 18.3192C77.9741 22.7738 75.4043 27.2284 72.8345 31.683C72.7858 31.7664 72.6745 31.8533 72.7302 31.9438C72.7858 32.0307 72.9145 31.9785 73.0118 31.9785C78.1584 31.9785 83.3015 31.9785 88.4481 31.9785C88.6672 31.9785 88.7924 32.0481 88.9036 32.2428C90.9553 35.8037 93.0105 39.3646 95.0656 42.922C95.6429 43.9235 96.2271 44.9215 96.8078 45.9195V46.0482C96.7522 46.1386 96.6896 46.2255 96.6374 46.3194C94.0606 50.774 91.4874 55.2285 88.9175 59.6866C88.8063 59.8778 88.6845 59.9474 88.462 59.9474C83.2737 59.9404 78.0819 59.9404 72.8936 59.9474C72.6641 59.9474 72.5389 59.8778 72.4207 59.6762C69.8474 55.2112 67.2671 50.7496 64.6904 46.2916C64.5443 46.0343 64.5408 46.0343 64.3948 46.2916C61.8146 50.7531 59.2378 55.2146 56.661 59.6762C56.5463 59.8744 56.4246 59.9509 56.1916 59.9509C51.0033 59.9439 45.8115 59.9439 40.6232 59.9509C40.4041 59.9509 40.2789 59.8848 40.1676 59.6901C37.5943 55.2251 35.0141 50.7635 32.4339 46.3055C32.3887 46.229 32.3643 46.1351 32.2774 46.0864C32.2044 46.1351 32.18 46.2151 32.1418 46.2811C29.558 50.7462 26.9743 55.2146 24.3976 59.6831C24.2828 59.8813 24.1576 59.9543 23.9281 59.9543C18.7363 59.9474 13.548 59.9474 8.35971 59.9543C8.13715 59.9543 8.01545 59.8848 7.90417 59.6935C6.88529 57.9166 5.85945 56.1431 4.83361 54.3696C3.22357 51.5842 1.61004 48.7988 0 46.0099V45.9682C2.6324 41.4093 5.26829 36.8469 7.89721 32.2845C8.02588 32.0655 8.16497 31.9855 8.41883 31.9855C13.5376 31.9924 18.6529 31.989 23.7716 31.989C23.8412 31.989 23.9142 31.989 23.9837 31.989C24.1159 31.989 24.1333 31.9298 24.0707 31.829C24.0498 31.7908 24.0289 31.756 24.0081 31.7177C21.4244 27.2423 18.8441 22.7669 16.2569 18.2949C16.1596 18.1245 16.1561 17.9993 16.2569 17.8289C18.2425 14.4002 20.2177 10.968 22.1964 7.53925C22.864 6.38475 23.5352 5.23025 24.2063 4.07574" fill="white"/>
<path d="M107.742 31.9998V0.0527344H119.381L126.319 20.4999H126.548L133.437 0.0527344H144.891V31.9998H136.723V11.4169H136.493L129.466 31.9998H123.168L116.14 11.4169H115.911V31.9998H107.742Z" fill="white"/>
<path d="M165.112 32.4588C162.344 32.4588 159.924 31.8815 157.855 30.7235C155.786 29.569 154.197 27.9103 153.088 25.7474C151.975 23.5879 151.422 21.0007 151.422 17.9892V0.0527344H159.729V17.9892C159.729 19.5402 159.959 20.8338 160.414 21.87C160.87 22.9063 161.503 23.6887 162.31 24.2208C163.116 24.7528 164.052 25.0206 165.116 25.0206C166.18 25.0206 167.154 24.7528 167.947 24.2208C168.736 23.6887 169.362 22.9063 169.817 21.87C170.273 20.8373 170.502 19.5437 170.502 17.9892V0.0527344H178.765V17.9892C178.765 21.0007 178.208 23.5879 177.099 25.7474C175.986 27.9068 174.415 29.5656 172.377 30.7235C170.339 31.8815 167.919 32.4588 165.119 32.4588H165.112Z" fill="white"/>
<path d="M229.929 32.4588C227.161 32.4588 224.741 31.8815 222.672 30.7235C220.602 29.569 219.013 27.9103 217.904 25.7474C216.791 23.5879 216.238 21.0007 216.238 17.9892V0.0527344H224.546V17.9892C224.546 19.5402 224.775 20.8338 225.231 21.87C225.686 22.9063 226.319 23.6887 227.126 24.2208C227.933 24.7528 228.868 25.0206 229.932 25.0206C230.996 25.0206 231.97 24.7528 232.763 24.2208C233.552 23.6887 234.178 22.9063 234.634 21.87C235.089 20.8373 235.319 19.5437 235.319 17.9892V0.0527344H243.581V17.9892C243.581 21.0007 243.025 23.5879 241.916 25.7474C240.803 27.9068 239.231 29.5656 237.193 30.7235C235.155 31.8815 232.735 32.4588 229.936 32.4588H229.929Z" fill="white"/>
<path d="M250.195 31.9998V0.0527344H260.694L271.098 20.0444H271.328V0.0527344H279.451V31.9998H268.952L258.593 12.0081H258.364V31.9998H250.195Z" fill="white"/>
<path d="M286.203 31.9998V0.0527344H299.257C302.3 0.0527344 304.939 0.699534 307.175 1.99313C309.411 3.28673 311.108 5.13672 312.263 7.53961C313.417 9.94251 313.998 12.7731 313.998 16.028C313.998 19.2828 313.421 22.1135 312.263 24.5164C311.105 26.9193 309.411 28.7692 307.175 30.0628C304.939 31.3564 302.3 32.0032 299.257 32.0032H286.203V31.9998ZM298.937 24.5616C300.155 24.5616 301.271 24.2208 302.293 23.5357C303.312 22.8507 304.143 21.87 304.779 20.5904C305.419 19.3141 305.739 17.791 305.739 16.028C305.739 14.2649 305.419 12.7418 304.779 11.4656C304.14 10.1894 303.312 9.20529 302.293 8.52024C301.274 7.83519 300.155 7.49441 298.937 7.49441H294.511V24.565H298.937V24.5616Z" fill="white"/>
<path d="M213.796 0H203.791L192.89 11.5868V0H185.375V31.8879H192.89V21.094L195.626 18.3955L204.515 31.8879H213.751L201.013 12.783L213.796 0Z" fill="white"/>
<path d="M203.731 63.6538L197.663 54.849C198.3 54.6994 198.915 54.463 199.506 54.1291C200.581 53.5241 201.447 52.6651 202.104 51.5454C202.765 50.4292 203.092 49.1321 203.092 47.6542C203.092 46.1763 202.768 44.8479 202.118 43.7317C201.468 42.6154 200.57 41.7426 199.419 41.1166C198.268 40.4907 196.919 40.1777 195.379 40.1777H185.652V63.6538H189.947V55.0333H193.024L198.901 63.6538H203.731ZM189.947 44.0029H195.111C196.227 44.0029 197.124 44.3332 197.795 44.9905C198.467 45.6512 198.8 46.5379 198.8 47.6577C198.8 48.3949 198.651 49.0382 198.348 49.5876C198.046 50.1371 197.615 50.5613 197.058 50.8638C196.498 51.1664 195.852 51.3159 195.114 51.3159H189.95V44.0029H189.947Z" fill="white"/>
<path d="M213.693 59.8321V53.6284H224.257V50.0397H213.693V44.0029H224.929V40.1777H209.398V63.6538H225.262V59.8321H213.693Z" fill="white"/>
<path d="M246.764 63.6538H251.16L242.574 40.1777H237.441L228.855 63.6538H233.181L234.934 58.7576H245.015L246.768 63.6538H246.764ZM236.262 55.0367L239.886 44.907H240.053L243.676 55.0367H236.262Z" fill="white"/>
<path d="M255.617 63.6538V40.1777H259.912V59.8321H271.046V63.6538H255.617Z" fill="white"/>
<path d="M277.888 63.6538V43.9994H270.645V40.1777H289.36V43.9994H282.148V63.6538H277.888Z" fill="white"/>
<path d="M299.955 63.6538V55.2697L291.738 40.1777H296.301L302.035 51.0099H302.202L307.971 40.1777H312.432L304.215 55.2697V63.6538H299.955Z" fill="white"/>
</svg>
